<?xml version="1.0" standalone="no"?>
<!DOCTYPE svg PUBLIC "-//W3C//DTD SVG 1.1//EN" "http://www.w3.org/Graphics/SVG/1.1/DTD/svg11.dtd" >
<svg>
<metadata>
Created by FontForge 20090914 at Wed Jul  6 12:22:08 2022
 By www-data
Copyright (c) 2017 by faqih. All rights reserved.
</metadata>
<defs>
<font id="mokotoglitchmarkII" horiz-adv-x="1032" >
  <font-face 
    font-family="mokoto glitch mark II"
    font-weight="400"
    font-stretch="normal"
    units-per-em="1000"
    panose-1="0 0 0 0 0 0 0 0 0 0"
    ascent="750"
    descent="-250"
    x-height="823.998"
    cap-height="824"
    bbox="-131 -133.999 1205 1176"
    underline-thickness="50"
    underline-position="-50"
    unicode-range="U+000D-U+20AC"
  />
<missing-glyph horiz-adv-x="564" 
 />
    <glyph glyph-name=".notdef" horiz-adv-x="564" 
 />
    <glyph glyph-name="NULL" horiz-adv-x="0" 
 />
    <glyph glyph-name="NULL" horiz-adv-x="0" 
 />
    <glyph glyph-name="nonmarkingreturn" unicode="&#xd;" horiz-adv-x="564" 
 />
    <glyph glyph-name="space" unicode=" " horiz-adv-x="564" 
 />
    <glyph glyph-name="exclam" unicode="!" horiz-adv-x="364" 
d="M135 251c-0.666992 -13.333 -4.49902 -21.666 -11.499 -24.999s-12.5 -5 -16.5 -5h-34c-4 0 -9.33301 1.66699 -16 5s-10.667 11.666 -12 24.999v14l-2 43h-94l-2 62h94l-7 159h-16l-1 21h16l-4 102h-16l-2 62h15l-4 95h-15l-1 19v2h16c1.33301 20 10.666 30 27.999 30
h80c19.333 0 29 -10.667 29 -32l-5 -114h-5l-3 -62h6l-4 -102h-57l-1 -21h57l-7 -159h-6l-2 -62h6zM139.001 1c-0.666992 -0.666992 -1.33496 -0.999023 -2.00195 -0.999023c-2 -0.666992 -5 -1 -9 -1h-65c-4 0 -7 0.333008 -9 1l-2 1c-1.33301 0 -3.33301 0.666992 -6 2
l-1 1c-3.33301 1.33301 -5.33301 2.66602 -6 3.99902h-1l-6 6h20c-2.66699 4.66699 -5 9.33398 -7 14.001h-59c-0.666992 2.66699 -1 6 -1 10v32h59v33c0 1.33301 0.166992 2.83301 0.5 4.5s0.5 3.16699 0.5 4.5h-20c2 6.66699 4.66699 12 8 16l1 1
c0.666992 0.666992 2 1.66699 4 3c0 1.33301 0.666992 2 2 2c1.33301 1.33301 2.33301 2 3 2c0.666992 0.666992 1.16699 1 1.5 1s0.833008 0.333008 1.5 1c0.666992 0 1.16699 0.166992 1.5 0.5s0.833008 0.5 1.5 0.5c0.666992 0.666992 1.33398 1 2.00098 1
s1.33398 0.333008 2.00098 1h3c1.33301 0.666992 3.66602 1 6.99902 1h65c3.33301 0 5.66602 -0.333008 6.99902 -1h3c0.666992 -0.666992 1.33398 -1 2.00098 -1s1.33398 -0.333008 2.00098 -1c0.666992 0 1.16699 -0.166992 1.5 -0.5s0.833008 -0.5 1.5 -0.5
c0.666992 -0.666992 1.16699 -1 1.5 -1s0.833008 -0.333008 1.5 -1c0.666992 0 1.66699 -0.666992 3 -2c1.33301 0 2 -0.666992 2 -2c0.666992 -0.666992 1.16699 -1 1.5 -1s0.833008 -0.666992 1.5 -2c0.666992 0 1 -0.333008 1 -1c3.33301 -4 6.33301 -9.33301 9 -16
c0 -1.33301 0.166992 -2.83301 0.5 -4.5s0.5 -3.16699 0.5 -4.5v-33v-32c0 -1.33301 -0.166992 -2.83301 -0.5 -4.5s-0.5 -3.5 -0.5 -5.5c-2 -4.66699 -4.33301 -9.33398 -7 -14.001l-6 -6h-1c-0.666992 -0.666992 -2.66699 -2 -6 -4l-1 -1
c-2.66699 -1.33301 -4.66699 -2 -6 -2z" />
    <glyph glyph-name="quotedbl" unicode="&#x22;" horiz-adv-x="569" 
d="M184 987c11.333 0 20.667 -3.66602 28 -10.999s11 -16.666 11 -27.999v-65c0 -4 -0.666992 -8.66699 -2 -14l-27 -102c-3.33301 -11.333 -11 -17 -23 -17c-6 0 -11.333 2.16699 -16 6.5s-7 9.83301 -7 16.5v71h-29c-10.667 0 -19.834 3.66699 -27.501 11
s-11.5 16.666 -11.5 27.999v65c0 11.333 3.83301 20.666 11.5 27.999s16.834 11 27.501 11h65zM400.001 987.001c10.667 0 19.832 -3.66602 27.499 -10.999s11.5 -16.666 11.5 -27.999v-65c0 -5.33301 -1 -10 -3 -14l-27 -102c-3.33301 -11.333 -10.666 -17 -21.999 -17
c-6.66699 0 -12.167 2.16699 -16.5 6.5s-6.5 9.83301 -6.5 16.5v71h-29c-11.333 0 -20.666 3.66699 -27.999 11s-11 16.666 -11 27.999v65c0 11.333 3.66699 20.666 11 27.999s16.666 11 27.999 11h65z" />
    <glyph glyph-name="numbersign" unicode="#" horiz-adv-x="892" 
d="M509 467v-21h13v-44h30h94c16.667 0 25 -9 25 -27v-30h-31v-28c0 -18 -8.33301 -27 -25 -27h-93h-31v-8h31v-95h-19v-21h19v-26c0 -18 -8.33301 -27 -25 -27h-13c-16 0 -24 9 -24 27v26h-37v21h18v95h-18v8h-32h-153h-31v-8h31v-95h-19v-21h19v-26c0 -18 -8 -27 -24 -27
h-14c-16 0 -24 9 -24 27v26h-37v21h18v95h-18v8h-31h-94c-16.667 0 -25 9 -25 27v28h30v30c0 18 8.33301 27 25 27h95h30v44h-30v21h18v97h-18h-107c-16.667 0 -25 8.66699 -25 26v36h-18v23c0 18 8.33301 27 25 27h88h37v12h18v43h-18v63h37v32c0 18 8 27 24 27h14
c16 0 24 -9 24 -27v-32h-37v-63h37v-43h-37v-12h37h148h37v12h18v43h-18v63h37v32c0 18 8 27 24 27h13c16.667 0 25 -9 25 -27v-32h-37v-63h37v-43h-37v-12h37h87c16.667 0 25 -9 25 -27v-23h37v-36c0 -17.333 -8.33301 -26 -25 -26h-106h-18v-97h-13zM453 446h-30v21h18v97
h-18h-166h-19v-97h-23v-21h23v-44h30h155h30v44z" />
    <glyph glyph-name="dollar" unicode="$" horiz-adv-x="851" 
d="M530 54c-26 -36.667 -66.335 -54.999 -121.002 -54.999h-60h-51v-38h37v-68c0 -18 -8.33301 -27 -25 -27h-36c-16.667 0 -25 9 -25 27v106h-51h-189c-4.66699 0 -10.667 1.83301 -18 5.5s-11 13.167 -11 28.5v80c0 15.333 3.66699 24.833 11 28.5s13.333 5.5 18 5.5h226
h14v19h15v47h-15v69h19v61h-19h-94c-10 0 -20.5 0.5 -31.5 1.5s-21.667 3.16699 -32 6.5s-20.166 8 -29.499 14s-17.666 14.333 -24.999 25c-13.333 17.333 -23 40 -29 68h-19c-6.66699 26 -10 56.667 -10 92v76c0 6.66699 0.166992 12.834 0.5 18.501
s0.833008 11.5 1.5 17.5h25c4 40.667 16 75.667 36 105h-25v1c26.667 36.667 67 55 121 55h97h14v106c0 18 8.33301 27 25 27h36c16.667 0 25 -9 25 -27v-2h-37v-69h37v-35h14h206c4 0 9.66699 -1.83301 17 -5.5s11 -12.834 11 -27.501h14v-1v-80
c0 -15.333 -3.5 -24.833 -10.5 -28.5s-12.833 -5.5 -17.5 -5.5h-194h-26v-13h-51v-69h37v-102h14h98c11.333 0 21.833 -0.833008 31.5 -2.5s19.167 -4.16699 28.5 -7.5h-37c16 -6.66699 29 -14.334 39 -23.001h51l10 -10.5l10 -11.5c26 -36 39 -86.667 39 -152v-2h-51v-69
h51v-17v-15.5c0 -5 -0.333008 -9.83301 -1 -14.5h-14c-2 -26 -7 -49 -15 -69h-37c-6 -16 -13.333 -30.333 -22 -43zM273.998 675.001h-24.999h-61h-25c-8.66699 0 -15 -1.33301 -19 -4s-6.66699 -5.66699 -8 -9h-51c-6 -10 -9 -24 -9 -42v-27h37v-47
c0 -12 1.16699 -21.667 3.5 -29s5.16602 -13 8.49902 -17s7 -6.5 11 -7.5s8 -1.5 12 -1.5h14h73h14v171h25v13zM496.999 213.001h-26.001v69h19v6c0 12 -1.16699 21.667 -3.5 29s-5.16602 13 -8.49902 17s-7 6.5 -11 7.5s-8 1.5 -12 1.5h-19h-68h-19v-61h-51v-69h51v-47h-14
v-19h14h72h14c9.33301 0 15.833 1.33301 19.5 4s6.16699 5.66699 7.5 9l3 6h26c4 8.66699 6 20.667 6 36v11z" />
    <glyph glyph-name="percent" unicode="%" horiz-adv-x="959" 
d="M282 14c-4.66699 -10 -12 -15 -22 -15h-39c-8.66699 0 -15.334 3.5 -20.001 10.5s-5.33398 14.167 -2.00098 21.5l34 87h-23l24 62h57l17 43h-57l25 63h45l63 159h-45l8 21h51l40 101h-51l25 63h31l38 95h-31l8 21h44l25 62h-44l14 37c4.66699 10 12 15 22 15h15
c8.66699 0 15.334 -3.5 20.001 -10.5s5.33398 -14.167 2.00098 -21.5l-8 -20h48l-25 -62h-34l-8 -21h34l-37 -95h-32l-25 -63h32l-40 -101h-32l-8 -21h31l-63 -159h-28l-25 -63h29l-17 -43h-2l-24 -62h1zM290 522c-8 -6.66699 -18.666 -11.667 -31.999 -15
c-6.66699 -1.33301 -14 -2.5 -22 -3.5s-17 -1.5 -27 -1.5h-93c-18 0 -34.333 1.66699 -49 5c-12.667 2.66699 -23 7.66699 -31 15c-8.66699 7.33301 -14.334 16.333 -17.001 27c-1.33301 4.66699 -2.33301 9.33398 -3 14.001s-1.33398 9.66699 -2.00098 15h-28
c-0.666992 2.66699 -1 6.33398 -1 11.001v51h21v86c0 2 0.166992 3.83301 0.5 5.5s0.5 3.16699 0.5 4.5h-21c0 3.33301 0.166992 6.66602 0.5 9.99902s0.833008 6.66602 1.5 9.99902h32c1.33301 5.33301 2 8.66602 2 9.99902c4 10.667 9.66699 19.667 17 27
c7.33301 6 18 11.333 32 16c6.66699 1.33301 14 2.5 22 3.5s17 1.5 27 1.5h89c10 0 19 -0.5 27 -1.5s15.333 -2.16699 22 -3.5c14 -4.66699 24.667 -10 32 -16c7.33301 -7.33301 13 -16.333 17 -27c0.666992 -1.33301 1 -2.83301 1 -4.5s0.333008 -3.5 1 -5.5h-24
c0.666992 -3.33301 1.16699 -6.66602 1.5 -9.99902s0.5 -6.66602 0.5 -9.99902h24c0 -1.33301 0.166992 -2.83301 0.5 -4.5s0.5 -3.5 0.5 -5.5v-86h-14v-51v-11h13c-0.666992 -5.33301 -1.16699 -10.333 -1.5 -15s-1.16602 -9.33398 -2.49902 -14.001
c-4 -10.667 -9.66699 -19.667 -17 -27zM229.001 559c4.66699 0 8.6709 0.166992 12.0039 0.5s6.66602 0.833008 9.99902 1.5c6.66699 2.66699 11 5 13 7c3.33301 3.33301 5.33301 6.66602 6 9.99902h-29c0.666992 0.666992 1 1.33398 1 2.00098s0.333008 1.33398 1 2.00098
c0.666992 3.33301 1.16699 6.66602 1.5 9.99902s0.5 7 0.5 11v37h21v73v11c0 3.33301 -0.666992 6.66602 -2 9.99902l-1 2h-21c-1.33301 4.66699 -3.33301 8.33398 -6 11.001c-3.33301 3.33301 -8 6 -14 8c-2.66699 0.666992 -7.33398 1 -14.001 1h33c-2 0.666992 -5 1 -9 1
h-32h-71h-32c-4 0 -6.66699 -0.333008 -8 -1h-24c-6.66699 0 -11.334 -0.333008 -14.001 -1c-6.66699 -2.66699 -11 -5.33398 -13 -8.00098c-2 -2 -4.33301 -5.66699 -7 -11h24c0 -1.33301 -0.333008 -2 -1 -2c-0.666992 -3.33301 -1.16699 -6.66602 -1.5 -9.99902
s-0.5 -7 -0.5 -11v-73h-13v-37c0 -4 0.166992 -7.66699 0.5 -11s0.833008 -6.66602 1.5 -9.99902c0 -0.666992 0.166992 -1.33398 0.5 -2.00098s0.5 -1.33398 0.5 -2.00098h14c0.666992 -3.33301 2.66699 -6.66602 6 -9.99902c2 -2 6.33301 -4.33301 13 -7
c3.33301 -0.666992 6.66602 -1.16699 9.99902 -1.5s7.33301 -0.5 12 -0.5h28h75h29zM463.005 336c8 8 18.668 13.332 32.001 15.999c11.333 2.66699 27.333 4 48 4h93c21.333 0 37.666 -1.33301 48.999 -4c14 -3.33301 24.667 -8.66602 32 -15.999s13 -16.333 17 -27
c1.33301 -4 2.16602 -8.33301 2.49902 -13s0.833008 -9.66699 1.5 -15h29c0 -2 0.166992 -3.83301 0.5 -5.5s0.5 -3.5 0.5 -5.5v-52h-22v-85c0 -4.66699 -0.333008 -8 -1 -10h22c0 -7.33301 -1 -14.333 -3 -21h-32c-0.666992 -1.33301 -1 -2.83301 -1 -4.5
s-0.333008 -3.16699 -1 -4.5c-2.66699 -10.667 -8.33398 -19.667 -17.001 -27c-9.33301 -8 -19.666 -13.333 -30.999 -16c-14.667 -3.33301 -31 -5 -49 -5h-90c-17.333 0 -33.333 1.66699 -48 5c-7.33301 1.33301 -13.5 3.5 -18.5 6.5s-9.5 6.16699 -13.5 9.5
c-8.66699 7.33301 -14.334 16.333 -17.001 27c-0.666992 1.33301 -1 2.83301 -1 4.5s-0.333008 3.16699 -1 4.5h24c-1.33301 3.33301 -2 6.83301 -2 10.5s-0.333008 7.16699 -1 10.5h-24v10v85h13v52c0 2 0.166992 3.83301 0.5 5.5s0.5 3.5 0.5 5.5h-14
c0.666992 5.33301 1.33398 10.333 2.00098 15s1.66699 9 3 13c2.66699 10.667 8.33398 19.667 17.001 27zM524.006 299.999c-8 0 -15.332 -0.667969 -21.999 -2.00098c-6 -2 -10.667 -4.66699 -14 -8c-2 -2 -4 -5 -6 -9h29c0 -1.33301 -0.166992 -2.16602 -0.5 -2.49902
s-0.5 -0.833008 -0.5 -1.5c-1.33301 -3.33301 -2 -6.66602 -2 -9.99902v-12v-37h-22v-72c0 -4 0.166992 -7.66699 0.5 -11s0.833008 -6.66602 1.5 -9.99902c0 -0.666992 0.166992 -1 0.5 -1s0.5 -0.333008 0.5 -1h22c0.666992 -5.33301 2.66699 -9.33301 6 -12
c4 -4 8.66699 -6.33301 14 -7c1.33301 -0.666992 3.16602 -1 5.49902 -1s4.83301 -0.333008 7.5 -1h-32h8h32h71h33h8h24c2.66699 0.666992 5 1 7 1s4 0.333008 6 1c3.33301 0.666992 6 1.66699 8 3l6 4c2.66699 2.66699 4.66699 6.66699 6 12h-24
c0 0.666992 0.166992 1 0.5 1s0.5 0.333008 0.5 1c0.666992 3.33301 1.16699 6.66602 1.5 9.99902s0.5 7 0.5 11v72h13v37v12c0 3.33301 -0.666992 6.66602 -2 9.99902c0 0.666992 -0.166992 1.16699 -0.5 1.5s-0.5 1.16602 -0.5 2.49902h-13c-2 4 -4 7 -6 9
c-2 2.66699 -6.66699 5.33398 -14 8.00098c-6.66699 1.33301 -13.667 2 -21 2h-29h-75h-28z" />
    <glyph glyph-name="ampersand" unicode="&#x26;" horiz-adv-x="973" 
d="M695 19c-4 -13.333 -13 -19.9971 -27 -19.9971h-86c-8 0 -15.333 1.66699 -22 5c-5.33301 3.33301 -10 7.33301 -14 12l-11 11h10l-54 57h-11l-29 31l-12 -16l-4 4h-20l-14 -19h27c-6 -8.66699 -11.833 -16.5 -17.5 -23.5s-11.167 -13.167 -16.5 -18.5
c-3.33301 -2.66699 -6.33301 -5.33398 -9 -8.00098s-5.66699 -5 -9 -7h-26c-3.33301 -2.66699 -6.33301 -4.83398 -9 -6.50098l-9 -5.5c-6.66699 -3.33301 -13.5 -6 -20.5 -8s-14.5 -3.66699 -22.5 -5c-15.333 -2 -33.333 -3 -54 -3h-143c-33.333 0 -61.333 9.33301 -84 28
h11c-4.66699 2.66699 -9 6.66699 -13 12c-10.667 10.667 -18.667 25.667 -24 45h-11l-5 19h30c-3.33301 18.667 -5 37.667 -5 57v30h-30v31v13.5c0 4.33301 0.333008 8.5 1 12.5h10c3.33301 29.333 9.66602 54 18.999 74c2.66699 6 6.66699 12.333 12 19h-10
c2 3.33301 4.33301 6.5 7 9.5s5.66699 6.16699 9 9.5h35c10.667 11.333 24.334 22.333 41.001 33l86 54l-37 40l-18 19h-34c-1.33301 2 -2.66602 3.83301 -3.99902 5.5s-2.66602 3.5 -3.99902 5.5c-6 8 -11.333 17.667 -16 29c-1.33301 3.33301 -2.33301 6.33301 -3 9
s-1.33398 5.66699 -2.00098 9h10c-0.666992 2.66699 -1.33398 5.16699 -2.00098 7.5s-1 4.83301 -1 7.5c-0.666992 3.33301 -1.16699 7.16602 -1.5 11.499s-0.5 8.5 -0.5 12.5h-10c-0.666992 3.33301 -1 8.33301 -1 15v63c0 36.667 6.66699 67.334 20 92.001h10l3 6
c16 27.333 43 41 81 41h212c37.333 0 65 -12 83 -36c2 -2 4.33301 -5.66699 7 -11h-27c12.667 -20.667 19 -45 19 -73v-40h-28v-57h54c0 -7.33301 -0.166992 -14.333 -0.5 -21s-0.833008 -12.667 -1.5 -18h-9c-2 -16.667 -6 -31 -12 -43l-9 -15h10
c-4.66699 -8 -9.66699 -14.667 -15 -20c-10.667 -10.667 -23.334 -20.334 -38.001 -29.001l-54 -35l60 -62h-14l22 -19h11l5 -5l4 5h1l5 -5l4 5h41l14 19h-51l35 47c10.667 14 24.334 21 41.001 21h84c9.33301 0 16 -4.33301 20 -13s3.33301 -16.667 -2 -24l-22 -31h19
l-82 -112h-27l-10 -14l41 -43h27l85 -87h-26l18 -19h27l33 -34c6 -7.33301 8.66699 -15 8 -23h-27c0 -3.33301 -0.333008 -6 -1 -8zM357 190.003l-30.002 -0.000976562l23 31l-25 26h10l-89 93h-10l-6 7l-78 -49c-18 -9.33301 -29 -26.333 -33 -51h-27
c-0.666992 -3.33301 -1.16699 -6.66602 -1.5 -9.99902s-0.5 -7 -0.5 -11v-29c0 -3.33301 0.333008 -5.66602 1 -6.99902h26c0.666992 -9.33301 1.83398 -16.333 3.50098 -21s3.5 -8 5.5 -10c6 -6.66699 14.333 -10 25 -10h136c4 0 8 0.166992 12 0.5
s7.66699 0.833008 11 1.5c6.66699 1.33301 11.334 2.66602 14.001 3.99902c4 2 8 5 12 9s8.66699 9.66699 14 17zM199.998 602.002c0 -6 0.331055 -10.833 0.998047 -14.5s1.33398 -6.16699 2.00098 -7.5c0.666992 -2 1.83398 -4.33301 3.50098 -7s4.5 -6 8.5 -10h-33l3 -4
l41 -39l19 11l10 -11l59 37l8 6h11c6 4.66699 9.66699 8.66699 11 12c1.33301 2 2.33301 5.16699 3 9.5s1 10.166 1 17.499h-10v43c0 8.66699 -1.66699 15.334 -5 20.001c-2.66699 4 -7.66699 6 -15 6h-128c-2 0 -4.5 -0.5 -7.5 -1.5s-5.16699 -4.5 -6.5 -10.5h-28
c-2 -5.33301 -3 -12.333 -3 -21v-36h55zM491.996 103.002l-12 12l-8 -12h20z" />
    <glyph glyph-name="quotesingle" unicode="'" horiz-adv-x="353" 
d="M42 985c0.666992 0 1.00195 0.166992 1.00195 0.5s0.333008 0.5 1 0.5c2 0.666992 5.33301 1 10 1h78c4 0 7.33301 -0.333008 10 -1l2 -1c1.33301 -0.666992 2.5 -1.16699 3.5 -1.5s2.16699 -0.833008 3.5 -1.5c0.666992 0 1 -0.333008 1 -1c6 -3.33301 10.667 -8 14 -14
h-27c1.33301 -2.66699 2.33301 -5 3 -7s1 -4.33301 1 -7h27c0.666992 -1.33301 1 -3 1 -5v-65c0 -5.33301 -1 -10 -3 -14l-6 -24h-30l-11 -42h30l-8 -29h-14l-2 -7c-2 -8.66699 -6.66699 -14 -14 -16c-11.333 3.33301 -17 10.666 -17 21.999v1v29v41h-29
c-1.33301 0 -3 0.166992 -5 0.5s-3.66699 0.5 -5 0.5h24c-8.66699 2.66699 -15.667 7.33398 -21 14.001s-8 14.667 -8 24v65v5h-37c1.33301 5.33301 3 10 5 14c3.33301 6 8 10.667 14 14v1c1.33301 0.666992 2.66602 1.16699 3.99902 1.5s2.66602 0.833008 3.99902 1.5z" />
    <glyph glyph-name="parenleft" unicode="(" horiz-adv-x="487" 
d="M253 -113c-1.33301 -0.666992 -2.66699 -1.6709 -4 -3.00391c-2 -0.666992 -4.66699 -1 -8 -1h-22h-14c-4 0 -8.33301 0.333008 -13 1l-18 3c-2.66699 0 -4.66699 0.333008 -6 1l-11.5 2c-3.66699 0.666992 -7.16699 1.66699 -10.5 3c-4 1.33301 -7.66699 2.5 -11 3.5
s-6.66602 2.16699 -9.99902 3.5c-2.66699 1.33301 -6 2.66602 -10 3.99902c-30.667 15.333 -55.334 38.333 -74.001 69c-13.333 21.333 -24 47.333 -32 78h27c-2 6.66699 -3.83301 13.5 -5.5 20.5s-3.16699 14.5 -4.5 22.5c-1.33301 5.33301 -2.33301 10.666 -3 15.999
s-1.33398 11 -2.00098 17h-28c-1.33301 8 -2.33301 16.333 -3 25s-1.66699 17.667 -3 27h48c-1.33301 12 -2.16602 24.333 -2.49902 37s-0.833008 25.667 -1.5 39h-110v17v177h98v26h-35v124h16v5v36.5c-0 11.667 0.333008 23.167 1 34.5h-81c2 40.667 6 76.334 12 107.001
c0.666992 1.33301 1 2.83301 1 4.5s0.333008 3.16699 1 4.5h107c1.33301 4 2.33301 8.16699 3 12.5s1.66699 8.5 3 12.5h-41c4 15.333 8.5 29.166 13.5 41.499s10.167 23.833 15.5 34.5h37c1.33301 2 2.33301 3.83301 3 5.5s1.66699 3.5 3 5.5c18 29.333 40.667 51 68 65
h-37c1.33301 0.666992 2.33301 1.33398 3 2.00098s1.66699 1 3 1c28.667 14.667 63.334 22 104.001 22h22c5.33301 0 10 -1.66699 14 -5s6 -9.33301 6 -18v-2v-64c0 -4 -0.666992 -8 -2 -12h-41c-1.33301 -4 -3.83301 -6.83301 -7.5 -8.5s-7.16699 -2.5 -10.5 -2.5h-22
c-20.667 0 -38.667 -4.33301 -54 -13c-14 -6.66699 -27 -20.667 -39 -42c-0.666992 -1.33301 -1.33398 -2.83301 -2.00098 -4.5s-1.33398 -3.5 -2.00098 -5.5h40c-1.33301 -4 -2.83301 -8 -4.5 -12s-3.16699 -8.33301 -4.5 -13h-65c-2 -7.33301 -4 -15.166 -6 -23.499
s-3.66699 -17.166 -5 -26.499c-2 -9.33301 -3.5 -19.666 -4.5 -30.999s-1.83301 -23 -2.5 -35h64c-0.666992 -11.333 -1.16699 -22.666 -1.5 -33.999s-0.5 -23.666 -0.5 -36.999v-5h-53v-124h161v-26h-127v-177v-17h20c0 -28 1 -53.333 3 -76h-36l2 -23
c0.666992 -7.33301 1.66699 -14.666 3 -21.999c0.666992 -1.33301 1 -2.5 1 -3.5s0.333008 -2.16699 1 -3.5h36c6 -30.667 13.667 -56 23 -76h-32v-2c11.333 -20.667 24.333 -35 39 -43c16 -8 34 -12 54 -12h22c5.33301 0 10 -1.66699 14 -5s6 -9.33301 6 -18v-66v-5h32
c0 -2 -0.666992 -4.33301 -2 -7s-2.66602 -4.33398 -3.99902 -5.00098c0 -0.666992 -0.333008 -1 -1 -1z" />
    <glyph glyph-name="parenright" unicode=")" horiz-adv-x="487" 
d="M0 992c1.33301 0 2.66504 0.173828 3.99805 0.506836s2.66602 0.5 3.99902 0.5h23c4.66699 0 9.16699 -0.166992 13.5 -0.5s8.5 -0.5 12.5 -0.5l18 -3c2.66699 0 4.66699 -0.333008 6 -1l11.5 -2c3.66699 -0.666992 7.16699 -1.66699 10.5 -3
c6.66699 -2 13.667 -4.66699 21 -8c4 -1.33301 7.33301 -2.66602 10 -3.99902c30.667 -14 55.334 -37 74.001 -69c12.667 -20.667 23.667 -46.334 33 -77.001h-28c2 -6.66699 3.83301 -13.667 5.5 -21s3.16699 -14.666 4.5 -21.999
c1.33301 -5.33301 2.33301 -10.666 3 -15.999s1.33398 -11 2.00098 -17h28c2.66699 -16 4.66699 -33.333 6 -52h-47c0.666992 -12 1.16699 -24.333 1.5 -37s0.833008 -25.667 1.5 -39h188v-17v-178h-175v-25h34v-124h-15v-5c0 -12.667 -0.166992 -24.834 -0.5 -36.501
s-0.833008 -23.167 -1.5 -34.5h15c-2 -40.667 -6 -76.334 -12 -107.001c0 -2 -0.666992 -5 -2 -9h-41c-1.33301 -4.66699 -2.33301 -9 -3 -13s-1.66699 -8 -3 -12h41c-6.66699 -28.667 -16.334 -54 -29.001 -76h-37c-1.33301 -2 -2.33301 -3.83301 -3 -5.5
s-1.66699 -3.5 -3 -5.5c-18 -29.333 -40.667 -51 -68 -65h37c-1.33301 -0.666992 -2.33301 -1.33398 -3 -2.00098s-1.66699 -1.33398 -3 -2.00098c-29.333 -14 -63.666 -21 -102.999 -21h-23c-5.33301 0 -10 1.66699 -14 5s-6 9.33301 -6 18v2v64c0 4 0.666992 8 2 12h41
c1.33301 4 3.83301 6.83301 7.5 8.5s7.16699 2.5 10.5 2.5h22c20 0 38 4 54 12c14.667 8 27.667 22 39 42c0.666992 2 1.33398 3.83301 2.00098 5.5s1.33398 3.5 2.00098 5.5h-112c2 3.33301 3.83301 7.16602 5.5 11.499s3.16699 8.83301 4.5 13.5h136
c2 7.33301 4 15.166 6 23.499s3.66699 17.166 5 26.499c2 9.33301 3.5 19.5 4.5 30.5s2.16699 22.833 3.5 35.5h-65c0.666992 11.333 1.16699 22.666 1.5 33.999s0.5 23.666 0.5 36.999v5h53v124h-194v25h160v178v17h-20c0 27.333 -1 52.666 -3 75.999h36l-2 23
c-0.666992 7.33301 -1.66699 14.666 -3 21.999c-0.666992 1.33301 -1 2.5 -1 3.5s-0.333008 2.16699 -1 3.5h-36c-6 30.667 -13.667 56 -23 76h32v2c-12 21.333 -25 35.333 -39 42c-17.333 8.66699 -35.333 13 -54 13h-22c-5.33301 0 -10 1.66699 -14 5s-6 9.33301 -6 18v66
v4h-32c0 2.66699 0.666992 5.33398 2 8.00098s2.66602 4.33398 3.99902 5.00098l2 1z" />
    <glyph glyph-name="asterisk" unicode="*" horiz-adv-x="611" 
d="M334 726l-6.00098 -10.0049c-4.66699 -7.33301 -10 -11.333 -16 -12c-0.666992 -0.666992 -2.66699 -1 -6 -1c-2 0 -3.66699 0.333008 -5 1h-2l-6 3l-30 19l-92 58l-13 -8l-12 8l-92 -58h25l-30 -19c-3.33301 -2.66699 -7.66602 -4 -12.999 -4h-5
c-6.66699 2 -12.334 6.33301 -17.001 13l-6 10l-32 50c-10 15.333 -7.66699 27.333 7 36l59 37h41l14 9l-73 46c-3.33301 2 -6 4.66699 -8 8h-41c-6 6.66699 -5.66699 16 1 28l10 15h41l29 44l2 4l51 -32v26l41 -26v46h-26v25c0 16 9 24 27 24h55c18 0 27 -8 27 -24v-71
l42 26v-26l50 32c1.33301 -1.33301 2.33301 -2.66602 3 -3.99902l28 -44h-49l9 -15c2.66699 -3.33301 4.33398 -6.66602 5.00098 -9.99902s1 -6.66602 1 -9.99902c-0.666992 -1.33301 -1.16699 -2.66602 -1.5 -3.99902s-1.16602 -2.66602 -2.49902 -3.99902h49
c-2.66699 -4 -5.33398 -6.66699 -8.00098 -8l-72 -46l13 -9h-25l59 -37c14 -8.66699 16 -20.667 6 -36l-31 -50h25z" />
    <glyph glyph-name="plus" unicode="+" horiz-adv-x="571" 
d="M331 402c-4 -4.66699 -10 -7 -18 -7h-83h-11v-94v-1h11c0 -10 -4.33301 -17 -13 -21h-11l-6 -2c-2 -0.666992 -4.66699 -1 -8 -1h-59c-3.33301 0 -6 0.333008 -8 1l-6 2h33c-8.66699 4 -13 11 -13 21h-33v1v94h-11h-83c-8 0 -14 2.33301 -18 7h33c-4 4 -6 10.667 -6 20
v42h-96v28c0 18 8.33301 27 25 27h145h11v40h33v21h-33v33c0 16 9 24 27 24h59c18 0 27 -8 27 -24v-33h11v-21h-11v-40h11h83c16.667 0 25 -9 25 -27v-28h10v-42c0 -9.33301 -2 -16 -6 -20h-11z" />
    <glyph glyph-name="comma" unicode="," horiz-adv-x="353" 
d="M-32 142c0 0.666992 0.667969 1.00098 2.00098 1.00098c2 0.666992 5.33301 1 10 1h100c4 0 7 -0.333008 9 -1c1.33301 0 2 -0.333008 2 -1c1.33301 0 2.66602 -0.333008 3.99902 -1l4 -2h1c4.66699 -3.33301 9.33398 -8.33301 14.001 -15h-28
c2 -2.66699 3.66699 -7.33398 5 -14.001h27c0 -0.666992 0.166992 -1.33398 0.5 -2.00098s0.5 -1.66699 0.5 -3v-65c0 -4.66699 -1 -9 -3 -13l-6 -24h-30l-11 -42h30l-8 -29h-14l-2 -8c-2 -7.33301 -7 -12.666 -15 -15.999c-10.667 3.33301 -16 10.666 -16 21.999v2v29v40
h-78c-2.66699 0 -6 0.666992 -10 2h73c-8.66699 2 -15.667 6.33301 -21 13s-8 14.667 -8 24v65v5h-59c1.33301 6.66699 2.66602 11.334 3.99902 14.001c4.66699 6.66699 9.33398 11.667 14.001 15h1l4 2c1.33301 0.666992 2.66602 1 3.99902 1z" />
    <glyph glyph-name="hyphen" unicode="-" horiz-adv-x="567" 
d="M6 482c3.33301 9.33301 10.667 14.001 22 14.001h282c10.667 0 18 -4.66699 22 -14h-56c2 -4 3 -8.33301 3 -13v-8h55v-50c0 -6 -0.333008 -10 -1 -12h-45c-4 -10 -11.667 -15 -23 -15h-263c-12 0 -19.333 5 -22 15h27c-0.666992 2 -1 6 -1 12v50h-28v8
c0 3.33301 0.666992 7.66602 2 12.999h26v0z" />
    <glyph glyph-name="period" unicode="." horiz-adv-x="353" 
d="M86 3c-1.33301 0 -2.00391 -0.333008 -2.00391 -1c-1.33301 0 -2.83301 -0.166992 -4.5 -0.5s-3.16699 -0.5 -4.5 -0.5h-65c-1.33301 0 -2.83301 0.166992 -4.5 0.5s-3.16699 0.5 -4.5 0.5c0 0.666992 -0.666992 1 -2 1c-1.33301 0.666992 -2.33301 1 -3 1
s-1.66699 0.333008 -3 1c0 0.666992 -0.333008 1 -1 1c-2 0.666992 -4 2 -6 4c-0.666992 0 -1 0.333008 -1 1l-6 6h20c-2 2.66699 -4.33301 7.33398 -7 14.001h-51c-0.666992 2 -1 5 -1 9v33h51v32c0 2 0.166992 3.83301 0.5 5.5s0.5 3.16699 0.5 4.5h-20
c1.33301 3.33301 2.66602 6.16602 3.99902 8.49902s2.66602 4.83301 3.99902 7.5c0.666992 0 1 0.333008 1 1c0.666992 0.666992 1.33398 1.16699 2.00098 1.5s1.33398 0.833008 2.00098 1.5l2 2c0.666992 0 1.66699 0.666992 3 2c0.666992 0 1.16699 0.166992 1.5 0.5
s0.833008 0.5 1.5 0.5c0.666992 0.666992 1.16699 1 1.5 1s0.833008 0.333008 1.5 1c0.666992 0 1.33398 0.166992 2.00098 0.5s1.33398 0.5 2.00098 0.5s1.16699 0.166992 1.5 0.5s0.833008 0.5 1.5 0.5h7h65h7c0.666992 0 1.16699 -0.166992 1.5 -0.5
s0.833008 -0.5 1.5 -0.5s1.33398 -0.166992 2.00098 -0.5s1.33398 -0.5 2.00098 -0.5c0.666992 -0.666992 1.16699 -1 1.5 -1s0.833008 -0.333008 1.5 -1c0.666992 0 1.16699 -0.166992 1.5 -0.5s0.833008 -0.5 1.5 -0.5c1.33301 -1.33301 2.33301 -2 3 -2l2 -2l3 -3
c0.666992 0 1 -0.333008 1 -1c4 -5.33301 7 -10.666 9 -15.999c0 -1.33301 0.166992 -2.83301 0.5 -4.5s0.5 -3.5 0.5 -5.5v-32v-33c0 -1.33301 -0.166992 -2.83301 -0.5 -4.5s-0.5 -3.16699 -0.5 -4.5c-2.66699 -6.66699 -5 -11.334 -7 -14.001l-6 -6l-1 -1
c-2 -2 -4 -3.33301 -6 -4l-1 -1c-1.33301 -0.666992 -2.33301 -1 -3 -1s-1.66699 -0.333008 -3 -1z" />
    <glyph glyph-name="slash" unicode="/" horiz-adv-x="643" 
d="M72 14c-4.66699 -10 -12 -15 -22 -15h-48c-8 0 -14.333 3.5 -19 10.5s-5.33398 14.167 -2.00098 21.5l34 87h-15l24 62h48l17 43h-48l25 63h37l63 159h-37l8 21h43l40 101h-43l25 63h23l38 95h-23l8 21h36l25 62h-36l14 37c4.66699 10 12 15 22 15h7
c8 0 14.333 -3.5 19 -10.5s5.33398 -14.167 2.00098 -21.5l-7 -20h56l-25 -62h-42l-8 -21h42l-38 -95h-40l-24 -63h40l-40 -101h-40l-8 -21h39l-63 -159h-37l-24 -63h37l-18 -43h-9l-25 -62h10l-41 -104v0z" />
    <glyph glyph-name="zero" unicode="0" horiz-adv-x="979" 
d="M662 71c-24 -26 -53.6689 -44.3301 -89.002 -54.9971c-38 -11.333 -82.333 -17 -133 -17h-177c-49.333 0 -92.666 5.66699 -129.999 17c-34.667 10.667 -63.334 29 -86.001 55c-5.33301 5.33301 -10.333 11.5 -15 18.5s-9 14.167 -13 21.5h37
c-8.66699 16 -16 35.333 -22 58c0 2 -0.333008 3.33301 -1 4h-36c-2 7.33301 -3.5 14.5 -4.5 21.5s-2.16699 14.167 -3.5 21.5h38l-4 30.5c-1.33301 10.333 -2.33301 21.166 -3 32.499h-37c-0.666992 6 -1 12 -1 18v19v122h37v21h-37v63v19.5
c0 6.33301 0.333008 12.5 1 18.5h37c0.666992 21.333 2.66699 42.333 6 63h-37l4 23l4 22c2.66699 9.33301 5.5 18.166 8.5 26.499s6.5 16.166 10.5 23.499h37c1.33301 3.33301 3 6.83301 5 10.5l6 10.5h-23l9.5 13.5c3 4.33301 6.5 8.5 10.5 12.5
c11.333 13.333 26 25.333 44 36h-14c12 7.33301 26 13.666 42 18.999c36 12 79.333 18 130 18h178c50.667 0 94 -6 130 -18c16 -5.33301 30 -11.666 42 -18.999h29c16.667 -10.667 31.334 -22.667 44.001 -36c10.667 -12 21 -27.667 31 -47h-3
c8.66699 -16 15.334 -32.667 20.001 -50c2 -7.33301 3.83301 -14.666 5.5 -21.999s3.16699 -15 4.5 -23c4 -30 6 -63.667 6 -101v-63v-21v-122v-37c-0.666992 -21.333 -2.66699 -42.333 -6 -63l-4 -21.5l-4 -20.5c0 -1.33301 -0.166992 -2.33301 -0.5 -3
s-0.5 -1.33398 -0.5 -2.00098c-6 -22.667 -13.333 -42 -22 -58h-23c-8 -14.667 -17.333 -28 -28 -40zM587.998 160.003c3.33301 2 6.33301 4 9 6l9 7h-24zM433.998 145.003l-10.999 28.0029h-161l-5 13l-12 30h160l-25 63h-37l-64 159h39l-11 21h-37l-41 101h37l-25 63h-37
l-22 54c-8.66699 -4.66699 -17 -11.334 -25 -20.001c-1.33301 -1.33301 -2.5 -3 -3.5 -5l-3.5 -7l-14 32c-10 -5.33301 -18.667 -12 -26 -20c-4 -4.66699 -7.5 -9.83398 -10.5 -15.501s-5.83301 -11.834 -8.5 -18.501h49l-2 -8l-2 -8
c-1.33301 -8.66699 -2.5 -17.667 -3.5 -27s-1.5 -19.666 -1.5 -30.999c-0.666992 -3.33301 -1 -6.83301 -1 -10.5v-10.5v-69v-149c0 -32.667 2 -59.334 6 -80.001c1.33301 -5.33301 2.66602 -10 3.99902 -14h-3c4 -14.667 10.667 -26.667 20 -36
c1.33301 -2 3.33301 -4.33301 6 -7c8 -8 19.667 -14.667 35 -20c18 -5.33301 39.667 -8 65 -8h37h97h37zM550.999 160.006c3.33301 2 6.33105 4.00098 8.99805 6.00098l9 7c2.66699 2.66699 4.66699 5 6 7c4 4 7 9 9 15c0.666992 0.666992 1 1.16699 1 1.5
s0.333008 0.833008 1 1.5c1.33301 2.66699 2.5 5.5 3.5 8.5s2.16699 6.16699 3.5 9.5h37c0.666992 2.66699 1.16699 5 1.5 7s0.833008 4.33301 1.5 7c1.33301 7.33301 2.33301 15 3 23s1.33398 16.667 2.00098 26h-37c0 2 0.166992 4 0.5 6s0.5 4.33301 0.5 7v18v128h37v21
h-37v69v18c0 2.66699 -0.166992 5.16699 -0.5 7.5s-0.5 4.5 -0.5 6.5h37c-0.666992 9.33301 -1.33398 17.666 -2.00098 24.999s-1.66699 14.666 -3 21.999c-0.666992 2.66699 -1.16699 5.33398 -1.5 8.00098s-1.16602 5.33398 -2.49902 8.00098h-37
c-4 13.333 -9.66699 24.666 -17 33.999c-10 12 -23.667 20.667 -41 26c-15.333 5.33301 -36.666 8 -63.999 8h-23h-109h-33l29 -68h115l25 -63h-117l40 -101h135l8 -21h-111l63 -159h11l25 -63l14 -33z" />
    <glyph glyph-name="one" unicode="1" horiz-adv-x="432" 
d="M208 26c0 -18 -7.33203 -27 -21.999 -27h-74c-14.667 0 -22 9 -22 27v70h-29v62h29v43h-29v62h29v160h-62v20h44v102h-60v62h88v58c0 17.333 -8 26 -24 26h-35c-11.333 0 -19 3.66699 -23 11h-29c-2 4 -3 9 -3 15v6h29v63h-29v25c0 18 7.66699 27 23 27h92
c35.333 0 61 -8.33301 77 -25c3.33301 -3.33301 6.16602 -7.33301 8.49902 -12s4.5 -9.66699 6.5 -15h9c4 -14 6 -30.667 6 -50v-13h-8v-21h8v-95h-8v-62h8v-102h-8v-20h8v-160h-15v-62h15v-43h-15v-62h15v-70v0z" />
    <glyph glyph-name="two" unicode="2" horiz-adv-x="967" 
d="M702 26c0 -18 -7.66309 -27.002 -22.9961 -27.002h-613c-33.333 0 -57.333 8.33301 -72 25c-12.667 14.667 -19.667 38.667 -21 72h37v5v57h-82v43h18v62h64v23c0 56 11 101.667 33 137h-108c1.33301 2.66699 3 5.16699 5 7.5s4 4.83301 6 7.5
c1.33301 1.33301 2.16602 2.33301 2.49902 3s1.16602 1.33398 2.49902 2.00098h108c32.667 32.667 78.667 49 138 49h332h85c33.333 0 52 17.667 56 53h-292c0 2 0.166992 4.16699 0.5 6.5s0.5 4.83301 0.5 7.5v48h268v16c0 21.333 -4 38 -12 50s-22 18 -42 18h-65h-388
c-8.66699 0 -15 3.66699 -19 11h-63c-1.33301 2.66699 -2.33301 5 -3 7c0 1.33301 -0.166992 2.66602 -0.5 3.99902s-0.5 3 -0.5 5v5h37v63h-37v25c0 18 7.33301 27 22 27h466c64 0 111.667 -17.333 143 -52l2 -2c13.333 -16.667 24 -37 32 -61
c1.33301 -3.33301 2.16602 -6.66602 2.49902 -9.99902s1.16602 -7 2.49902 -11c4 -18 6 -37.667 6 -59v-36v-48c0 -6 -0.333008 -10.667 -1 -14c-1.33301 -40 -8.33301 -74 -21 -102c-3.33301 -8 -7.33301 -14.667 -12 -20h1c-2 -3.33301 -3.83301 -6.16602 -5.5 -8.49902
l-5.5 -7.5c-30 -35.333 -74 -53 -132 -53h-344h-37c-34.667 0 -52 -22.667 -52 -68v-85v-29c0 -1.33301 0.166992 -2.83301 0.5 -4.5s0.5 -3.16699 0.5 -4.5c2 -10.667 8.33301 -16 19 -16h37h528c15.333 0 23 -9 23 -27v-24h-27v-70v0z" />
    <glyph glyph-name="three" unicode="3" horiz-adv-x="947" 
d="M766 583c0 -56.667 -14.665 -102.335 -43.998 -137.002h42c-3.33301 -2.66699 -6.5 -5.33398 -9.5 -8.00098s-6.16699 -5 -9.5 -7c1.33301 -1.33301 2.66602 -2.33301 3.99902 -3h-39c6 -5.33301 11.667 -11 17 -17l2 -2c3.33301 -3.33301 5.66602 -6 6.99902 -8
s2.5 -3.83301 3.5 -5.5s2.16699 -3.5 3.5 -5.5c9.33301 -15.333 16.333 -32 21 -50c3.33301 -14.667 5.66602 -32.667 6.99902 -54h21v-10v-69v-3h-21v-9c0 -2.66699 -0.333008 -5.66699 -1 -9v-8v-6c-1.33301 -9.33301 -2.5 -18.333 -3.5 -27s-2.5 -17 -4.5 -25
c-4 -16 -9.33301 -30 -16 -42h39c-4 -7.33301 -8.66699 -15 -14 -23c-14 -18 -32.333 -31.667 -55 -41c-23.333 -10 -51.333 -15 -84 -15h-39h-498h-39c-14.667 0 -22 9 -22 27v52h-37v42c0 4 0.666992 8 2 12h37c0 1.33301 0.333008 2.5 1 3.5s1.33398 2.16699 2.00098 3.5
c0 0.666992 0.333008 1 1 1l1 1l2 2c0.666992 0 1.33398 0.333008 2.00098 1s1.33398 1 2.00098 1c4 1.33301 7 2 9 2h492c26 0 45 6 57 18c1.33301 1.33301 2.5 2.83301 3.5 4.5s2.16699 3.16699 3.5 4.5c2.66699 5.33301 4.33398 9.33301 5.00098 12h-448
c2.66699 4 5 10 7 18h446c0 2.66699 0.166992 5.33398 0.5 8.00098s0.5 5.66699 0.5 9v56c0 1.33301 -0.166992 2.83301 -0.5 4.5s-0.5 3.16699 -0.5 4.5h-37c-1.33301 20.667 -7.33301 36.667 -18 48c-1.33301 1.33301 -4 3.33301 -8 6h37
c-4 2.66699 -7.33301 4.33398 -10 5.00098c-0.666992 0.666992 -1.16699 1 -1.5 1s-0.833008 0.333008 -1.5 1c-0.666992 0 -1.33398 0.166992 -2.00098 0.5s-1.33398 0.5 -2.00098 0.5c-1.33301 0.666992 -2.33301 1 -3 1s-1.66699 0.333008 -3 1
c-2 0 -3.33301 0.333008 -4 1h-4c-0.666992 0.666992 -2.33398 1 -5.00098 1c-0.666992 0 -1.16699 0.166992 -1.5 0.5s-1.16602 0.5 -2.49902 0.5c-3.33301 0 -6.66602 0.166992 -9.99902 0.5s-7 0.5 -11 0.5h-417c-16 0 -24 8.66699 -24 26v48h-97v18h45v19
c0 18 8 27 24 27h52h375c34.667 0 58 6 70 18c12 12.667 18 30.334 18 53.001v21h41v34c0 2.66699 -0.166992 5 -0.5 7s-0.5 4 -0.5 6v3c-0.666992 0.666992 -1 2 -1 4h-41c-3.33301 16.667 -9 28.667 -17 36c-11.333 11.333 -31 17 -59 17h-447h-58c-15.333 0 -23 9 -23 27
v93v2h59c1.33301 8.66699 3.33301 15 6 19h1l3 3c0.666992 0 1.16699 0.166992 1.5 0.5s0.833008 0.5 1.5 0.5c2.66699 1.33301 5.66699 2 9 2h519c5.33301 0 10.666 -0.166992 15.999 -0.5s10.666 -0.833008 15.999 -1.5h6c2 -0.666992 4 -1 6 -1s4 -0.333008 6 -1
c4 0 8.66699 -0.666992 14 -2h2c35.333 -8 62.333 -22.333 81 -43c29.333 -33.333 44 -83 44 -149v-2h41v-54h-41v-1z" />
    <glyph glyph-name="four" unicode="4" horiz-adv-x="1017" 
d="M680 6c-2.66699 -2.66699 -5 -4.33398 -7 -5.00098c-2.66699 -1.33301 -5.66699 -2 -9 -2h-103c-4 0 -7.33301 0.666992 -10 2c-2 0.666992 -4.33301 2.33398 -7 5.00098h-1c-3.33301 4.66699 -5 11 -5 19h37l-1 1v118h-36v31h-23h-468c-20.667 0 -36.667 6.66699 -48 20
l-6 9h37c-6.66699 12 -10 25.667 -10 41h-37v3v58h63v29c0 11.333 0.5 21.5 1.5 30.5s3.16699 17.167 6.5 24.5c4.66699 14 15 28 31 42l31 27h-63l12 11l10 9h37l111 98h-37l68 60h37l103 92h-37l23 20h37l59 53c1.33301 1.33301 3 2.5 5 3.5s3.66699 2.16699 5 3.5h-37
c12.667 10 24.667 17 36 21c14.667 5.33301 33 8 55 8h27c29.333 0 51 -8.33301 65 -25c0.666992 -0.666992 1.16699 -1.33398 1.5 -2.00098s0.833008 -1.33398 1.5 -2.00098h32c8.66699 -13.333 14.667 -33.333 18 -60h-1c0.666992 -3.33301 1 -6.66602 1 -9.99902
s0.333008 -6.66602 1 -9.99902v-13v-79v-60v-98v-20v-137h63h19c10.667 0 17.667 -5.33301 21 -16c0.666992 -2.66699 1 -6.66699 1 -12v-49v-41h-22v-3c0 -17.333 -7.33301 -26 -22 -26h-60h-23v-31h23v-118v-1c0 -8.66699 -2 -15 -6 -19zM600 459h-62v20h36v98h-36v60h36
v28c0 8.66699 -2.66699 13 -8 13h-6c-6.66699 0 -14 -3 -22 -9l-1 -1c0 6.66699 -2.33301 10 -7 10h-7c-6.66699 0 -14 -3 -22 -9l-35 -32l-78 -60h12l-108 -98l-22 -20l-116 -105c-4 -4 -6 -9.66699 -6 -17v-7c0 -5.33301 2.66699 -8 8 -8h63h319h62v137z" />
    <glyph glyph-name="five" unicode="5" horiz-adv-x="967" 
d="M685 51c-29.333 -34.667 -73.3379 -52.0049 -132.005 -52.0049h-514c-15.333 0 -23 9 -23 27v25h37v62h-37v6c0 18 7.66699 27 23 27h495h36c15.333 0 26.666 3.33301 33.999 10c2 1.33301 4.33301 4 7 8c8 12 12 28.667 12 50v4v69c0 44.667 -17.333 67 -52 67h-50h-413
c-34 0 -58 7.66699 -72 23h1c0 0.666992 -0.333008 1 -1 1c-4.66699 4.66699 -8.66699 11.334 -12 20.001c-6 14.667 -9 34 -9 58v44v62v95v21v58v4c0 26 5 47 15 63h-1c1.33301 1.33301 2.5 3 3.5 5s2.16699 3.66699 3.5 5c14 16.667 38 25 72 25h519
c14.667 0 22 -9 22 -27v-8h41v-63h-41v-23c0 -17.333 -7.66699 -26 -23 -26h-443h-60c-9.33301 0 -15.666 -4.33301 -18.999 -13h403c-1.33301 -5.33301 -2 -9.66602 -2 -12.999v-8h-383v-95h428v-45c0 -4.66699 0.333008 -8 1 -10c0 -0.666992 -9.5 -1.16699 -28.5 -1.5
s-42.667 -0.666016 -71 -0.999023s-59.166 -0.666016 -92.499 -0.999023s-64.166 -0.666016 -92.499 -0.999023s-52 -0.833008 -71 -1.5l-28.5 -1h-16c4 -5.33301 10.333 -8 19 -8h13h413c58 0 101.667 -18 131 -54c14.667 -18 25.334 -38.333 32.001 -61h-41
c4 -13.333 7.16699 -27.333 9.5 -42s3.5 -30.667 3.5 -48v-69h40v-23v-20c-0.666992 -3.33301 -1 -6.5 -1 -9.5s-0.333008 -6.16699 -1 -9.5h-41c-2 -16 -5 -30.333 -9 -43h41c-3.33301 -11.333 -7.66602 -21.833 -12.999 -31.5s-11.666 -19.167 -18.999 -28.5l-2 -2h-41v0z
" />
    <glyph glyph-name="six" unicode="6" horiz-adv-x="966" 
d="M685 42c-2 -2.66699 -5.66797 -6.00391 -11.001 -10.0039c-28 -22 -68 -33 -120 -33h-255c-49.333 0 -92.666 5.66699 -129.999 17c-6.66699 2 -13 4.33301 -19 7s-11.667 5.66699 -17 9h-37c-4 2 -7.83301 4.16699 -11.5 6.5s-7.16699 4.83301 -10.5 7.5
c-2.66699 1.33301 -4.66699 2.66602 -6 3.99902s-2.66602 2.33301 -3.99902 3s-2.66602 1.66699 -3.99902 3l-7.5 7.5c-2.33301 2.33301 -4.5 4.83301 -6.5 7.5c-2.66699 2.66699 -5 5.16699 -7 7.5s-4 4.83301 -6 7.5l-6 9h37c-11.333 19.333 -20.333 40.666 -27 63.999
h-37c-0.666992 1.33301 -1.33398 2.83301 -2.00098 4.5s-1.33398 3.5 -2.00098 5.5c0 2 -0.666992 5.66699 -2 11h37c-3.33301 14 -6 29.167 -8 45.5s-3.33301 33.5 -4 51.5h-37c-0.666992 6 -1 12.167 -1 18.5v20.5v24h37v104h-37v21h37v57c0 19.333 0.5 37.833 1.5 55.5
s2.83301 34.167 5.5 49.5h-37l4 21l4 20l4 11.5l4 10.5h37c2.66699 8.66699 5.66699 16.5 9 23.5s7 13.833 11 20.5h-37c1.33301 2.66699 2.83301 5.33398 4.5 8.00098l4.5 7c4 6 8.33301 11.333 13 16c2.66699 3.33301 5.5 6.33301 8.5 9s6.16699 5.66699 9.5 9
c3.33301 2.66699 6.66602 5.16699 9.99902 7.5s6.66602 4.83301 9.99902 7.5h37c7.33301 4.66699 14.833 8.83398 22.5 12.501s16.167 6.83398 25.5 9.50098c36 12 79.333 18 130 18h333c14.667 0 22 -9 22 -27v-13v-64v-17c0 -17.333 -7.33301 -26 -22 -26h-333h-37
c-7.33301 0 -12.666 -0.333008 -15.999 -1h-19c-9.33301 0 -18 -0.666992 -26 -2s-15.333 -3 -22 -5c-17.333 -4.66699 -31 -13.667 -41 -27c-6 -8 -11 -17.667 -15 -29h18c-1.33301 -3.33301 -2.33301 -6.66602 -3 -9.99902s-1.66699 -7 -3 -11
c-4 -21.333 -6 -47.666 -6 -78.999v-35v-27v-21v-84v-51c0 -30.667 2 -57 6 -79c4 -20 11 -36.667 21 -50h1h-6c8.66699 -9.33301 19.667 -16.333 33 -21c5.33301 -2.66699 9.66602 -4.33398 12.999 -5.00098c18 -5.33301 39.667 -8 65 -8h37h231h37
c18.667 0 32.334 4.33301 41.001 13h-125c1.33301 0.666992 3 2 5 4c3.33301 6 6 11.667 8 17h125c3.33301 11.333 5 24 5 38v59h-227v12v17c-0.666992 2 -1 3.83301 -1 5.5s-0.333008 3.5 -1 5.5v2c-2 8.66699 -5 15.667 -9 21h227c-0.666992 0.666992 -1 1.16699 -1 1.5
s-0.333008 0.833008 -1 1.5c-8 11.333 -23 17 -45 17h-37h-220c-6.66699 0 -12.334 2.33301 -17.001 7s-7 10.334 -7 17.001v60h-113v21h113v2c0 7.33301 2.33301 13.333 7 18s10.334 7 17.001 7h250c32 0 59.333 -4.66699 82 -14c10 -4 18.333 -8.33301 25 -13
c8 -5.33301 16.333 -12.333 25 -21c0.666992 -1.33301 2.33398 -3.33301 5.00098 -6c14 -17.333 24 -38.333 30 -63c1.33301 -5.33301 2.33301 -11 3 -17s1.66699 -12 3 -18c0.666992 -3.33301 1.16699 -7 1.5 -11s0.5 -8.33301 0.5 -13v-1c0.666992 -4 1 -8.16699 1 -12.5
v-13.5v-12v-75v-11.5c0 -3.66699 -0.333008 -7.16699 -1 -10.5c0 -3.33301 -0.333008 -6.83301 -1 -10.5l-2 -10.5h1c-2 -23.333 -7 -44.666 -15 -63.999c-1.33301 -3.33301 -2.83301 -6.66602 -4.5 -9.99902s-3.5 -6.66602 -5.5 -9.99902
c0 -0.666992 -0.166992 -1.33398 -0.5 -2.00098s-0.5 -1.33398 -0.5 -2.00098c-2 -3.33301 -4 -6.5 -6 -9.5s-4.33301 -5.83301 -7 -8.5c-4 -5.33301 -7.33301 -9 -10 -11z" />
    <glyph glyph-name="seven" unicode="7" horiz-adv-x="927" 
d="M248 22c-7.33301 -9.33301 -13.668 -15.333 -19.001 -18c-6.66699 -3.33301 -15 -5 -25 -5h-121c-8 0 -13 4 -15 12c-2 7.33301 -0.666992 14.333 4 21l20 25h-18l17 23h45l81 101h-45l53 67h17l79 108h-84l18 22h101l135 170h-102l53 67h99l34 41
c0.666992 1.33301 1 2.16602 1 2.49902s0.333008 1.16602 1 2.49902h-25c0.666992 1.33301 1.33398 2.33301 2.00098 3s1.33398 1.66699 2.00098 3c1.33301 2.66699 2 6 2 10v6c0 5.33301 -3 8 -9 8h-62h-1l-464 -1c-14.667 0.666992 -22 9.66699 -22 27l-3 76h15l-1 18
c0 18 9.33301 27 28 27h611c20.667 0 36.667 -7 48 -21c4.66699 -7.33301 8.66699 -15.333 12 -24h-16c1.33301 -4.66699 2.33301 -9.16699 3 -13.5s1 -9.16602 1 -14.499v-38h-47v-45v-11c0 -3.33301 -0.333008 -6.66602 -1 -9.99902h63
c-0.666992 -15.333 -3.33398 -28.333 -8.00098 -39c-0.666992 -2 -1.66699 -4.33301 -3 -7h-62c-3.33301 -6.66699 -7.5 -13.667 -12.5 -21s-11.167 -15 -18.5 -23l-20 -23h68l-132 -170h-63l-19 -22h65l-92 -117h-62l-40 -58h57l-79 -101h-62l-18 -23h63l-27 -35v0z" />
    <glyph glyph-name="eight" unicode="8" horiz-adv-x="1000" 
d="M714 44c-6 -6 -12.6631 -11.6729 -19.9961 -17.0059s-15.666 -9.66602 -24.999 -12.999c-23.333 -10 -51 -15 -83 -15h-399c-33.333 0 -61 5 -83 15c-16.667 6.66699 -31.667 16.667 -45 30h-37c-4.66699 4.66699 -8 8.33398 -10 11.001c-12 16 -20.667 33.333 -26 52h37
c-1.33301 2 -2.16602 4.16699 -2.49902 6.5s-0.833008 4.5 -1.5 6.5c-1.33301 5.33301 -2.33301 10.333 -3 15s-1.33398 9.66699 -2.00098 15h-37c-2.66699 15.333 -4 34.333 -4 57v5h57v64c0 38 6.33301 69.667 19 95h-98c2.66699 6.66699 6.66699 13.667 12 21h64
c10 14 22 26 36 36c-20 16 -35.667 37.667 -47 65h-23c-7.33301 20 -12 41 -14 63h37c-0.666992 4 -1 8.16699 -1 12.5v14.5v57v11h-37c0 3.33301 0.166992 6.83301 0.5 10.5s0.5 7.16699 0.5 10.5h37c2 20.667 5 39.334 9 56.001l3 6h-37
c7.33301 22 17.666 40.333 30.999 55c2 2.66699 4.33301 5 7 7h37c14 13.333 31.333 23.333 52 30c24.667 8 54.667 12 90 12h359c63.333 0 110 -14 140 -42h-28c3.33301 -3.33301 6 -5.66602 8 -6.99902c13.333 -15.333 23.333 -33.666 30 -54.999h28
c6 -18 10 -38.667 12 -62v-10.5c0 -3.66699 0.333008 -7.16699 1 -10.5v-11v-57v-14.5c0 -4.33301 -0.333008 -8.5 -1 -12.5c-2 -23.333 -7 -44.333 -15 -63h1c-10 -26 -25.667 -47.667 -47 -65c14 -10 26 -22 36 -36l6.5 -10.5
c2.33301 -3.66699 4.16602 -7.16699 5.49902 -10.5c12.667 -25.333 19 -57 19 -95v-64v-5c0 -19.333 -1.66699 -38.333 -5 -57h1c-0.666992 -5.33301 -1.33398 -10.333 -2.00098 -15s-1.66699 -9.66699 -3 -15c-0.666992 -2 -1.33398 -4.16699 -2.00098 -6.5
s-1.33398 -4.5 -2.00098 -6.5c-6 -19.333 -15 -36.666 -27 -51.999c-1.33301 -2 -3 -3.83301 -5 -5.5s-4 -3.5 -6 -5.5h2zM95.0039 555.994c0 -22 5.99805 -39 17.998 -51c4.66699 -4.66699 12 -8.66699 22 -12h27c12 -4 27.667 -6 47 -6h318h24c18.667 0 34 2 46 6h-23
c8.66699 2.66699 15.667 6.66699 21 12c11.333 12.667 17 29.667 17 51h57v3v55c0 14.667 -2 27 -6 37h-222c-1.33301 2 -2.16602 3.83301 -2.49902 5.5s-1.16602 3.5 -2.49902 5.5l-6 9c-0.666992 0 -1 0.333008 -1 1h209c-12 12.667 -31.333 19 -58 19h-42h-302h-38
c-27.333 0 -46.666 -6.66699 -57.999 -20l-6 -9c-1.33301 -2 -2.33301 -3.83301 -3 -5.5s-1.33398 -3.5 -2.00098 -5.5c-4 -10 -6 -22.333 -6 -37v-55c0 -0.666992 0.166992 -1.16699 0.5 -1.5s0.5 -0.833008 0.5 -1.5h-29zM576.002 145.994c12.667 0 23 1.33398 31 4.00098
h-37c10 2 19 6.33301 27 13c10 10 15.667 26.333 17 49h57c0 1.33301 0.166992 2.5 0.5 3.5s0.5 2.16699 0.5 3.5v64c0 24 -6.33301 43 -19 57c-12.667 12.667 -35.667 19 -69 19h-57h-261h-57c-33.333 0 -56.333 -6.33301 -69 -19c-12 -13.333 -18 -32.333 -18 -57v-64
c0 -24.667 5.66699 -43.334 17 -56.001c12.667 -11.333 32 -17 58 -17h36h306h37z" />
    <glyph glyph-name="nine" unicode="9" horiz-adv-x="966" 
d="M636 58l22.9932 0.00878906c5.33301 4 10 8.66699 14 14c16.667 18.667 29.334 40 38.001 64h-33l6 16.5c2 5.66699 3.66699 11.167 5 16.5c2.66699 8.66699 4.83398 17.667 6.50098 27s3.16699 19.333 4.5 30h33c1.33301 13.333 2.5 27.5 3.5 42.5s1.5 30.833 1.5 47.5
v64v19v123c0 15.333 -0.5 30.166 -1.5 44.499s-2.16699 28.166 -3.5 41.499c-1.33301 7.33301 -2.66602 14.166 -3.99902 20.499l-4 19.5h2c-1.33301 3.33301 -2.16602 6.66602 -2.49902 9.99902s-1.16602 6.66602 -2.49902 9.99902
c-1.33301 7.33301 -3.16602 14.166 -5.49902 20.499s-4.83301 12.5 -7.5 18.5c-10 22 -22.333 41.333 -37 58h3c-0.666992 0 -1 0.166992 -1 0.5s-0.333008 0.5 -1 0.5c-21.333 25.333 -50.333 43.666 -87 54.999c-36 11.333 -79 17 -129 17h-256c-66 0 -113 -18 -141 -54
c-2 -3.33301 -4.16699 -6.5 -6.5 -9.5s-4.16602 -6.16699 -5.49902 -9.5h-37c-5.33301 -8.66699 -9.66602 -17.834 -12.999 -27.501s-6.33301 -19.834 -9 -30.501h37c-2 -9.33301 -3.5 -18.833 -4.5 -28.5s-1.83301 -19.834 -2.5 -30.501h-37v-13v-27v-59h37v-1
c0 -32.667 3 -61.334 9 -86.001c6 -25.333 16 -46.333 30 -63h-37c3.33301 -3.33301 6.66602 -6.5 9.99902 -9.5s6.66602 -6.16699 9.99902 -9.5h16c9.33301 -7.33301 21 -14.333 35 -21c21.333 -8.66699 48.666 -13 81.999 -13h271c6.66699 0 12.334 2.16699 17.001 6.5
s7 10.166 7 17.499v10v19v54c0 6.66699 -2.33301 12.334 -7 17.001s-10.334 7 -17.001 7h-221h-37c-20.667 0 -35.667 5.66699 -45 17c-8.66699 12 -13 30 -13 54v60v11c0 3.33301 0.166992 6.16602 0.5 8.49902s0.5 4.83301 0.5 7.5c2 17.333 6.33301 30.333 13 39
c9.33301 11.333 24.333 17 45 17h37h232h37c13.333 0 25.333 -0.5 36 -1.5s20.334 -3.16699 29.001 -6.5c16 -4.66699 29.333 -13.334 40 -26.001c2.66699 -3.33301 4.66699 -6.33301 6 -9h-226c6.66699 -12 11.334 -25.333 14.001 -40h217v-1
c1.33301 -8.66699 2.5 -17.667 3.5 -27s1.5 -19.666 1.5 -30.999h11v-21v-51v-78h-88v-19v-34v-36c0 -4.66699 -0.166992 -9 -0.5 -13s-0.5 -8.33301 -0.5 -13h89c-1.33301 -20.667 -3.33301 -38.334 -6 -53.001c0 -1.33301 -0.166992 -2.16602 -0.5 -2.49902
s-0.5 -1.16602 -0.5 -2.49902h-37c-4 -19.333 -10.667 -34.333 -20 -45c-10 -13.333 -23.333 -22.333 -40 -27c-18 -5.33301 -39.667 -8 -65 -8h-33h-338c-8 0 -14 -3.33301 -18 -10h37c-2.66699 -5.33301 -4 -10.666 -4 -15.999v-3v-59h-37v-32c0 -18 7.33301 -27 22 -27
h348c50.667 0 93.667 6 129 18c28 8.66699 52.333 22.334 73 41.001zM635.993 58.0088l22.9932 0.00878906c5.33301 4 10 8.66699 14 14c16.667 18.667 29.334 40 38.001 64h-33l6 16.5c2 5.66699 3.66699 11.167 5 16.5c2.66699 8.66699 4.83398 17.667 6.50098 27
s3.16699 19.333 4.5 30h33c1.33301 13.333 2.5 27.5 3.5 42.5s1.5 30.833 1.5 47.5v64v19v123c0 15.333 -0.5 30.166 -1.5 44.499s-2.16699 28.166 -3.5 41.499c-1.33301 7.33301 -2.66602 14.166 -3.99902 20.499l-4 19.5h2
c-1.33301 3.33301 -2.16602 6.66602 -2.49902 9.99902s-1.16602 6.66602 -2.49902 9.99902c-1.33301 7.33301 -3.16602 14.166 -5.49902 20.499s-4.83301 12.5 -7.5 18.5c-10 22 -22.333 41.333 -37 58h3c-0.666992 0 -1 0.166992 -1 0.5s-0.333008 0.5 -1 0.5
c-21.333 25.333 -50.333 43.666 -87 54.999c-36 11.333 -79 17 -129 17h-256c-66 0 -113 -18 -141 -54c-2 -3.33301 -4.16699 -6.5 -6.5 -9.5s-4.16602 -6.16699 -5.49902 -9.5h-37c-5.33301 -8.66699 -9.66602 -17.834 -12.999 -27.501s-6.33301 -19.834 -9 -30.501h37
c-2 -9.33301 -3.5 -18.833 -4.5 -28.5s-1.83301 -19.834 -2.5 -30.501h-37v-13v-27v-59h37v-1c0 -32.667 3 -61.334 9 -86.001c6 -25.333 16 -46.333 30 -63h-37c3.33301 -3.33301 6.66602 -6.5 9.99902 -9.5s6.66602 -6.16699 9.99902 -9.5h16
c9.33301 -7.33301 21 -14.333 35 -21c21.333 -8.66699 48.666 -13 81.999 -13h271c6.66699 0 12.334 2.16699 17.001 6.5s7 10.166 7 17.499v10v19v54c0 6.66699 -2.33301 12.334 -7 17.001s-10.334 7 -17.001 7h-221h-37c-20.667 0 -35.667 5.66699 -45 17
c-8.66699 12 -13 30 -13 54v60v11c0 3.33301 0.166992 6.16602 0.5 8.49902s0.5 4.83301 0.5 7.5c2 17.333 6.33301 30.333 13 39c9.33301 11.333 24.333 17 45 17h37h232h37c13.333 0 25.333 -0.5 36 -1.5s20.334 -3.16699 29.001 -6.5
c16 -4.66699 29.333 -13.334 40 -26.001c2.66699 -3.33301 4.66699 -6.33301 6 -9h-226c6.66699 -12 11.334 -25.333 14.001 -40h217v-1c1.33301 -8.66699 2.5 -17.667 3.5 -27s1.5 -19.666 1.5 -30.999h11v-21v-51v-78h-88v-19v-34v-36c0 -4.66699 -0.166992 -9 -0.5 -13
s-0.5 -8.33301 -0.5 -13h89c-1.33301 -20.667 -3.33301 -38.334 -6 -53.001c0 -1.33301 -0.166992 -2.16602 -0.5 -2.49902s-0.5 -1.16602 -0.5 -2.49902h-37c-4 -19.333 -10.667 -34.333 -20 -45c-10 -13.333 -23.333 -22.333 -40 -27c-18 -5.33301 -39.667 -8 -65 -8h-33
h-338c-8 0 -14 -3.33301 -18 -10h37c-2.66699 -5.33301 -4 -10.666 -4 -15.999v-3v-59h-37v-32c0 -18 7.33301 -27 22 -27h348c50.667 0 93.667 6 129 18c28 8.66699 52.333 22.334 73 41.001z" />
    <glyph glyph-name="colon" unicode=":" horiz-adv-x="363" 
d="M137 479c-0.666992 0 -1.33398 -0.333984 -2.00098 -1.00098c-1.33301 0 -2.83301 -0.166992 -4.5 -0.5s-3.16699 -0.5 -4.5 -0.5h-65c-1.33301 0 -2.83301 0.166992 -4.5 0.5s-3.16699 0.5 -4.5 0.5l-2 1c-1.33301 0.666992 -2.33301 1 -3 1s-1.66699 0.333008 -3 1
l-1 1c-1.33301 0.666992 -2.33301 1.33398 -3 2.00098s-1.66699 1.33398 -3 2.00098c-0.666992 0 -1 0.333008 -1 1l-6 6h20c-2 2.66699 -4.33301 7.33398 -7 14.001h-59c0 1.33301 -0.166992 2.83301 -0.5 4.5s-0.5 3.16699 -0.5 4.5v33h59v32c0 2.66699 0.666992 6 2 10
h-21c2 5.33301 5 10.666 9 15.999l1 1l3 3l2 2c0.666992 0 1.66699 0.666992 3 2c0.666992 0 1.16699 0.166992 1.5 0.5s0.833008 0.5 1.5 0.5c0.666992 0.666992 1.16699 1 1.5 1s0.833008 0.333008 1.5 1c0.666992 0 1.33398 0.166992 2.00098 0.5
s1.33398 0.5 2.00098 0.5c1.33301 0 2.33301 0.333008 3 1h7h65h7c0.666992 -0.666992 1.66699 -1 3 -1c0.666992 0 1.33398 -0.166992 2.00098 -0.5s1.33398 -0.5 2.00098 -0.5c0.666992 -0.666992 1.16699 -1 1.5 -1s0.833008 -0.333008 1.5 -1
c0.666992 0 1.16699 -0.166992 1.5 -0.5s0.833008 -0.5 1.5 -0.5c1.33301 -1.33301 2.33301 -2 3 -2l2 -2c1.33301 -0.666992 2.66602 -1.66699 3.99902 -3c0 -0.666992 0.333008 -1 1 -1c1.33301 -2.66699 2.66602 -5.16699 3.99902 -7.5
s2.66602 -5.16602 3.99902 -8.49902c0.666992 -2 1 -5.33301 1 -10v-32v-33c0 -4 -0.333008 -7 -1 -9c-0.666992 -4 -3 -8.66699 -7 -14l-6 -6v-1c-1.33301 -0.666992 -2.33301 -1.33398 -3 -2.00098s-1.66699 -1.33398 -3 -2.00098c-0.666992 0 -1 -0.166992 -1 -0.5
s-0.333008 -0.5 -1 -0.5c-1.33301 -0.666992 -2.33301 -1 -3 -1s-1.66699 -0.333008 -3 -1zM84 330.999c0.666992 0.666992 1.33594 1 2.00293 1c2 0.666992 5 1 9 1h65c4 0 7 -0.333008 9 -1l2 -1c1.33301 0 3.33301 -0.666992 6 -2c0.666992 0 1 -0.166992 1 -0.5
s0.333008 -0.5 1 -0.5c2.66699 -1.33301 4.66699 -2.66602 6 -3.99902c2.66699 -2.66699 4.66699 -5 6 -7h-20l4 -6c1.33301 -2 2.33301 -4.66699 3 -8h57c0.666992 -2 1 -5 1 -9v-33h-57v-32c0 -4 -0.333008 -7.33301 -1 -10h20c-2.66699 -6 -5.33398 -11 -8.00098 -15
c-0.666992 -0.666992 -1 -1.33398 -1 -2.00098c-1.33301 -1.33301 -2.33301 -2 -3 -2c-1.33301 -1.33301 -2.33301 -2 -3 -2c-1.33301 -1.33301 -2.33301 -2 -3 -2c-1.33301 -1.33301 -2.33301 -2 -3 -2c-0.666992 -0.666992 -1.66699 -1 -3 -1
c-0.666992 -0.666992 -1.33398 -1 -2.00098 -1s-1.33398 -0.333008 -2.00098 -1h-3c-1.33301 -0.666992 -3.66602 -1 -6.99902 -1h-65c-3.33301 0 -5.66602 0.333008 -6.99902 1h-3c-0.666992 0.666992 -1.33398 1 -2.00098 1s-1.33398 0.333008 -2.00098 1
c-1.33301 0 -2.33301 0.333008 -3 1c-0.666992 0 -1.66699 0.666992 -3 2c-0.666992 0 -1.66699 0.666992 -3 2c-1.33301 0 -2 0.666992 -2 2c-0.666992 0 -1.66699 0.666992 -3 2c-0.666992 0.666992 -1 1.33398 -1 2.00098c-3.33301 3.33301 -6.33301 8.33301 -9 15
c0 2 -0.166992 3.83301 -0.5 5.5s-0.5 3.16699 -0.5 4.5v32v33c0 2 0.666992 5 2 9h-1c2 5.33301 4.33301 10 7 14c1.33301 2 3.33301 4.33301 6 7h1c1.33301 1.33301 3.33301 2.66602 6 3.99902l1 1c2.66699 1.33301 4.66699 2 6 2z" />
    <glyph glyph-name="semicolon" unicode=";" horiz-adv-x="353" 
d="M-19 337c4 1.33301 7.33203 1.99805 9.99902 1.99805h118c1.33301 0 4.66602 -0.666992 9.99902 -2h2c1.33301 -0.666992 2.5 -1.16699 3.5 -1.5s2.16699 -1.16602 3.5 -2.49902h1c6.66699 -4.66699 11.334 -9.66699 14.001 -15h-27c2.66699 -5.33301 4 -10 4 -14h27
c0.666992 -0.666992 1 -2 1 -4v-65c0 -5.33301 -1 -10 -3 -14l-6 -24h-30l-11 -42h30l-8 -29h-14l-2 -8c-2 -7.33301 -6.66699 -12.666 -14 -15.999c-11.333 3.33301 -17 10.666 -17 21.999v72h-29c-4.66699 0 -8 0.333008 -10 1h24c-8.66699 2 -15.667 6.5 -21 13.5
s-8 15.167 -8 24.5v69h-77c1.33301 6.66699 3 11.334 5 14.001c2.66699 5.33301 7.33398 10.333 14.001 15l8 4h2zM124.999 478.998c-0.666992 0 -0.998047 -0.166992 -0.998047 -0.5s-0.333008 -0.5 -1 -0.5c-1.33301 0 -2.83301 -0.166992 -4.5 -0.5
s-3.16699 -0.5 -4.5 -0.5h-65c-1.33301 0 -2.66602 0.166992 -3.99902 0.5s-2.66602 0.5 -3.99902 0.5c-0.666992 0 -1.33398 0.333008 -2.00098 1c-1.33301 0.666992 -2.5 1 -3.5 1s-1.83301 0.333008 -2.5 1c-0.666992 0 -1.33398 0.333008 -2.00098 1l-6 4l-1 1l-6 6h20
c-2.66699 4 -4.66699 8.66699 -6 14h-70c-1.33301 4 -2 7 -2 9v33h70v32c0 2.66699 0.666992 6 2 10h-20c0.666992 5.33301 3.33398 10.666 8.00098 15.999l1 1l3 3l2 2c0.666992 0 1.66699 0.666992 3 2c0.666992 0 1.16699 0.166992 1.5 0.5s0.833008 0.5 1.5 0.5l3 2
c1.33301 0 2.16602 0.166992 2.49902 0.5s1.16602 0.5 2.49902 0.5l2 1h80c0.666992 -0.666992 1.33398 -1 2.00098 -1c1.33301 0 2.16602 -0.166992 2.49902 -0.5s0.833008 -0.5 1.5 -0.5l3 -2c0.666992 0 1.16699 -0.166992 1.5 -0.5s1.16602 -0.5 2.49902 -0.5
c1.33301 -1.33301 2.33301 -2 3 -2c0 -1.33301 0.666992 -2 2 -2l3 -3c0 -0.666992 0.333008 -1 1 -1c4.66699 -5.33301 7.33398 -10.666 8.00098 -15.999c0.666992 -2 1 -5.33301 1 -10v-65c0 -4 -0.333008 -7 -1 -9c-0.666992 -4 -3 -8.66699 -7 -14
c-0.666992 -1.33301 -2.33398 -3.33301 -5.00098 -6l-1 -1l-6 -4c-0.666992 0 -1 -0.166992 -1 -0.5s-0.333008 -0.5 -1 -0.5z" />
    <glyph glyph-name="less" unicode="&#x3c;" horiz-adv-x="627" 
d="M365 571c2 -2 3.66797 -4.33203 5.00098 -6.99902s2 -6.66699 2 -12v-42h-47v-9c0 -9.33301 -2.33301 -15.833 -7 -19.5s-8.66699 -6.16699 -12 -7.5l-78 -26h48l-199 -68v-5l85 -29h-27l63 -20h27l129 -43c3.33301 -1.33301 7.16602 -3.83301 11.499 -7.5
s6.5 -10.167 6.5 -19.5v-51c0 -6 -1.16699 -10.667 -3.5 -14s-4.5 -5.66602 -6.5 -6.99902c-0.666992 -0.666992 -1.33398 -1 -2.00098 -1s-1.33398 -0.333008 -2.00098 -1l-334 113c-18 6.66699 -30.333 14 -37 22c-1.33301 1.33301 -2.16602 2.66602 -2.49902 3.99902
s-1.16602 3 -2.49902 5h-108c-1.33301 3.33301 -2.33301 6.66602 -3 9.99902l-2 10h121c0 1.33301 -0.166992 2.33301 -0.5 3s-0.5 1.66699 -0.5 3v51c0 14 3.66699 25.667 11 35c2.66699 4 6 7.33301 10 10h-33c5.33301 4 14 8.33301 26 13l144 49h41l177 61v0z" />
    <glyph glyph-name="equal" unicode="=" horiz-adv-x="567" 
d="M52 622c4 9.33301 11.333 14.001 22 14.001h282c11.333 0 18.666 -4.66699 21.999 -14h-55c1.33301 -4 2 -8.33301 2 -13v-8h56v-50c0 -2.66699 -0.166992 -4.83398 -0.5 -6.50098s-0.833008 -3.5 -1.5 -5.5h-45c-3.33301 -10 -10.666 -15 -21.999 -15h-329
c-11.333 0 -19 5 -23 15h94c-0.666992 2 -1.16699 3.83301 -1.5 5.5s-0.5 3.83398 -0.5 6.50098v50h-132v8c0 5.33301 1 9.66602 3 12.999h129zM52 388.001c4 9.33301 11.333 13.999 22 13.999h246c11.333 0 18.666 -4.66699 21.999 -14h-19
c1.33301 -5.33301 2 -9.66602 2 -12.999v-8h56v-51c0 -3.33301 -0.666992 -7 -2 -11h-45c-3.33301 -10 -10.666 -15 -21.999 -15h-263c-11.333 0 -19 5 -23 15h28c-1.33301 4 -2 7.66699 -2 11v51h-28v8c0 4.66699 1 9 3 13h25z" />
    <glyph glyph-name="greater" unicode="&#x3e;" horiz-adv-x="626" 
d="M-4 186c-5.33301 5.33301 -8 11.666 -8 18.999v42h48v9c0 9.33301 2.16699 15.833 6.5 19.5s8.16602 6.16699 11.499 7.5l78 26h-48l200 68l-1 6l-85 28h27l-63 21h-27l-128 42c-3.33301 1.33301 -7.33301 3.83301 -12 7.5s-7 10.5 -7 20.5v50c0 6 1.16699 10.667 3.5 14
s4.83301 5.66602 7.5 6.99902c1.33301 1.33301 2.33301 2 3 2l334 -112c18 -6 30.333 -13.333 37 -22c2.66699 -4 4.33398 -7 5.00098 -9h21c3.33301 -6.66699 5 -13.667 5 -21h-34c0.666992 -1.33301 1 -3.33301 1 -6v-51c0 -14 -3.66699 -25.667 -11 -35
c-2 -3.33301 -5.33301 -6.66602 -10 -9.99902h34c-3.33301 -2 -7.33301 -4.16699 -12 -6.5s-9.66699 -4.16602 -15 -5.49902l-144 -50h-40l-177 -61v0z" />
    <glyph glyph-name="question" unicode="?" horiz-adv-x="713" 
d="M226 225c-4.66699 -2.66699 -11.6631 -4.00586 -20.9961 -4.00586h-8c-8 0 -14.333 1.33301 -19 4h-30c-1.33301 0.666992 -3.33301 2.33398 -6 5.00098c-5.33301 5.33301 -8 13.333 -8 24v64v2h29c0 8.66699 0.666992 16.834 2 24.501s3 15.167 5 22.5
c1.33301 2.66699 2.5 5.16699 3.5 7.5s2.5 4.83301 4.5 7.5h-30c6.66699 10.667 16 19.334 28 26.001l145 83c5.33301 4 10 8.66699 14 14h29c5.33301 7.33301 8 17 8 29v130h-30v27c0 14 -2.66699 22.667 -8 26s-11.666 5 -18.999 5h-7h-299
c-4.66699 0 -9.66699 1.33301 -15 4h31c-9.33301 5.33301 -14 14 -14 26v17h-30v61v2h30c0 18.667 9.33301 28 28 28h320c38 0 67.333 -9.33301 88 -28h-7c3.33301 -3.33301 5.66602 -6 6.99902 -8c11.333 -13.333 19.666 -31.666 24.999 -54.999h7
c1.33301 -6.66699 2.5 -13.5 3.5 -20.5s1.5 -14.5 1.5 -22.5h-7v-3v-59h8v-114c0 -8.66699 -0.333008 -16.667 -1 -24s-1.66699 -14.333 -3 -21h-7c0 -3.33301 -0.333008 -5.33301 -1 -6c-0.666992 -6 -2 -11 -4 -15c-1.33301 -4.66699 -2.83301 -9.16699 -4.5 -13.5
s-3.83398 -8.5 -6.50098 -12.5c-8.66699 -12 -18.334 -22.333 -29.001 -31c-12.667 -9.33301 -27.334 -18 -44.001 -26l-39 -19h20l-105 -56c-4 -2 -7 -4 -9 -6h-7l-5 -5c-1.33301 -3.33301 -2.33301 -9.66602 -3 -18.999s-1.33398 -16 -2.00098 -20l-3 -23
c-0.666992 -11.333 -3.33398 -19.666 -8.00098 -24.999c-1.33301 -0.666992 -2.16602 -1.16699 -2.49902 -1.5s-1.16602 -0.833008 -2.49902 -1.5h7zM268.004 0.994141c-0.666992 -0.666992 -1.33594 -1.00098 -2.00293 -1.00098c-2 -0.666992 -5 -1 -9 -1h-65
c-4 0 -6.66699 0.333008 -8 1c-1.33301 0 -2.33301 0.333008 -3 1c-1.33301 0 -3.33301 0.666992 -6 2l-1 1c-2.66699 1.33301 -4.66699 2.66602 -6 3.99902h-1l-6 6h20c-2.66699 4.66699 -5 9.33398 -7 14.001h-20c0 2 -0.166992 3.83301 -0.5 5.5s-0.5 3.16699 -0.5 4.5
v32h20v33c0 2 0.666992 5 2 9h-21c2 6.66699 5 12 9 16c0 0.666992 0.333008 1 1 1c0.666992 1.33301 1.16699 2 1.5 2s0.833008 0.333008 1.5 1c0 1.33301 0.666992 2 2 2c1.33301 1.33301 2.33301 2 3 2c0.666992 0.666992 1.16699 1 1.5 1s0.833008 0.333008 1.5 1
c0.666992 0 1.16699 0.166992 1.5 0.5s0.833008 0.5 1.5 0.5c0.666992 0.666992 1.33398 1 2.00098 1s1.33398 0.333008 2.00098 1h3c1.33301 0.666992 3.66602 1 6.99902 1h65c3.33301 0 5.66602 -0.333008 6.99902 -1h3c0.666992 -0.666992 1.33398 -1 2.00098 -1
s1.33398 -0.333008 2.00098 -1c0.666992 0 1.16699 -0.166992 1.5 -0.5s0.833008 -0.5 1.5 -0.5c0.666992 -0.666992 1.16699 -1 1.5 -1s0.833008 -0.333008 1.5 -1c0.666992 0 1.66699 -0.666992 3 -2c0.666992 0 1.66699 -0.666992 3 -2
c0.666992 -0.666992 1.16699 -1 1.5 -1s0.833008 -0.666992 1.5 -2l1 -1c2 -2 3.5 -4.33301 4.5 -7l3.5 -9c0.666992 -2 1 -5 1 -9v-33v-32c0 -4 -0.333008 -7.33301 -1 -10s-1.66699 -5 -3 -7s-2.66602 -4.33301 -3.99902 -7l-6 -6
c-1.33301 -1.33301 -3.33301 -2.66602 -6 -3.99902c-0.666992 0 -1 -0.166992 -1 -0.5s-0.333008 -0.5 -1 -0.5c-2.66699 -1.33301 -4.66699 -2 -6 -2z" />
    <glyph glyph-name="at" unicode="@" horiz-adv-x="875" 
d="M553 24c0 -16.667 -7.66699 -25.0039 -23 -25.0039h-316c-98 0 -165 36.333 -201 109h-34c-9.33301 16.667 -16.666 37.334 -21.999 62.001h19l-4 21.5c-1.33301 7 -2.33301 14.167 -3 21.5h-18c-2 16 -3 33 -3 51v12h20v159h-20v21h31v101h-31v62h51v33
c0 11.333 0.5 22.333 1.5 33s2.16699 20.667 3.5 30h-51c1.33301 3.33301 2.16602 6.66602 2.49902 9.99902s1.16602 6.66602 2.49902 9.99902h80c6.66699 24.667 17.334 45.667 32.001 63h-80c28 31.333 69.333 47 124 47h221c58.667 0 103 -15.667 133 -47h96
c16 -17.333 28 -38.333 36 -63h-49c1.33301 -3.33301 2.33301 -6.66602 3 -9.99902s1.66699 -6.66602 3 -9.99902h48c2.66699 -11.333 4.66699 -22.833 6 -34.5s2 -24.167 2 -37.5v-24h-29v-62h29v-101h-15v-21h15v-11c0 -63.333 -11.667 -109.333 -35 -138
c-2 -2.66699 -5 -6 -9 -10h-18c-23.333 -22.667 -56.666 -34 -99.999 -34h-170c-44 0 -77.333 11.333 -100 34h20c-25.333 24 -38 61.333 -38 112v47h-19v21h30v36c0 25.333 3 47 9 65h-31c9.33301 28.667 25.333 49.334 48 62.001h51c22 12.667 48 19 78 19h172h51v2
c0 36.667 -9.66699 61.667 -29 75h-51c-12 8 -28 12 -48 12h-49h-241h-48c-6.66699 0 -13.667 -0.666992 -21 -2s-14 -4.66602 -20 -9.99902h48c-6.66699 -6 -12.167 -14.667 -16.5 -26s-6.5 -27 -6.5 -47v-23h-29v-62h29v-101h-15v-21h15v-159h-19v-12
c0 -17.333 1.66699 -34.333 5 -51h18c3.33301 -15.333 9 -29.666 17 -42.999h-14c18 -27.333 47 -41 87 -41h15h337c13.333 0 20.666 -7 21.999 -21h15v-3v-81zM532 528.996l-31 0.00195312h-169h-31c-5.33301 0 -10.666 -0.5 -15.999 -1.5s-10.166 -3.5 -14.499 -7.5
s-8 -9.83301 -11 -17.5s-4.5 -17.834 -4.5 -30.501v-16h-15v-21h15v-37c0 -12.667 1.5 -22.834 4.5 -30.501s6.66699 -13.5 11 -17.5s9.16602 -6.5 14.499 -7.5s10.666 -1.5 15.999 -1.5h20h120h19c20.667 0 36 5.66699 46 17c10 12 15 32.333 15 61v16h-20v21h31v73z" />
    <glyph glyph-name="A" unicode="A" 
d="M745 14c-0.666992 -2.66699 -2.50293 -5.83105 -5.50293 -9.49805s-8.16699 -5.5 -15.5 -5.5h-74c-12 0 -20.667 6 -26 18h45c0 0.666992 -0.166992 1.16699 -0.5 1.5s-0.5 1.16602 -0.5 2.49902l-7 16h-46l-25 63h26l-54 133h-25l-89 222h46l-8 21h-47l-40 101h21
l-25 63h-6v-1l-8 -18l-7 19c-0.666992 0.666992 -1 1.33398 -1 2.00098h-1h-4v-1c0 -0.666992 -0.166992 -1 -0.5 -1s-0.5 -0.333008 -0.5 -1l-25 -62h-27l-40 -101h27l-8 -21l-55 -140h123c1.33301 0 2.83301 -0.166992 4.5 -0.5s3.16699 -0.5 4.5 -0.5
c2.66699 -0.666992 5.33398 -2 8.00098 -4h1c6 -4.66699 9.66699 -9.33398 11 -14.001h-53v-1l25 -62h53l11 -27c4.66699 -10.667 3.66699 -20.334 -3 -29.001c-6 -9.33301 -14.667 -14 -26 -14h-194h-26l-25 -63h-32l-24 -63h32l-7 -17
c-0.666992 -0.666992 -1 -1.16699 -1 -1.5s-0.333008 -0.833008 -1 -1.5h-34c-6.66699 -12 -15.667 -18 -27 -18h-75c-8 0 -13.5 1.66699 -16.5 5s-5.16699 6.66602 -6.5 9.99902v3h45c-0.666992 5.33301 0.333008 12 3 20h-45v1l25 62h25l54 133h-26l25 63l64 159h47l8 21
h-46l41 101h21l25 63h-21l36 91c2 4.66699 4 9 6 13s3.66699 8 5 12h30c10.667 22 21.667 38 33 48c2 1.33301 4.16699 3 6.5 5s5.16602 3.66699 8.49902 5c1.33301 0.666992 2.33301 1.33398 3 2.00098s1.66699 1.33398 3 2.00098h-29c4.66699 2.66699 9.33398 5 14.001 7
h1c4.66699 2.66699 9.33398 4.33398 14.001 5.00098c1.33301 0.666992 3 1 5 1c2 0.666992 5.66699 1.66699 11 3c3.33301 0.666992 6.33301 1 9 1h8h9.5c3 0 5.83301 -0.333008 8.5 -1c4 -1.33301 7 -2 9 -2c1.33301 -0.666992 2.66602 -1 3.99902 -1
s2.66602 -0.333008 3.99902 -1l6 -2c2 -0.666992 3.66699 -1.33398 5 -2.00098l4 -2c2 -1.33301 4.16699 -2.33301 6.5 -3s4.16602 -1.66699 5.49902 -3c25.333 -14.667 43 -35.334 53 -62.001h-95c0.666992 -2 1.33398 -3.83301 2.00098 -5.5
s1.33398 -3.16699 2.00098 -4.5c0.666992 -2 2.33398 -5.66699 5.00098 -11h43c0 -1.33301 0.666992 -2.66602 2 -3.99902l36 -91h53l25 -63h-27l41 -101h27l56 -138l17 -42h-53l25 -63h54l54 -133h-32l25 -62v-1h32c2.66699 -6.66699 3.33398 -13.334 2.00098 -20.001h-34
v-3v0z" />
    <glyph glyph-name="B" unicode="B" horiz-adv-x="907" 
d="M605 17c-0.666992 -0.666992 -1.33496 -1.16797 -2.00195 -1.50098s-1.33398 -0.833008 -2.00098 -1.5c-21.333 -10 -46.666 -15 -75.999 -15h-399c-10 0 -19.5 1.66699 -28.5 5s-17.167 7.66602 -24.5 12.999h-50c-5.33301 3.33301 -9.66602 7 -12.999 11
s-6.66602 8.66699 -9.99902 14c-6 8.66699 -10 19 -12 31v6h54v21h-54v95h114v62h-113v102h84v20h-73v160h24v62h-30v134h77v21l4 12.5c1.33301 4.33301 3.33301 8.5 6 12.5c4 6 8.33301 11.333 13 16h-56c8.66699 8.66699 19.667 15.667 33 21
c3.33301 1.33301 6.83301 2.33301 10.5 3l11.5 2l1 1h416c60.667 0 104.667 -17 132 -51c25.333 -33.333 38 -82.666 38 -147.999v-56c0 -63.333 -16.333 -111.666 -49 -144.999c18 -17.333 31.667 -39 41 -65h-17c8 -25.333 12 -53.333 12 -84v-18h18v-49
c0 -6 -0.333008 -10.333 -1 -13h-17c0 -13.333 -0.666992 -26 -2 -38s-3 -23.333 -5 -34c-1.33301 -4 -2.33301 -8 -3 -12s-1.66699 -7.66699 -3 -11h17l-9 -21h-43l-6 -11.5l-6 -10.5c-12.667 -18 -28 -31.333 -46 -40h44zM484.999 147.999
c19.333 0 33.001 4.33496 41.001 13.002c6 7.33301 9.66699 18.666 11 33.999h114c0 2 0.166992 4.16699 0.5 6.5s0.5 4.83301 0.5 7.5v48h-114v20c0 22.667 -4.33301 38.667 -13 48c-9.33301 10.667 -26.333 16 -51 16h-18h-248c-13.333 0 -23.333 6 -30 18h157
c-2.66699 5.33301 -4 10.333 -4 15v5h-73v77c0 9.33301 3.16699 17.166 9.5 23.499s14.166 9.5 23.499 9.5h183h11c26 0 43 4.66699 51 14c6.66699 8 10.667 20 12 36h23c0.666992 2 1 4.66699 1 8v54h-30v15c0 22 -4.33301 37.333 -13 46c-8 9.33301 -21.667 14 -41 14h-4
h-343h-4c-1.33301 0 -2 -2 -2 -6v-311h-17v-102h248v-62h-248v-42v-4c0 -0.666992 0.333008 -1 1 -1h17h349z" />
    <glyph glyph-name="C" unicode="C" horiz-adv-x="849" 
d="M528 17c-3.33301 -8 -7.5 -13.0029 -12.5 -15.0029s-9.16699 -3 -12.5 -3h-307c-43.333 0 -81 5.66699 -113 17l-1 1h42c-13.333 4.66699 -26.666 11.334 -39.999 20.001h-42c-14.667 10.667 -26.667 22 -36 34c-3.33301 4.66699 -6.5 9.33398 -9.5 14.001
s-5.83301 9.66699 -8.5 15h54c-11.333 21.333 -20 44.333 -26 69c-2 10 -3.83301 20.333 -5.5 31s-3.16699 21.667 -4.5 33h-29c-1.33301 20 -2.33301 41 -3 63h-25v17v142h46v21h-46v35c0 22.667 1 44.667 3 66h67l4 33c1.33301 10.667 2.66602 20.667 3.99902 30h-67
c0.666992 2 1 4.16699 1 6.5s0.333008 4.5 1 6.5c8 31.333 19 58.666 33 81.999h112c2 2.66699 3.83301 5.33398 5.5 8.00098s3.5 5.33398 5.5 8.00098c2 2 3.33301 3.66699 4 5h-38c20 23.333 44.333 40.333 73 51c14.667 4.66699 29 8.33398 43 11.001h-74
c22 4 45.333 6 70 6h260c2.66699 0 5.5 -0.333008 8.5 -1s6.16699 -2.33398 9.5 -5.00098h103c3.33301 -2.66699 6 -6.16699 8 -10.5s3 -10.5 3 -18.5v-54h-60v-23c0 -16 -3.66699 -26 -11 -30s-13 -6 -17 -6h-299h-60c-21.333 0 -38.666 -2.33301 -51.999 -7
c-12 -4 -22 -11.333 -30 -22c-0.666992 -1.33301 -1.33398 -2.5 -2.00098 -3.5s-1.33398 -2.16699 -2.00098 -3.5h204c-6 -10 -10 -22.333 -12 -37c-1.33301 -4 -2.16602 -8 -2.49902 -12s-0.833008 -8.66699 -1.5 -14h-193c-0.666992 -7.33301 -1.16699 -14.833 -1.5 -22.5
s-0.5 -16.167 -0.5 -25.5v-53h49v-39h114v-104h-114v-37c0 -30 2 -55 6 -75c2.66699 -18 8 -32.667 16 -44c8 -10.667 18 -18 30 -22c12 -4.66699 29.333 -7 52 -7h54h305c4 0 9.66699 -2 17 -6s11 -13.667 11 -29v-13h-39v-63h39v-3c0 -7.33301 -1 -13 -3 -17h-57v0z" />
    <glyph glyph-name="D" unicode="D" horiz-adv-x="908" 
d="M516 48c-16 -12.667 -32.9971 -22.3379 -50.9971 -29.0049c-34 -13.333 -74.333 -20 -121 -20h-269c-16 0 -30.667 3.83301 -44 11.5s-24 18.167 -32 31.5l-3 6h20l-4 10c-1.33301 3.33301 -2.33301 7 -3 11h-20c0 0.666992 -0.166992 1.16699 -0.5 1.5
s-0.5 1.16602 -0.5 2.49902v58h28v134h-28v62h39v159h-39v21h27v101h-26v63h38v85c0.666992 1.33301 1.16699 3 1.5 5s1.16602 3.66699 2.49902 5h-39c1.33301 2.66699 2.5 5.16699 3.5 7.5s2.16699 4.83301 3.5 7.5c0.666992 1.33301 1.33398 2.33301 2.00098 3
s1.33398 1.66699 2.00098 3h37c15.333 22 36.666 34 63.999 36l1 1h312c46 0 86.333 -6.66699 121 -20c12.667 -5.33301 24 -11 34 -17h-63c11.333 -7.33301 20.666 -14.333 27.999 -21h63c9.33301 -8 16.666 -15.667 21.999 -23c16 -20 29 -44 39 -72h-65
c1.33301 -5.33301 3 -10.833 5 -16.5s3.66699 -11.167 5 -16.5s2.33301 -10.333 3 -15s1.33398 -9.66699 2.00098 -15h65c3.33301 -15.333 5.5 -31.333 6.5 -48s1.83301 -34.334 2.5 -53.001h-22c0 -3.33301 0.166992 -6.16602 0.5 -8.49902s0.5 -5.16602 0.5 -8.49902v-4
h22v-153c0 -1.33301 -0.166992 -2.33301 -0.5 -3s-0.5 -1.66699 -0.5 -3h-16c-0.666992 -11.333 -1.16699 -22.166 -1.5 -32.499s-0.833008 -20.166 -1.5 -29.499h17c-1.33301 -14.667 -3 -28.667 -5 -42s-4.66699 -26 -8 -38c-2 -9.33301 -4.66699 -18.666 -8 -27.999
s-6.66602 -18 -9.99902 -26h-27c-4.66699 -9.33301 -9.33398 -18.166 -14.001 -26.499s-10 -16.166 -16 -23.499c-2.66699 -4.66699 -6.33398 -8.66699 -11.001 -12h28c-6.66699 -7.33301 -14.334 -14.333 -23.001 -21h-73zM441.003 147.996c12 0 23 0.499023 33 1.49902
s19 3.16699 27 6.5c14.667 6 27 15 37 27c9.33301 13.333 16.333 30.666 21 51.999l2 14.5l2 15.5h-28c0.666992 8 1.16699 16.333 1.5 25s0.5 18 0.5 28v9h39v159h-39v19v2h27c-0.666992 16 -1.5 30.833 -2.5 44.5s-2.5 26.167 -4.5 37.5
c-0.666992 3.33301 -1.33398 6.5 -2.00098 9.5s-1.66699 6.16699 -3 9.5h-27c-4 13.333 -9 24 -15 32c-9.33301 12 -21.666 21 -36.999 27c-2 0.666992 -4.16699 1.33398 -6.5 2.00098s-4.5 1.33398 -6.5 2.00098h38c-14.667 3.33301 -30 5 -46 5h-39h-238h-39
c-0.666992 0 -1 -0.333008 -1 -1v-4h-65v-1v-62h65v-101h-22v-21h173v-159h-168v-62h17v-112v-4c0 -0.666992 0.333008 -1 1 -1h27h278z" />
    <glyph glyph-name="E" unicode="E" horiz-adv-x="840" 
d="M-21 790c0 16 3.5 26.001 10.5 30.001s12.833 6 17.5 6h525c4 0 9.66699 -2 17 -6s11 -13.667 11 -29v-4h49v-20h-49v-55c0 -1.33301 -0.166992 -2.5 -0.5 -3.5s-0.5 -2.16699 -0.5 -3.5h50c-1.33301 -12 -5.33301 -19.667 -12 -23s-11.667 -5 -15 -5l-562 1
c-4 0 -9.33301 1.5 -16 4.5s-10.667 10.5 -12 22.5h-12c-0.666992 1.33301 -1 3.66602 -1 6.99902v55h62v20h-62v3zM646 57.001l-34.0049 -0.00292969v-23c0 -11.333 -2 -19.333 -6 -24s-8.33301 -7.66699 -13 -9h-330c-22 0 -42.5 1.33301 -61.5 4s-36.167 7 -51.5 13
c-12 4 -23.167 9.33301 -33.5 16s-20.166 14.334 -29.499 23.001h46l-7 7c-2 2 -4 4.33301 -6 7c-1.33301 1.33301 -2.16602 2.5 -2.49902 3.5s-0.833008 1.83301 -1.5 2.5h-46c-9.33301 12.667 -17.333 26.667 -24 42s-12 32.666 -16 51.999h51c-4 19.333 -7 40 -9 62h-99
l-2 28c-0.666992 9.33301 -1 19.333 -1 30l-1 5l1 37h78v20h-30l1 69c2 9.33301 5.33301 17.666 10 24.999c6.66699 11.333 15 20.333 25 27s21 11.334 33 14.001l496 1c4 0 9.66699 -2 17 -6s11 -13.667 11 -29v-79c0 -9.33301 -1.66699 -16.666 -5 -21.999h29
c-3.33301 -4.66699 -7 -7.66699 -11 -9s-7.66699 -2 -11 -2h-447v-9h-30c0 -5.33301 -0.166992 -11.333 -0.5 -18s-0.5 -13.667 -0.5 -21v-25c0.666992 -3.33301 1 -6.33301 1 -9s0.333008 -5.66699 1 -9c1.33301 -6 3 -12 5 -18h30c1.33301 -5.33301 3 -10 5 -14
s4 -7.66699 6 -11c8 -10 18.333 -17.333 31 -22c6.66699 -2 14.334 -3.66699 23.001 -5s18.334 -2 29.001 -2h25c4 -0.666992 8.16699 -1 12.5 -1h13.5h310c4.66699 -1.33301 8.33398 -3.66602 11.001 -6.99902h-38c3.33301 -2.66699 6 -6.16699 8 -10.5
s3 -10.166 3 -17.499v-66h35v-20zM103.995 480.998h1h-1z" />
    <glyph glyph-name="F" unicode="F" horiz-adv-x="840" 
d="M-42 788c0 16 3.5 26.001 10.5 30.001s12.833 6 17.5 6h525c4 0 9.66699 -1.83301 17 -5.5s11 -13.5 11 -29.5v-3h49v-21h-49v-55c0 -1.33301 -0.166992 -2.33301 -0.5 -3s-0.5 -1.66699 -0.5 -3h50c-1.33301 -12.667 -5.33301 -20.5 -12 -23.5s-11.667 -4.5 -15 -4.5
h-562c-4 0 -9.33301 1.5 -16 4.5s-10.667 10.833 -12 23.5h-12c-0.666992 1.33301 -1 3.66602 -1 6.99902v54h62v21h-62v2zM608 375.001c0 -15.333 -3.50098 -24.8311 -10.501 -28.498s-12.5 -5.5 -16.5 -5.5h-375h-73v-30c0 -9.33301 -0.166992 -20.166 -0.5 -32.499
s-0.5 -25.166 -0.5 -38.499h-42v-95h42v-21h-15v-62h15v-28c0 -15.333 -3.66699 -25 -11 -29s-13 -6 -17 -6h-39c-4 0 -9.66699 2 -17 6s-11 13.667 -11 29v28h-85l1 62h74v21h-43l1 95h102l1 62h-30v102h-72v16c0 1.33301 0.166992 2.16602 0.5 2.49902
s0.5 1.16602 0.5 2.49902h29c2 6.66699 5 13.667 9 21c7.33301 12 17 21.667 29 29s25.333 11.666 40 12.999l487 1c4.66699 -0.666992 10.334 -2.83398 17.001 -6.50098s10 -13.167 10 -28.5v-29h-26v-21h26v-29z" />
    <glyph glyph-name="G" unicode="G" horiz-adv-x="915" 
d="M598 43c-20 -29.333 -48.6689 -43.9873 -86.002 -43.9873h-288c-43.333 0 -81 5.66699 -113 17c-21.333 8 -40 19 -56 33h50c-8.66699 7.33301 -15.667 14.666 -21 21.999c-5.33301 6 -9.83301 12.333 -13.5 19s-7.16699 13.667 -10.5 21h-50l-9 21h62l-6 18
c-2 6 -3.66699 12.333 -5 19c-4 18 -7 37.333 -9 58h-62c-1.33301 10 -2.16602 20.167 -2.49902 30.5s-0.833008 21.166 -1.5 32.499h27c0 3.33301 -0.166992 7 -0.5 11s-0.5 8 -0.5 12v78h-26v120c0 10.667 0.166992 21 0.5 31s0.833008 19.667 1.5 29h15
c0.666992 11.333 1.66699 22.166 3 32.499s2.66602 20.166 3.99902 29.499h-14c0.666992 3.33301 1.16699 6.66602 1.5 9.99902s0.833008 6.66602 1.5 9.99902c5.33301 25.333 14 48.666 26 69.999h97c4.66699 9.33301 10.667 18.666 18 27.999
c10.667 13.333 23 24.666 37 33.999h-97c11.333 8.66699 24.666 16 39.999 22c32 11.333 69.667 17 113 17h365c4 0 9.5 -2 16.5 -6s10.5 -13.667 10.5 -29v-4h66v-62h-88v-12c0 -16 -3.66699 -25.833 -11 -29.5s-13 -5.5 -17 -5.5h-337h-88
c-10.667 0 -20.167 -0.666992 -28.5 -2s-16.166 -3 -23.499 -5c-12.667 -5.33301 -22.667 -12.666 -30 -21.999c-1.33301 -2 -2.5 -4.16699 -3.5 -6.5s-2.16699 -4.83301 -3.5 -7.5h289c-4 -8 -7 -18 -9 -30c-1.33301 -5.33301 -2.16602 -10.5 -2.49902 -15.5
s-0.833008 -10.5 -1.5 -16.5h-251c-0.666992 -6.66699 -1 -13.5 -1 -20.5v-22.5v-116h49v-116v-6h-69c0 -26.667 1.33301 -47.667 4 -63h70c0 -2.66699 0.333008 -4.66699 1 -6c2.66699 -18 8 -32.667 16 -44c8 -10.667 18 -18 30 -22c12 -4.66699 29.333 -7 52 -7h61h219
h61c12 0 20.333 3.66699 25 11c2 3.33301 4 8.66602 6 15.999s3 18.666 3 33.999c-0.666992 1.33301 -1 3 -1 5v13h-178c0 8 -0.166992 17.667 -0.5 29s-0.5 22.666 -0.5 33.999h144c0 7.33301 -0.166992 14.666 -0.5 21.999s-0.5 13.666 -0.5 18.999v18h-26h-223
c-4 0 -9.5 2 -16.5 6s-10.5 14 -10.5 30v6h21v21h-48v49c0 16 3.66699 26 11 30s13 6 17 6h305c6.66699 0 14.167 -2.66699 22.5 -8s12.5 -17.333 12.5 -36v-41h153v-122h-174v-63h70v-42c0 -19.333 -1 -37 -3 -53h-84l-3 -21h168c-2 -13.333 -4.66699 -25 -8 -35
s-7.33301 -19 -12 -27h-137c-1.33301 -1.33301 -2.66602 -3.33301 -3.99902 -6z" />
    <glyph glyph-name="H" unicode="H" horiz-adv-x="885" 
d="M690 34c0 -15.333 -3.66699 -25 -11 -29s-13.333 -6 -18 -6h-75c-4 0 -9.66699 2 -17 6s-11 13.667 -11 29v51h-94v105h110v62h-32v90h-18h-361h-42v-90h42v-105h-57v-62h57v-51c0 -15.333 -3.5 -25 -10.5 -29s-12.833 -6 -17.5 -6h-75c-4 0 -9.66699 2 -17 6
s-11 13.667 -11 29v51h-17v62v43h32v62h-32v160h220v20h-220v102h40v62h-105v116h121v62h-56v15c0 15.333 3.66699 25 11 29s13.333 6 18 6h64c4 0 9.66699 -2 17 -6s11 -13.667 11 -29v-15h27v-62h-55v-21h21v-95h34v-62h-42v-44h42h336h43v44h39v62h-39v116h55v62h-55v15
c0 15.333 3.5 25 10.5 29s12.833 6 17.5 6h64c4 0 9.66699 -2 17 -6s11 -13.667 11 -29v-15h28v-62h-55v-21h20v-95h35v-62h-43v-102h43v-20h-9v-160h9v-105h-58v-62h58v-51v0z" />
    <glyph glyph-name="I" unicode="I" horiz-adv-x="358" 
d="M159 34c0 -15.333 -3.66602 -25 -10.999 -29s-13 -6 -17 -6h-80c-4 0 -9.66699 2 -17 6s-11 13.667 -11 29v43h26v62h-92v43h83v62h-17v180h34v102h-34v62v95h45v21h-45v62h23v23c0 15.333 4.16699 25 12.5 29s15.166 6 20.499 6h64c4 0 9.66699 -2 17 -6
s11 -13.667 11 -29v-23h-29v-62h94v-21v-95h-103v-62h38v-123h-18v-159h18v-62h-18v-43h18v-62h-12v-43v0z" />
    <glyph glyph-name="J" unicode="J" horiz-adv-x="798" 
d="M499 68c-19.333 -23.333 -44.335 -40.668 -75.002 -52.001c-32 -11.333 -69.667 -17 -113 -17h-292c-4 0 -9.66699 2 -17 6s-11 13.667 -11 29v34h-21v45c0 8.66699 1.66699 15.667 5 21h31c3.33301 6 7.33301 9.83301 12 11.5s8.66699 2.5 12 2.5h277h31
c22 0 39 2.33301 51 7c13.333 4 23.333 11.333 30 22c1.33301 1.33301 2 2.33301 2 3h-194c6 10 10.667 23.667 14 41c1.33301 4 2 8.16699 2 12.5s0.333008 8.83301 1 13.5h185c0.666992 7.33301 1.16699 15 1.5 23s0.5 16.667 0.5 26v121h-284v22h283v108h-20v127h-46
c-14 0 -29.833 0.166992 -47.5 0.5s-35.5 0.5 -53.5 0.5c-43.333 0 -92.333 0.333008 -147 1c-4.66699 0 -10.667 1.83301 -18 5.5s-11 13.167 -11 28.5v28h71v51c0 4.66699 0.666992 9.66699 2 15h-18c2.66699 8.66699 6.83398 14.167 12.501 16.5s10.167 3.5 13.5 3.5h329
c12.667 0 22 -2 28 -6s10.333 -8.66699 13 -14h17c2 -5.33301 3 -10.333 3 -15v-73h-37v-102h-11v-67h48v-108v-22v-104c0 -24 -1 -46 -3 -66h-19c-2 -25.333 -5 -47.666 -9 -66.999h85c-0.666992 -1.33301 -1 -3 -1 -5s-0.333008 -3.66699 -1 -5
c-3.33301 -13.333 -6.66602 -25.333 -9.99902 -36h-89c-8 -24 -19 -45 -33 -63l-3 -3h24v0z" />
    <glyph glyph-name="K" unicode="K" horiz-adv-x="867" 
d="M642 20c-1.33301 -14 -9.00098 -21.002 -23.001 -21.002h-92c-9.33301 0 -16.333 2 -21 6c-4 4 -7.33301 8.66699 -10 14l-5 8h-17l-38 67h32l-12 22h-33l-58 102h18l-38 66h-17l-6 9c-11.333 20 -22.333 33 -33 39c-10.667 6.66699 -28.667 10 -54 10h-46h-55h-46v-58
h121v-66h-107v-102h240v-22h-242v-60c0 -1.33301 -0.166992 -2.5 -0.5 -3.5s-0.5 -2.16699 -0.5 -3.5h35c-1.33301 -12 -5.33301 -19.667 -12 -23s-12 -5 -16 -5h-74c-4 0 -9.33301 1.66699 -16 5s-10.667 11 -12 23h-17c-0.666992 1.33301 -1 3.66602 -1 6.99902v60v22v102
h18v66h-18v109h24v22h-24v236h24v46h-24v67h18v25c0 16 3.66699 25.833 11 29.5s13 5.5 17 5.5h74c4.66699 0 10.5 -1.83301 17.5 -5.5s10.5 -13.5 10.5 -29.5v-25h-30v-67h169v-112h-175v-95h36h56h36c6.66699 0 12.667 0.166992 18 0.5s10.333 0.833008 15 1.5
c8.66699 1.33301 15.334 3.33301 20.001 6s10 7.33398 16 14.001c3.33301 3.33301 6.16602 7 8.49902 11l8.5 14l65 114h24l26 46h-24l38 67h17l23 40c2.66699 5.33301 6.33398 10 11.001 14c4 4 11.333 6 22 6h82c12.667 0 20 -5.66699 22 -17c2 -9.33301 1 -17.333 -3 -24
l-11 -19h-30l-38 -67h30l-26 -46h-7l-38 -66h-28l-52 -92l-27 -45c-3.33301 -5.33301 -6.5 -10 -9.5 -14s-6.16699 -8 -9.5 -12l3.5 -3.5l3.5 -3.5h35l10 -10.5l10 -11.5h-46l16.5 -23.5c5.66699 -8.33301 11.167 -17.166 16.5 -26.499l34 -59h46l39 -66h-21l60 -102h20
l12 -22h-34l29 -51c2.66699 -3.33301 4 -8.66602 4 -15.999h34c0 -1.33301 0.166992 -2.5 0.5 -3.5s0.5 -2.16699 0.5 -3.5z" />
    <glyph glyph-name="L" unicode="L" horiz-adv-x="815" 
d="M607 34c0 -15.333 -3.66504 -24.999 -10.998 -28.999s-13 -6 -17 -6h-275c-44 0 -81.333 5.66699 -112 17c-10.667 3.33301 -21.334 8.33301 -32.001 15h-55c-12 8 -22 15.333 -30 22h32c-3.33301 3.33301 -6.33301 6.5 -9 9.5s-5.33398 6.16699 -8.00098 9.5
c-8.66699 10.667 -16.167 23 -22.5 37s-11.833 29.333 -16.5 46h-111c-0.666992 2.66699 -1.33398 5 -2.00098 7s-1.33398 4.66699 -2.00098 8c-1.33301 7.33301 -2.66602 15.5 -3.99902 24.5l-4 27.5h105c-2 13.333 -3.33301 27.5 -4 42.5s-1 31.167 -1 48.5v17h-45v22h47
v170h-28v67h17v45h-71v67h83v66h-29v22c0 16 3.66699 25.833 11 29.5s13.333 5.5 18 5.5h68c4.66699 0 10.5 -1.83301 17.5 -5.5s10.5 -13.5 10.5 -29.5v-22h23v-66v-67v-64h379v-29h-379v-245c0 -30.667 2 -55.334 6 -74.001h-19v-1c2.66699 -17.333 8 -32 16 -44
c4 -5.33301 8.33301 -9.83301 13 -13.5s10.334 -6.5 17.001 -8.5h19c12 -4.66699 29.333 -7 52 -7h31h294c4 0 9.66699 -2 17 -6s11 -13.667 11 -29v-79v0z" />
    <glyph glyph-name="M" unicode="M" horiz-adv-x="1129" 
d="M911 34c0 -15.333 -3.67871 -25 -11.0117 -29s-13 -6 -17 -6h-68c-4.66699 0 -10.5 2 -17.5 6s-10.5 13.667 -10.5 29v13h18v66h-18v23h33v101h-33v67h33v108h10v22h-43v201v2h-5c-1.33301 0 -2.33301 -0.666992 -3 -2l-21 -52v21h-19l-69 -170h73l-53 -130h-71l-27 -67
h27l-11 -26c-7.33301 -21.333 -14.333 -39.333 -21 -54c-8 -15.333 -16.333 -27.666 -25 -36.999c-2.66699 -2.66699 -4.66699 -5 -6 -7h-41c-4 -3.33301 -8 -6.33301 -12 -9s-8.33301 -4.66699 -13 -6c-12 -4 -25.333 -6 -40 -6c-16 0 -29.333 2 -40 6
c-4.66699 1.33301 -9.16699 3.33301 -13.5 6s-8.16602 5.66699 -11.499 9h31c-1.33301 2 -3.33301 4.33301 -6 7c-2 2.66699 -4 5.16699 -6 7.5s-4 5.16602 -6 8.49902h-2c-4 6 -8 13 -12 21c-7.33301 13.333 -14.666 31.333 -21.999 54l-10 26h-161l-27 67h165l-44 108h9
l-9 22h-43l-81 200c-0.666992 2 -1.33398 3 -2.00098 3h-5v-2v-53l-9 22h-20v-170h29v-130h-44v-67h44v-203c0 -15.333 -3.66699 -25 -11 -29s-13 -6 -17 -6h-44c-4 0 -9.66699 2 -17 6s-11 13.667 -11 29v13h-43v89v101v67v108h43v22h-43v170h27v67h-78v24v22h78
c1.33301 14 2.83301 26.5 4.5 37.5s4.16699 20.5 7.5 28.5h-27c0.666992 1.33301 1.33398 2.83301 2.00098 4.5s1.33398 3.16699 2.00098 4.5c12 21.333 34.667 32 68 32h52c14.667 0 26.334 -1.33301 35.001 -4c11.333 -3.33301 20.333 -8.33301 27 -15
c5.33301 -6 10.666 -13.333 15.999 -22h41c0.666992 -1.33301 1.33398 -2.5 2.00098 -3.5s1.33398 -2.16699 2.00098 -3.5c3.33301 -6 6.33301 -12.833 9 -20.5s5.33398 -16.167 8.00098 -25.5l6 -13h-51l19 -46h50l26 -67h-28l68 -170h28l59 -146
c0.666992 -2.66699 1.66699 -4 3 -4h10c1.33301 0 2.33301 1.33301 3 4l9 22l2 -6h29l43 108h10l9 22h-144l68 170h128l27 67h-188l18 46h187l6 13c2.66699 9.33301 5.33398 17.833 8.00098 25.5s5.66699 14.5 9 20.5c0.666992 1.33301 1.33398 2.5 2.00098 3.5
s1.33398 2.16699 2.00098 3.5h-27c4.66699 8.66699 10 16 16 22c8 6.66699 17 11.667 27 15c8.66699 2.66699 20 4 34 4h50c33.333 0 56 -10.667 68 -32c0.666992 -1.33301 1.33398 -2.83301 2.00098 -4.5s1.33398 -3.16699 2.00098 -4.5h41
c6.66699 -16.667 10.334 -38.667 11.001 -66h-50c0 -3.33301 0.166992 -6.83301 0.5 -10.5s0.5 -7.5 0.5 -11.5v-24h50v-67h-29v-170h29v-130v-67v-101h-41v-23h41v-66h-19v-13v0z" />
    <glyph glyph-name="N" unicode="N" horiz-adv-x="946" 
d="M665 28c-14 -19.333 -35.6689 -28.9971 -65.002 -28.9971h-43c-14 0 -25.333 1 -34 3c-11.333 2 -20.333 5.66699 -27 11c-8 4.66699 -15.333 12 -22 22c-8 10 -16 22.333 -24 37l-1 3h41l-62 110h-153l-107 190h155l-14 24h-21l-104 185h-21l-29 50
c-0.666992 0 -1 0.666992 -1 2c0 0.666992 -0.333008 1 -1 1h-1h-5v-2v-260h-22v-118h22v-182h-36v-24h36v-17c0 -15.333 -3.66699 -25 -11 -29s-13 -6 -17 -6h-44c-4.66699 0 -10.667 2 -18 6s-11 13.667 -11 29v17h-45v24h34v110h-34v214h22v185h-22v72h15v39v11h-15
c0.666992 30 4.33398 54 11.001 72h32c2.66699 6.66699 5.66699 12.667 9 18c15.333 18.667 37.333 28 66 28h42c7.33301 0 13.833 -0.166992 19.5 -0.5s11.167 -0.833008 16.5 -1.5c10.667 -2 20 -6 28 -12c6.66699 -4.66699 13.667 -12.334 21 -23.001l6 -9h-42
c2.66699 -4 5.16699 -8.16699 7.5 -12.5l7.5 -14.5l26 -45h234l28 -50h-239l41 -72h47l117 -209h-22l66 -118h-30l38 -68c0.666992 -2 1.66699 -3 3 -3h5v2v69h6l38 -68c0.666992 -2 1.33398 -3 2.00098 -3h1h6v2v211h22v185h-22v72h14v50h-14v72h31v11
c0 16 3.66699 25.833 11 29.5s13 5.5 17 5.5h58c4 0 9.5 -1.83301 16.5 -5.5s10.5 -13.5 10.5 -29.5v-11h-42v-72h88v-50h-93v-72h47v-209h-22v-118h-30v-72h52v-57c0 -20.667 -1 -38.334 -3 -53.001h-40c-1.33301 -4.66699 -2.5 -9 -3.5 -13s-2.16699 -7.66699 -3.5 -11h11
c-3.33301 -10.667 -7 -18.334 -11 -23.001z" />
    <glyph glyph-name="O" unicode="O" horiz-adv-x="947" 
d="M599 37c-6 -4 -12.498 -7.83105 -19.498 -11.498s-14.167 -6.83398 -21.5 -9.50098c-32 -11.333 -69.667 -17 -113 -17h-222c-43.333 0 -81 5.66699 -113 17c-7.33301 2.66699 -14.333 5.83398 -21 9.50098l-20 11.5h34c-7.33301 5.33301 -14 10.666 -20 15.999
s-11.667 11.666 -17 18.999c-4.66699 5.33301 -8.83398 11 -12.501 17s-7.16699 12.667 -10.5 20h-33c-2 4 -3.83301 8 -5.5 12s-3.16699 8 -4.5 12h7l-6 18c-2 6 -3.66699 12.333 -5 19c-2.66699 10.667 -4.83398 22.167 -6.50098 34.5s-3.16699 25.5 -4.5 39.5h-6
c-2 20.667 -3 43.667 -3 69v3h11v118h-11v24h37v53c0 48.667 3.66699 92.334 11 131.001h-37c1.33301 5.33301 2 9 2 11c6 24 13.333 44.333 22 61h10c3.33301 7.33301 6.83301 14 10.5 20s7.5 11.667 11.5 17c2 2.66699 4 5 6 7l6 6h55c17.333 18 39 32.333 65 43
c32 11.333 69.667 17 113 17h178c43.333 0 81 -5.66699 113 -17c31.333 -12 57.333 -30.667 78 -56c8.66699 -10.667 16 -23 22 -37h-36c9.33301 -18 16.333 -38.333 21 -61c0.666992 -1.33301 1 -3 1 -5s0.333008 -4 1 -6h36c7.33301 -38.667 11 -82.334 11 -131.001v-53
h-17v-24h17v-121c0 -28 -1 -54 -3 -78s-5.33301 -45.667 -10 -65c-1.33301 -6.66699 -2.83301 -13 -4.5 -19s-3.5 -12 -5.5 -18h-33l-9 -24h32c-7.33301 -14.667 -15 -27.334 -23 -38.001c-5.33301 -6.66699 -11 -12.667 -17 -18s-12.667 -10.666 -20 -15.999h-21z
M520.002 155.002c12 4 22.002 11.334 30.002 22.001c7.33301 10.667 12.666 25.334 15.999 44.001c0.666992 3.33301 1.16699 7 1.5 11s0.833008 8 1.5 12h30c2 14.667 3 31.667 3 51v21h-253v142h253v70c0 29.333 -2 54 -6 74c-1.33301 8 -3.16602 15.333 -5.49902 22
s-5.16602 12.667 -8.49902 18h-37c0 0.666992 -0.666992 2.33398 -2 5.00098c-8 10 -18 17.333 -30 22c-6.66699 2 -14.334 3.66699 -23.001 5s-18.334 2 -29.001 2h-36h-197h-36c-10.667 0 -20.167 -0.666992 -28.5 -2s-16.166 -3 -23.499 -5c-12 -4.66699 -22 -12 -30 -22
c-1.33301 -2.66699 -2 -4.33398 -2 -5.00098h36c-6 -8.66699 -10.667 -22 -14 -40c-4 -20 -6 -44.667 -6 -74v-212h-71v-21v-27c0 -8.66699 0.666992 -16.667 2 -24h72c0 -8.66699 1 -16.334 3 -23.001c3.33301 -18.667 8.66602 -33.334 15.999 -44.001
c8 -10.667 18 -18 30 -22c12 -4.66699 29.333 -7 52 -7h7h226h7c21.333 0 38.666 2.33301 51.999 7z" />
    <glyph glyph-name="P" unicode="P" horiz-adv-x="891" 
d="M647 424c0 -0.666992 -0.339844 -1.33301 -1.00684 -2c-4 -7.33301 -7.66699 -13.333 -11 -18l-7.5 -9.5c-2.33301 -3 -5.16602 -5.83301 -8.49902 -8.5l-3 -3l-9.5 -7.5l-9.5 -7.5h-32c-18 -11.333 -39 -19.333 -63 -24h31c-14 -2 -29 -3 -45 -3l-342 -1v-252v-50v-4
c0 -15.333 -3.66699 -25 -11 -29s-13 -6 -17 -6h-68c-4 0 -9.83301 2 -17.5 6s-11.5 13.667 -11.5 29v4h-24v50h12v72h28v184h-40v24v86c0 1.33301 0.166992 2.83301 0.5 4.5s0.5 3.16699 0.5 4.5s0.333008 2 1 2c0 2 0.666992 4.33301 2 7v1
c0.666992 1.33301 1.16699 2.16602 1.5 2.49902s0.833008 1.16602 1.5 2.49902l1 1l3 3l2 2c0.666992 0 1 0.166992 1 0.5s0.333008 0.5 1 0.5s1.16699 0.166992 1.5 0.5s0.833008 0.5 1.5 0.5h64c2.66699 1.33301 6.33398 2 11.001 2h371h64c25.333 0 43.333 7.33301 54 22
c8 10.667 13 26.667 15 48h-142c0.666992 4 1 7.83301 1 11.5v12.5c0 33.333 -5.33301 57.333 -16 72c-2.66699 3.33301 -5.5 6.16602 -8.5 8.49902s-6.16699 4.5 -9.5 6.5h131c-5.33301 2 -10.833 3.66699 -16.5 5s-12.167 2 -19.5 2h-53h-382
c-3.33301 0 -7.66602 1 -12.999 3s-9.66602 6.66699 -12.999 14h-90c-0.666992 2 -1.33398 4.5 -2.00098 7.5s-1 6.16699 -1 9.5v55h61v24c0 16 3.83301 25.833 11.5 29.5s13.5 5.5 17.5 5.5h438c65.333 0 113 -19.667 143 -59h-50
c0.666992 -1.33301 1.33398 -2.16602 2.00098 -2.49902s1.33398 -1.16602 2.00098 -2.49902c6.66699 -9.33301 12.5 -19.5 17.5 -30.5s9.5 -23.167 13.5 -36.5h108c1.33301 -4 2.33301 -8 3 -12l2 -12h-88c2.66699 -13.333 4.66699 -27.166 6 -41.499s2 -29.5 2 -45.5v-12
c0 -4 -0.333008 -8 -1 -12h31c-1.33301 -13.333 -2.66602 -25.833 -3.99902 -37.5s-3.33301 -23.167 -6 -34.5c-1.33301 -8 -3.16602 -15.667 -5.49902 -23s-4.83301 -14.333 -7.5 -21c-0.666992 0 -1 -0.333008 -1 -1c-2 -5.33301 -4.66699 -11 -8 -17z" />
    <glyph glyph-name="Q" unicode="Q" horiz-adv-x="1071" 
d="M835 34c0 -15.333 -3.49805 -25.002 -10.498 -29.002s-12.833 -6 -17.5 -6h-540c-44 0 -81.333 5.66699 -112 17c-13.333 4.66699 -26 11 -38 19h-46c-7.33301 5.33301 -14.5 11 -21.5 17s-13.167 12.667 -18.5 20c-4 5.33301 -7.66699 10.833 -11 16.5l-10 17.5h35
c-5.33301 9.33301 -9.66602 19.333 -12.999 30s-6.66602 22 -9.99902 34c0 1.33301 -0.166992 2.66602 -0.5 3.99902s-0.5 2.66602 -0.5 3.99902h-69c-1.33301 8 -2.5 16 -3.5 24s-2.16699 16.667 -3.5 26h55c-1.33301 13.333 -2.33301 27 -3 41s-1 28.667 -1 44v36h-22v162
c0 43.333 3 82 9 116h22l2 13.5c0.666992 4.33301 1.66699 8.5 3 12.5c2.66699 15.333 7.33398 30.666 14.001 45.999h-22c4 10 8.5 19.333 13.5 28s10.167 16.667 15.5 24c20.667 25.333 46.667 44 78 56c1.33301 0.666992 2.66602 1 3.99902 1s2.66602 0.333008 3.99902 1
c6.66699 2.66699 14.334 5 23.001 7h1c3.33301 0.666992 7 1.33398 11 2.00098s8.33301 1.33398 13 2.00098c1.33301 0 2.33301 0.166992 3 0.5s1.66699 0.5 3 0.5c3.33301 0.666992 6.66602 1 9.99902 1s6.66602 0.333008 9.99902 1c5.33301 0.666992 10.333 1 15 1h15h244
h15c4.66699 0 9.66699 -0.333008 15 -1c3.33301 -0.666992 6.66602 -1 9.99902 -1s6.66602 -0.333008 9.99902 -1c1.33301 0 2.33301 -0.166992 3 -0.5s1.66699 -0.5 3 -0.5c4.66699 -0.666992 9 -1.33398 13 -2.00098l12 -2c4 -1.33301 8 -2.5 12 -3.5
s7.66699 -2.16699 11 -3.5h-28c1.33301 -0.666992 2.83301 -1 4.5 -1s3.16699 -0.333008 4.5 -1c31.333 -12 57.333 -30.667 78 -56c5.33301 -7.33301 10.5 -15.333 15.5 -24s9.5 -18 13.5 -28h27c6 -14.667 11 -30 15 -46l2 -12.5l2 -13.5h-36
c2.66699 -17.333 4.66699 -35.666 6 -54.999s2 -39.666 2 -60.999v-2h37v-24h-32v-136h32v-36c0 -15.333 -0.333008 -30 -1 -44s-1.66699 -27.667 -3 -41h-28c-1.33301 -9.33301 -2.5 -18 -3.5 -26s-2.16699 -16 -3.5 -24h27c0 -1.33301 -0.166992 -2.66602 -0.5 -3.99902
s-0.5 -2.66602 -0.5 -3.99902c-1.33301 -3.33301 -2.33301 -7 -3 -11s-1.66699 -7.66699 -3 -11h35h79c4.66699 0 10.5 -2 17.5 -6s10.5 -13.667 10.5 -29v-7h-57v-71h57v-1zM585.002 348.998l-21.998 -0.000976562v136h-274v24h261v19c0 29.333 -2 54 -6 74
c-0.666992 4.66699 -1.5 9.16699 -2.5 13.5s-2.16699 8.16602 -3.5 11.499h35c-2.66699 7.33301 -6 14 -10 20c-6.66699 9.33301 -16.667 16.666 -30 21.999c-6.66699 2 -14.334 3.66699 -23.001 5s-18.334 2 -29.001 2h-21h-212h-22c-10.667 0 -20.167 -0.666992 -28.5 -2
s-15.833 -3 -22.5 -5c-13.333 -5.33301 -23.333 -12.666 -30 -21.999l-5.5 -9.5c-1.66699 -3 -3.16699 -6.5 -4.5 -10.5h-37c-1.33301 -3.33301 -2.5 -7.16602 -3.5 -11.499s-2.16699 -8.83301 -3.5 -13.5c-1.33301 -10 -2.5 -21.167 -3.5 -33.5s-1.5 -25.833 -1.5 -40.5
v-19h37v-24h-32v-136h191v-54c0 -13.333 0.333008 -25.5 1 -36.5s1.66699 -21.167 3 -30.5h-187c0.666992 -1.33301 1 -3.66602 1 -6.99902c4 -18 9.33301 -32.333 16 -43h28l1 -1c6.66699 -10.667 16.667 -18 30 -22c12 -4.66699 29 -7 51 -7h35h199h34
c22.667 0 40 2.33301 52 7c12 4 22 11.333 30 22l1 1h-145c3.33301 5.33301 6.5 11.5 9.5 18.5s5.16699 15.167 6.5 24.5c0 1.33301 0.166992 2.5 0.5 3.5s0.5 2.16699 0.5 3.5h132c1.33301 9.33301 2.33301 19.5 3 30.5s1 23.167 1 36.5v54z" />
    <glyph glyph-name="R" unicode="R" horiz-adv-x="916" 
d="M699 19c-2 -13.333 -9.66504 -19.9961 -22.998 -19.9961h-93c-10 0 -17 2 -21 6c-4 3.33301 -7.66699 8 -11 14l-2 4h-16l-77 135h44l-14 25h-99l-66 117h94l-23 40h-39h-210v-40h-30v-117h30v-25h-30v-124c0 -2 -0.166992 -4 -0.5 -6s-0.5 -3.66699 -0.5 -5h30
c-2.66699 -10.667 -7 -17.334 -13 -20.001s-10.667 -4 -14 -4h-76c-3.33301 0 -8.16602 1.33301 -14.499 4s-10.5 9.33398 -12.5 20.001h-17c0 1.33301 -0.166992 3 -0.5 5s-0.5 4 -0.5 6v124h44v25h-44v117h39v72h-39v82c0 13.333 3.66699 23 11 29h71
c3.33301 2.66699 6.5 4.16699 9.5 4.5s5.5 0.5 7.5 0.5h365h71c22.667 0 39.334 6.33301 50.001 19h-244l3 3c9.33301 14.667 14.666 37.667 15.999 69h213v3c0 30 -4.66699 52.667 -14 68h-39l-2 4c-10 14.667 -28 22 -54 22h-43h-392c-4.66699 0 -10.667 1.83301 -18 5.5
s-11 13.167 -11 28.5v12h35v67v5h-34c1.33301 13.333 5.33301 21.666 12 24.999s12 5 16 5h411c46.667 0 84 -10 112 -30h51c13.333 -8.66699 25 -20 35 -34c7.33301 -10.667 14.333 -23.334 21 -38.001h-44c4 -10.667 7.66699 -21.834 11 -33.501
s5.66602 -24.167 6.99902 -37.5h44c1.33301 -10.667 2.5 -21.667 3.5 -33s1.5 -23.333 1.5 -36v-3h-67c0 -13.333 -0.5 -25.833 -1.5 -37.5s-2.16699 -23.167 -3.5 -34.5h189c-0.666992 -8 -2.33398 -16 -5.00098 -24h-179c-6.66699 -30.667 -17.667 -57 -33 -79
c-9.33301 -12 -20 -22.667 -32 -32h56c-22.667 -15.333 -49.334 -25 -80.001 -29l25 -43h-30l68 -117h30l14 -25h-30l68 -115c2.66699 -4.66699 4 -11.334 4 -20.001h30v-4v0z" />
    <glyph glyph-name="S" unicode="S" horiz-adv-x="851" 
d="M560 43c-26 -28.667 -63.001 -42.9941 -111.001 -42.9941h-419c-4.66699 0 -10.667 1.83301 -18 5.5s-11 13.167 -11 28.5v9h-32v71c0 10.667 2.33301 19 7 25h45c3.33301 4 7 6.5 11 7.5s7.33301 1.5 10 1.5h382h45c9.33301 0 15.833 1.33301 19.5 4
s6.16699 5.66699 7.5 9c0 0.666992 0.166992 1 0.5 1s0.5 0.333008 0.5 1h-180c5.33301 10.667 8 24 8 40v78h192v8c0 12 -1.16699 21.667 -3.5 29s-5.16602 13 -8.49902 17s-7 6.5 -11 7.5s-8 1.5 -12 1.5h-57h-242c-11.333 0 -22.5 0.666992 -33.5 2
s-21.833 3.66602 -32.5 6.99902h-57c-10 3.33301 -19.5 8 -28.5 14s-17.167 14 -24.5 24c-12.667 17.333 -22.667 41.333 -30 72h49c-1.33301 4 -2.33301 8 -3 12l-2 12h-48c-1.33301 10 -2.5 20.333 -3.5 31s-1.5 21.667 -1.5 33v8h17v68v4h-49v1
c0 25.333 3 48.666 9 69.999h84c3.33301 12.667 7.33301 24.667 12 36s10.667 21.666 18 30.999c0.666992 1.33301 1.33398 2.16602 2.00098 2.49902s1.33398 1.16602 2.00098 2.49902h-52c26 33.333 64.667 50 116 50h363c4 0 9.66699 -1.83301 17 -5.5
s11 -13.167 11 -28.5v-16h68v-64v-8h-42c-1.33301 -11.333 -5.33301 -18.5 -12 -21.5s-11.667 -4.5 -15 -4.5h-365h-42c-8.66699 0 -15 -1.33301 -19 -4s-6.66699 -5.66699 -8 -9c-4.66699 -8.66699 -7.33398 -19 -8.00098 -31h191v-1c-0.666992 -2 -1 -5.33301 -1 -10v-62
h-198v-12c0 -12 1.16699 -21.667 3.5 -29s5.16602 -13 8.49902 -17s7 -6.5 11 -7.5s7.66699 -1.5 11 -1.5h50h250c13.333 0 27.333 -1.66699 42 -5h49c19.333 -4 36.666 -12 51.999 -24h-67c10 -8 18.333 -16.667 25 -26c16.667 -23.333 28 -51.333 34 -84h67
c1.33301 -10.667 2.5 -21.5 3.5 -32.5s1.5 -22.833 1.5 -35.5v-4h-28v-84c0 -6 -0.166992 -11.833 -0.5 -17.5s-0.833008 -11.167 -1.5 -16.5h29c-0.666992 -4 -1.16699 -8 -1.5 -12s-1.16602 -8 -2.49902 -12h-88c-6 -32.667 -17 -60.334 -33 -83.001
c-1.33301 -2.66699 -3 -5 -5 -7s-3.66699 -4 -5 -6h88v0z" />
    <glyph glyph-name="T" unicode="T" horiz-adv-x="930" 
d="M662 712c0 -8 -1.16699 -14.5 -3.5 -19.5s-5 -8.66699 -8 -11s-6.16699 -3.83301 -9.5 -4.5s-6 -1 -8 -1h-203h-54v-30h245v-24h-225v-141h34v-73h31v-110h-31v-24h-34v-72h34v-72v-96c0 -15.333 -3.5 -24.833 -10.5 -28.5s-12.5 -5.5 -16.5 -5.5h-37
c-4.66699 -0 -10.5 1.83301 -17.5 5.5s-10.5 13.167 -10.5 28.5v25h-118v71h85v72h-23v72h23v24h-79v110h79v73h-23v141h56v24h-56v30h-54h-203c-2 0 -4.66699 0.333008 -8 1s-6.5 2.16699 -9.5 4.5s-5.66699 6 -8 11s-3.5 11.5 -3.5 19.5v46h23v32
c0 15.333 3.83301 24.833 11.5 28.5s13.5 5.5 17.5 5.5h640c4 0 9.66699 -1.83301 17 -5.5s11 -13.167 11 -28.5v-32h-54v-46v0z" />
    <glyph glyph-name="U" unicode="U" horiz-adv-x="929" 
d="M598 23l-8.50488 -3.50098c-2.33301 -1 -4.83301 -2.16699 -7.5 -3.5c-30 -10.667 -67.667 -16 -113 -16h-189c-45.333 0 -82.666 5.33301 -111.999 16l-8.5 3.5c-2.33301 1 -4.83301 2.16699 -7.5 3.5h-37c-24.667 12 -45.334 28.333 -62.001 49
c-5.33301 6.66699 -10.333 14.334 -15 23.001h36c-5.33301 10.667 -10.166 21.834 -14.499 33.501s-8.16602 24.167 -11.499 37.5h-37v1c-0.666992 0.666992 -1 1.66699 -1 3c-2.66699 10 -4.66699 20.667 -6 32s-2.66602 23.333 -3.99902 36h18c-2 22.667 -3 46.667 -3 72
h-19v3v22h19v110h-19v72h37v142h-77v24h59v56h-19v51c0 15.333 3.66699 24.833 11 28.5s13.333 5.5 18 5.5h55c4 0 9.66699 -1.83301 17 -5.5s11 -13.167 11 -28.5v-51h37v-222h-37v-72h37v-148c0 -22.667 1 -42.334 3 -59.001h-37
c0 -3.33301 0.166992 -6.16602 0.5 -8.49902s0.833008 -4.83301 1.5 -7.5c2.66699 -18.667 8.33398 -33.667 17.001 -45c2 -2.66699 5 -6 9 -10h37c0.666992 0 1 -0.333008 1 -1c5.33301 -4 12 -7.66699 20 -11c6.66699 -2 14.167 -3.66699 22.5 -5s17.833 -2 28.5 -2h37
h180h37c10.667 0 20.167 0.666992 28.5 2s15.833 3 22.5 5c8 3.33301 14.667 7 20 11h-37l1 1c4 4 7 7.33301 9 10c7.33301 10.667 12.666 25.667 15.999 45c0.666992 2.66699 1.16699 5.16699 1.5 7.5s0.833008 5.16602 1.5 8.49902h18c2 16.667 3 36.334 3 59.001v13h-103
v25h103v110h-286v72h304v142h-37v24h19v56h-19v51c0 15.333 3.66699 24.833 11 28.5s13 5.5 17 5.5h56c4 0 9.66699 -1.83301 17 -5.5s11 -13.167 11 -28.5v-51h86v-56h-86v-24h37v-142h-37v-72h37v-110h-19v-22v-3h19c0 -25.333 -1 -49.333 -3 -72h-37
c-1.33301 -12.667 -2.83301 -24.667 -4.5 -36s-3.5 -22 -5.5 -32c0 -0.666992 -0.166992 -1.16699 -0.5 -1.5s-0.5 -0.833008 -0.5 -1.5h37v-1c-3.33301 -13.333 -7.16602 -25.833 -11.499 -37.5s-9.5 -22.834 -15.5 -33.501h-18c-2.66699 -4 -5.16699 -8 -7.5 -12
s-5.16602 -7.66699 -8.49902 -11c-15.333 -20 -36 -36.333 -62 -49h19v0z" />
    <glyph glyph-name="V" unicode="V" horiz-adv-x="1030" 
d="M788 796l-25 -61h31l-79 -196h-68l-64 -160h-94l63 160h47l25 62h59l53 134h-107l25 62h74l6 17l2 4h-73c5.33301 11.333 14 17 26 17h76c8 0 13.5 -1.66699 16.5 -5s4.83301 -6.33301 5.5 -9c0.666992 -0.666992 1 -1.66699 1 -3h34c0.666992 -6 -0.333008 -13 -3 -21
h-31v-1zM584 379l67 -0.00292969l-8 -20h-29l-41 -102h-87l-25 -62h116l-37 -91c-3.33301 -9.33301 -7 -17.666 -11 -24.999h-69c-5.33301 -11.333 -10.833 -20.833 -16.5 -28.5s-11.167 -14.167 -16.5 -19.5c-3.33301 -3.33301 -8.33301 -6.66602 -15 -9.99902
c-1.33301 -1.33301 -3.33301 -2.66602 -6 -3.99902h69c-13.333 -8 -26.666 -13 -39.999 -15c-14 2 -27.667 7 -41 15h-44c-25.333 14.667 -43 35.334 -53 62.001h151c-1.33301 2.66699 -2.66602 6 -3.99902 10c-0.666992 2 -2.33398 5.66699 -5.00098 11h-107
c-1.33301 1.33301 -2 2.66602 -2 3.99902l-37 91h-43l-67 164h96l-8 20h-96l-65 160h48l-25 62h58l-54 134h-106l-25 61v1h73c-2.66699 6.66699 -3.33398 13.667 -2.00098 21h-74v3c1.33301 2 3.33301 4.83301 6 8.5s8 5.5 16 5.5h74c12 0 20.667 -5.66699 26 -17h34
c0 -1.33301 0.666992 -2.66602 2 -3.99902l6 -17h-31l25 -62h31l79 -196h-56l64 -160h56l8 -20h-29l41 -102h29l25 -62c0 -0.666992 0.333008 -1.33398 1 -2.00098c0 -0.666992 0.333008 -1 1 -1l4 1l1 2l64 164h96zM459 194.997l-7 0.000976562
c0 -0.666992 0.333008 -1.33398 1 -2.00098c0 -0.666992 0.333008 -1 1 -1l4 1z" />
    <glyph glyph-name="W" unicode="W" horiz-adv-x="1442" 
d="M-22 797c-3.33301 9.33301 -4.00195 17.3311 -2.00195 23.998c0.666992 2.66699 2.5 5.83398 5.5 9.50098s8.16699 5.5 15.5 5.5h108c14.667 0 24 -7.33301 28 -22l1 -2h-37l22 -76h37l22 -75v-1h-37l22 -75h37l22 -77h-37l8 -25h36l34 -116h-18l22 -77h19l22 -77
c0.666992 -0.666992 1 -1.33398 1 -2.00098l4 1l1 2l7 19l5 -20l2 -2l4 1l1 2l24 76h-19l25 77h36l37 116h-37l8 25h37l24 77h-37l24 75v1h37l24 75h-37l25 78c5.33301 14.667 14.666 22 27.999 22h200c14.667 0 24 -7.33301 28 -22l1 -2h-124l22 -76h37l22 -75v-1h-37
l22 -75h37l22 -77h-37l8 -25h37l33 -116h-18l22 -77h19l22 -77c0.666992 -0.666992 1 -1.33398 1 -2.00098l4 1l1 2l7 19l6 -20c0 -0.666992 0.333008 -1.33398 1 -2.00098l4 1l1 2l24 76h-18l24 77h37l36 116h-133l8 25h133l24 77h-36l23 75v1h1h36l24 75h-37l25 78
c5.33301 14.667 14.666 22 27.999 22h111c7.33301 0 12.5 -1.66699 15.5 -5s5.16699 -6.66602 6.5 -9.99902v-9h-37c0 -5.33301 -1 -10.333 -3 -15l-19 -61h36l-24 -75v-1h-37l-24 -75h37l-25 -77h-37l-8 -25h121l-37 -116h-103l-24 -77h18l-33 -104h-37l-23 -71h37l-4 -10
c-7.33301 -19.333 -15.333 -35.666 -24 -48.999h-18c-3.33301 -5.33301 -6.66602 -10 -9.99902 -14s-6.66602 -7.66699 -9.99902 -11c-2 -1.33301 -4.16699 -3 -6.5 -5s-5.16602 -3.66699 -8.49902 -5c-17.333 -12 -37.333 -18.667 -60 -20
c-19.333 1.33301 -37.166 6.83301 -53.499 16.5s-29.833 22.5 -40.5 38.5h37c-6.66699 9.33301 -12 20.333 -16 33c-1.33301 2 -2.5 4.33301 -3.5 7s-2.16699 5.33398 -3.5 8.00098l-3 11h-37l-21 71h19l-32 104h-98l-23 77h117l-35 116h-37l-24 82l-64 -198h-19l-24 -77h18
l-34 -104h-36l-23 -71h37l-4 -10c-7.33301 -19.333 -15.333 -35.666 -24 -48.999h-18c-8 -11.333 -14.667 -19.666 -20 -24.999c-2.66699 -1.33301 -5 -3 -7 -5s-4.66699 -3.66699 -8 -5c-18.667 -12.667 -38.667 -19.334 -60 -20.001
c-19.333 1.33301 -37.333 6.83301 -54 16.5s-30 22.5 -40 38.5h36c-3.33301 5.33301 -6.33301 10.666 -9 15.999s-4.66699 11 -6 17c-1.33301 2 -2.5 4.33301 -3.5 7s-2.16699 5.33398 -3.5 8.00098l-3 11h-37l-21 71h18l-31 104h-18l-23 77h37l-35 116h-37l-7 25h36l-22 77
h-37l-23 75v1h37l-22 75h-37l-19 61v0z" />
    <glyph glyph-name="X" unicode="X" horiz-adv-x="957" 
d="M709 19c-1.33301 -12.667 -8.66406 -19.002 -21.9971 -19.002h-87c-8.66699 0 -15.334 1.33301 -20.001 4c-6.66699 4 -11.667 9.66699 -15 17l-5 6h-29l-42 59h39l-50 71h-38l-74 104h29l-32 46l-15 -20l-14 20l-32 -46h-22l-73 -104h130l-50 -71h-152l-41 -59h43l-6 -7
c-4 -6.66699 -8.66699 -11.667 -14 -15c-4 -3.33301 -11 -5 -21 -5h-81c-12.667 0 -19.667 6.33301 -21 19c-1.33301 3.33301 -1.33301 6 0 8h-30c0.666992 6 2.66699 11.667 6 17l30 42h38l50 71h-38l74 104h29l54 77h-111l32 45h190l35 50l-23 32h-108l-65 91h32l-54 75
h-31l-54 76h33l-52 73c-0.666992 0.666992 -1 1.16699 -1 1.5s-0.333008 0.833008 -1 1.5h-33c-3.33301 6 -5 13.333 -5 22c1.33301 12.667 8.66602 19 21.999 19h74c8.66699 0 15.667 -1.66699 21 -5c6 -4.66699 10.667 -9.66699 14 -15l14 -21h185l53 -76h-171l51 -75h29
h1l58 -84l16 22l10 -14h12l55 75h-32v1l56 75h33l56 76h-34l16 21c4.66699 6.66699 9 11.667 13 15c6.66699 3.33301 14 5 22 5h67c13.333 0 21 -6.33301 23 -19c0 -8.66699 -1.66699 -16 -5 -22h43c-0.666992 -0.666992 -1 -1.16699 -1 -1.5s-0.333008 -0.833008 -1 -1.5
l-53 -73h-29l-54 -75h29h-1l-55 -76h-41l-66 -91h118l-28 -38l31 -44h-113l32 -45h36l54 -77h-22l73 -104h22l49 -71h-43l30 -42c4 -5.33301 6 -11 6 -17h43c0 -1.33301 0.166992 -2.66602 0.5 -3.99902s0.166016 -2.66602 -0.500977 -3.99902z" />
    <glyph glyph-name="Y" unicode="Y" horiz-adv-x="969" 
d="M420 27c-1.33301 -12 -5.33203 -19.498 -11.999 -22.498s-12 -4.5 -16 -4.5h-50c-4 0 -9.33301 1.5 -16 4.5s-10.667 10.5 -12 22.5h-42v7v52h24v71h-24v96l-5 8h54l-43 77h-54l-25 45h53l-34 61h-54l-75 134h43l-30 53h-42l-1 1l-42 75h43l-43 76h-42l-3 5
c-4 7.33301 -5 14.666 -3 21.999c3.33301 9.33301 9.66602 14 18.999 14h64c4 0 8.83301 -1.16699 14.5 -3.5s10.167 -7.5 13.5 -15.5l12 -22h50l42 -76h-43l41 -75h93l1 -1l29 -53h-102l73 -134h43l4 7l25 -46l95 173h43l29 53h-166v1l41 75h167l42 76h-43l12 23
c4 7.33301 8.66699 12.166 14 14.499s10.333 3.5 15 3.5h61c8.66699 0 14.667 -4.33301 18 -13c2.66699 -8 2 -15.667 -2 -23l-3 -5h50l-43 -76h-43l-42 -75h42v-1l-30 -53h-51l-76 -134h103l-35 -61h-102l-26 -45h50l-43 -77h-27l-5 -8v-96h27v-71v-52
c0 -2.66699 -0.333008 -5 -1 -7h1v0z" />
    <glyph glyph-name="Z" unicode="Z" horiz-adv-x="868" 
d="M608 586l-3.50098 -14.499c-1 -4.33301 -2.5 -8.5 -4.5 -12.5c-2 -4.66699 -4.66699 -9.33398 -8 -14.001h30c-2.66699 -4 -5 -6.66699 -7 -8c-2.66699 -3.33301 -5.83398 -6.33301 -9.50098 -9s-7.5 -5.66699 -11.5 -9l-70 -50h-52l-63 -46h202l-85 -61h-185l-224 -161
h254l-21 -15c-1.33301 0 -2 -0.666992 -2 -2v-9v-1h-253v-23c0 -2 1 -3 3 -3h34h440c4 0 9.66699 -1.83301 17 -5.5s11 -13.167 11 -28.5v-14h154v-66c0 -2 -0.166992 -3.83301 -0.5 -5.5s-0.5 -3.16699 -0.5 -4.5h-161c-2 -11.333 -6.33301 -18.166 -13 -20.499
s-11.667 -3.5 -15 -3.5h-507c-26 0 -45 8 -57 24h33l-1 1c-12 16 -18 39.333 -18 70v5h-33v74v1h26v26h-26v1c0 7.33301 0.166992 13.666 0.5 18.999s0.833008 10.333 1.5 15c0.666992 10.667 2.66699 20 6 28c3.33301 8.66699 8 16 14 22
c2.66699 3.33301 5.83398 6.33301 9.50098 9l12.5 9l80 58h39l85 61h-168l63 46h168l106 76h-39l131 95c0.666992 0 1 0.666992 1 2v7h34v24c0 2 -1 3 -3 3h-34h-440c-4.66699 0 -10.667 1.83301 -18 5.5s-11 13.167 -11 28.5v10h-33v59h42v11
c0 15.333 3.66699 24.833 11 28.5s13 5.5 17 5.5h508c12.667 0 25.334 -3 38.001 -9s22.667 -18 30 -36h-48c5.33301 -14 8 -31 8 -51v-8h105v-71h-87v-23h143v-33h-145v-7v0z" />
    <glyph glyph-name="bracketleft" unicode="[" horiz-adv-x="425" 
d="M165 -82c0 -8.66699 -2.00195 -14.668 -6.00195 -18.001s-8.66699 -5 -14 -5h-156c-27.333 0 -47 8.33301 -59 25c-8 10 -13.667 24.667 -17 44h76c-2 8.66699 -3 18.334 -3 29.001v112h-18v71h18v49h-74v71h74v182h-52v23h52v116h-69v71h69v109h-18v23h18v72h-18v16
c0 21.333 3 39.666 9 54.999h18c1.33301 3.33301 2.83301 6.5 4.5 9.5s3.5 5.83301 5.5 8.5c12.667 16.667 32.667 25 60 25h99c4.66699 0 9 -1.66699 13 -5s6 -9.33301 6 -18v-20h-18v-46c0 -8.66699 -2 -14.667 -6 -18s-8.66699 -5 -14 -5h-66h-19
c-3.33301 0 -5.66602 -0.666992 -6.99902 -2h19c-3.33301 -3.33301 -5 -8.66602 -5 -15.999v-56h-18v-23h18v-109h-18v-71h18v-116h-18v-23h18v-182h-18v-71h18v-49h-18v-71h18v-81c0 -8.66699 1.33301 -13.667 4 -15s5.33398 -2 8.00098 -2h18h67
c4.66699 0 9 -1.66699 13 -5s6 -9.33301 6 -18v-20h-18v-46v0z" />
    <glyph glyph-name="backslash" unicode="\" horiz-adv-x="643" 
d="M63 845l41 -104h-10l25 -62h9l18 -43h-37l24 -63h37l63 -159h-39l8 -21h40l40 -101h-40l24 -63h40l38 -95h-42l8 -21h42l25 -62h-56l7 -20c3.33301 -7.33301 2.66602 -14.5 -2.00098 -21.5s-11 -10.5 -19 -10.5h-7c-10 0 -17.333 5 -22 15l-14 37h36l-25 62h-36l-8 21h23
l-38 95h-23l-25 63h43l-40 101h-43l-8 21h37l-63 159h-37l-25 63h48l-17 43h-48l-24 62h15l-34 87c-3.33301 7.33301 -2.66602 14.5 2.00098 21.5s11 10.5 19 10.5h48c10 0 17.333 -5 22 -15z" />
    <glyph glyph-name="bracketright" unicode="]" horiz-adv-x="425" 
d="M-49 983c0 8.66699 2.00293 14.6689 6.00293 18.002s8.66699 5 14 5h142c27.333 0 47.333 -8.33301 60 -25c7.33301 -10.667 12.666 -25.667 15.999 -45h-19c2 -8 3 -17.333 3 -28v-112h18v-71h-52v-49h52v-71h-18v-182h18v-23h-18v-116h18v-71h-18v-109h18v-24h-18v-71
h18v-16c0 -22 -3 -40.333 -9 -55h-18c-1.33301 -3.33301 -2.83301 -6.5 -4.5 -9.5s-3.5 -5.83301 -5.5 -8.5c-12.667 -16.667 -32.667 -25 -60 -25h-99c-4.66699 0 -9 1.66699 -13 5s-6 9.33301 -6 18v20h18v46c0 8.66699 2 14.667 6 18s8.66699 5 14 5h66h19
c3.33301 0 5.66602 0.666992 6.99902 2h-18c1.33301 1.33301 2.33301 3.16602 3 5.49902s1 5.5 1 9.5v56h18v24h-18v109h18v71h-18v116h18v23h-18v182h18v71h-152v49h152v71h-18v80c0 9.33301 -1.33301 14.666 -4 15.999s-5.33398 2 -8.00098 2h-18h-110
c-4.66699 0 -9 1.66699 -13 5s-6 9.33301 -6 18v19h18v47v0z" />
    <glyph glyph-name="asciicircum" unicode="^" horiz-adv-x="608" 
d="M238 587h75v-11h-75v11zM361 478h-134v13h134v-13zM519 529c3.33301 -10 2.66406 -18.001 -2.00293 -24.001c-1.33301 -2.66699 -3.66602 -5.16699 -6.99902 -7.5s-8 -3.5 -14 -3.5h-50c-10 0 -16.833 2.33301 -20.5 7s-6.16699 8.66699 -7.5 12l-14 42h-34l-52 160h32
l-7 20h-42l-7 -20h-32l-54 -160h34l-15 -43c-1.33301 -3.33301 -3.83301 -7.16602 -7.5 -11.499s-10.167 -6.5 -19.5 -6.5h-51c-6 0 -10.667 1.16699 -14 3.5s-5.66602 4.83301 -6.99902 7.5c-1.33301 2 -2.5 5 -3.5 9s-0.5 9 1.5 15l9 26h-34l55 160h32l7 20h-49l35 102
h-43l9 26c4.66699 16.667 11.667 28.667 21 36h102v1c10.667 7.33301 22.334 11 35.001 11h52c14 0 25.667 -3.66699 35 -11l1 -1h-102c8.66699 -6.66699 16 -18.667 22 -36l8 -26h44l34 -102h49l7 -20h-32l54 -160h33zM293.998 734.999l-18 54l-6 1l-18 -55h42z" />
    <glyph glyph-name="underscore" unicode="_" horiz-adv-x="766" 
d="M501 -61c-4 -9.33301 -11.332 -14.001 -21.999 -14.001h-482c-11.333 0 -19 4.66699 -23 14h56c-2 4 -3 8.33301 -3 13v8h-55v51c0 3.33301 0.666992 7 2 11h45c2.66699 10 10 15 22 15h463c11.333 0 18.666 -5 21.999 -15h-27c1.33301 -4 2 -7.66699 2 -11v-51h27v-8
c0 -3.33301 -0.666992 -7.66602 -2 -12.999h-25v0z" />
    <glyph glyph-name="grave" unicode="`" horiz-adv-x="419" 
d="M181 816c-1.33301 -2.66699 -3.83398 -4.99902 -7.50098 -6.99902s-8.5 -3 -14.5 -3h-27c-10 0 -17.667 2.66699 -23 8c-4.66699 5.33301 -8.66699 11.666 -12 18.999l-46 93h-37l-31 62h55l-3 7c-3.33301 7.33301 -4.66602 13 -3.99902 17s2 7.33301 4 10
c1.33301 2 3.66602 4 6.99902 6s8 3 14 3h19c5.33301 0 11.333 -1.83301 18 -5.5s12.334 -11.167 17.001 -22.5l7 -15h-37l27 -62h37l37 -85c4 -10.667 4 -19 0 -25z" />
    <glyph glyph-name="a" unicode="a" 
d="M745 14c-0.666992 -2.66699 -2.50293 -5.83105 -5.50293 -9.49805s-8.16699 -5.5 -15.5 -5.5h-74c-12 0 -20.667 6 -26 18h45c0 0.666992 -0.166992 1.16699 -0.5 1.5s-0.5 1.16602 -0.5 2.49902l-7 16h-46l-25 63h26l-54 133h-25l-89 222h46l-8 21h-47l-40 101h21
l-25 63h-6v-1l-8 -18l-7 19c-0.666992 0.666992 -1 1.33398 -1 2.00098h-1h-4v-1c0 -0.666992 -0.166992 -1 -0.5 -1s-0.5 -0.333008 -0.5 -1l-25 -62h-27l-40 -101h27l-8 -21l-55 -140h123c1.33301 0 2.83301 -0.166992 4.5 -0.5s3.16699 -0.5 4.5 -0.5
c2.66699 -0.666992 5.33398 -2 8.00098 -4h1c6 -4.66699 9.66699 -9.33398 11 -14.001h-53v-1l25 -62h53l11 -27c4.66699 -10.667 3.66699 -20.334 -3 -29.001c-6 -9.33301 -14.667 -14 -26 -14h-194h-26l-25 -63h-32l-24 -63h32l-7 -17
c-0.666992 -0.666992 -1 -1.16699 -1 -1.5s-0.333008 -0.833008 -1 -1.5h-34c-6.66699 -12 -15.667 -18 -27 -18h-75c-8 0 -13.5 1.66699 -16.5 5s-5.16699 6.66602 -6.5 9.99902v3h45c-0.666992 5.33301 0.333008 12 3 20h-45v1l25 62h25l54 133h-26l25 63l64 159h47l8 21
h-46l41 101h21l25 63h-21l36 91c2 4.66699 4 9 6 13s3.66699 8 5 12h30c10.667 22 21.667 38 33 48c2 1.33301 4.16699 3 6.5 5s5.16602 3.66699 8.49902 5c1.33301 0.666992 2.33301 1.33398 3 2.00098s1.66699 1.33398 3 2.00098h-29c4.66699 2.66699 9.33398 5 14.001 7
h1c4.66699 2.66699 9.33398 4.33398 14.001 5.00098c1.33301 0.666992 3 1 5 1c2 0.666992 5.66699 1.66699 11 3c3.33301 0.666992 6.33301 1 9 1h8h9.5c3 0 5.83301 -0.333008 8.5 -1c4 -1.33301 7 -2 9 -2c1.33301 -0.666992 2.66602 -1 3.99902 -1
s2.66602 -0.333008 3.99902 -1l6 -2c2 -0.666992 3.66699 -1.33398 5 -2.00098l4 -2c2 -1.33301 4.16699 -2.33301 6.5 -3s4.16602 -1.66699 5.49902 -3c25.333 -14.667 43 -35.334 53 -62.001h-95c0.666992 -2 1.33398 -3.83301 2.00098 -5.5
s1.33398 -3.16699 2.00098 -4.5c0.666992 -2 2.33398 -5.66699 5.00098 -11h43c0 -1.33301 0.666992 -2.66602 2 -3.99902l36 -91h53l25 -63h-27l41 -101h27l56 -138l17 -42h-53l25 -63h54l54 -133h-32l25 -62v-1h32c2.66699 -6.66699 3.33398 -13.334 2.00098 -20.001h-34
v-3v0z" />
    <glyph glyph-name="b" unicode="b" horiz-adv-x="907" 
d="M605 17c-0.666992 -0.666992 -1.33496 -1.16797 -2.00195 -1.50098s-1.33398 -0.833008 -2.00098 -1.5c-21.333 -10 -46.666 -15 -75.999 -15h-399c-10 0 -19.5 1.66699 -28.5 5s-17.167 7.66602 -24.5 12.999h-50c-5.33301 3.33301 -9.66602 7 -12.999 11
s-6.66602 8.66699 -9.99902 14c-6 8.66699 -10 19 -12 31v6h54v21h-54v95h114v62h-113v102h84v20h-73v160h24v62h-30v134h77v21l4 12.5c1.33301 4.33301 3.33301 8.5 6 12.5c4 6 8.33301 11.333 13 16h-56c8.66699 8.66699 19.667 15.667 33 21
c3.33301 1.33301 6.83301 2.33301 10.5 3l11.5 2l1 1h416c60.667 0 104.667 -17 132 -51c25.333 -33.333 38 -82.666 38 -147.999v-56c0 -63.333 -16.333 -111.666 -49 -144.999c18 -17.333 31.667 -39 41 -65h-17c8 -25.333 12 -53.333 12 -84v-18h18v-49
c0 -6 -0.333008 -10.333 -1 -13h-17c0 -13.333 -0.666992 -26 -2 -38s-3 -23.333 -5 -34c-1.33301 -4 -2.33301 -8 -3 -12s-1.66699 -7.66699 -3 -11h17l-9 -21h-43l-6 -11.5l-6 -10.5c-12.667 -18 -28 -31.333 -46 -40h44zM484.999 147.999
c19.333 0 33.001 4.33496 41.001 13.002c6 7.33301 9.66699 18.666 11 33.999h114c0 2 0.166992 4.16699 0.5 6.5s0.5 4.83301 0.5 7.5v48h-114v20c0 22.667 -4.33301 38.667 -13 48c-9.33301 10.667 -26.333 16 -51 16h-18h-248c-13.333 0 -23.333 6 -30 18h157
c-2.66699 5.33301 -4 10.333 -4 15v5h-73v77c0 9.33301 3.16699 17.166 9.5 23.499s14.166 9.5 23.499 9.5h183h11c26 0 43 4.66699 51 14c6.66699 8 10.667 20 12 36h23c0.666992 2 1 4.66699 1 8v54h-30v15c0 22 -4.33301 37.333 -13 46c-8 9.33301 -21.667 14 -41 14h-4
h-343h-4c-1.33301 0 -2 -2 -2 -6v-311h-17v-102h248v-62h-248v-42v-4c0 -0.666992 0.333008 -1 1 -1h17h349z" />
    <glyph glyph-name="c" unicode="c" horiz-adv-x="849" 
d="M528 17c-3.33301 -8 -7.5 -13.0029 -12.5 -15.0029s-9.16699 -3 -12.5 -3h-307c-43.333 0 -81 5.66699 -113 17l-1 1h42c-13.333 4.66699 -26.666 11.334 -39.999 20.001h-42c-14.667 10.667 -26.667 22 -36 34c-3.33301 4.66699 -6.5 9.33398 -9.5 14.001
s-5.83301 9.66699 -8.5 15h54c-11.333 21.333 -20 44.333 -26 69c-2 10 -3.83301 20.333 -5.5 31s-3.16699 21.667 -4.5 33h-29c-1.33301 20 -2.33301 41 -3 63h-25v17v142h46v21h-46v35c0 22.667 1 44.667 3 66h67l4 33c1.33301 10.667 2.66602 20.667 3.99902 30h-67
c0.666992 2 1 4.16699 1 6.5s0.333008 4.5 1 6.5c8 31.333 19 58.666 33 81.999h112c2 2.66699 3.83301 5.33398 5.5 8.00098s3.5 5.33398 5.5 8.00098c2 2 3.33301 3.66699 4 5h-38c20 23.333 44.333 40.333 73 51c14.667 4.66699 29 8.33398 43 11.001h-74
c22 4 45.333 6 70 6h260c2.66699 0 5.5 -0.333008 8.5 -1s6.16699 -2.33398 9.5 -5.00098h103c3.33301 -2.66699 6 -6.16699 8 -10.5s3 -10.5 3 -18.5v-54h-60v-23c0 -16 -3.66699 -26 -11 -30s-13 -6 -17 -6h-299h-60c-21.333 0 -38.666 -2.33301 -51.999 -7
c-12 -4 -22 -11.333 -30 -22c-0.666992 -1.33301 -1.33398 -2.5 -2.00098 -3.5s-1.33398 -2.16699 -2.00098 -3.5h204c-6 -10 -10 -22.333 -12 -37c-1.33301 -4 -2.16602 -8 -2.49902 -12s-0.833008 -8.66699 -1.5 -14h-193c-0.666992 -7.33301 -1.16699 -14.833 -1.5 -22.5
s-0.5 -16.167 -0.5 -25.5v-53h49v-39h114v-104h-114v-37c0 -30 2 -55 6 -75c2.66699 -18 8 -32.667 16 -44c8 -10.667 18 -18 30 -22c12 -4.66699 29.333 -7 52 -7h54h305c4 0 9.66699 -2 17 -6s11 -13.667 11 -29v-13h-39v-63h39v-3c0 -7.33301 -1 -13 -3 -17h-57v0z" />
    <glyph glyph-name="d" unicode="d" horiz-adv-x="908" 
d="M516 48c-16 -12.667 -32.9971 -22.3379 -50.9971 -29.0049c-34 -13.333 -74.333 -20 -121 -20h-269c-16 0 -30.667 3.83301 -44 11.5s-24 18.167 -32 31.5l-3 6h20l-4 10c-1.33301 3.33301 -2.33301 7 -3 11h-20c0 0.666992 -0.166992 1.16699 -0.5 1.5
s-0.5 1.16602 -0.5 2.49902v58h28v134h-28v62h39v159h-39v21h27v101h-26v63h38v85c0.666992 1.33301 1.16699 3 1.5 5s1.16602 3.66699 2.49902 5h-39c1.33301 2.66699 2.5 5.16699 3.5 7.5s2.16699 4.83301 3.5 7.5c0.666992 1.33301 1.33398 2.33301 2.00098 3
s1.33398 1.66699 2.00098 3h37c15.333 22 36.666 34 63.999 36l1 1h312c46 0 86.333 -6.66699 121 -20c12.667 -5.33301 24 -11 34 -17h-63c11.333 -7.33301 20.666 -14.333 27.999 -21h63c9.33301 -8 16.666 -15.667 21.999 -23c16 -20 29 -44 39 -72h-65
c1.33301 -5.33301 3 -10.833 5 -16.5s3.66699 -11.167 5 -16.5s2.33301 -10.333 3 -15s1.33398 -9.66699 2.00098 -15h65c3.33301 -15.333 5.5 -31.333 6.5 -48s1.83301 -34.334 2.5 -53.001h-22c0 -3.33301 0.166992 -6.16602 0.5 -8.49902s0.5 -5.16602 0.5 -8.49902v-4
h22v-153c0 -1.33301 -0.166992 -2.33301 -0.5 -3s-0.5 -1.66699 -0.5 -3h-16c-0.666992 -11.333 -1.16699 -22.166 -1.5 -32.499s-0.833008 -20.166 -1.5 -29.499h17c-1.33301 -14.667 -3 -28.667 -5 -42s-4.66699 -26 -8 -38c-2 -9.33301 -4.66699 -18.666 -8 -27.999
s-6.66602 -18 -9.99902 -26h-27c-4.66699 -9.33301 -9.33398 -18.166 -14.001 -26.499s-10 -16.166 -16 -23.499c-2.66699 -4.66699 -6.33398 -8.66699 -11.001 -12h28c-6.66699 -7.33301 -14.334 -14.333 -23.001 -21h-73zM441.003 147.996c12 0 23 0.499023 33 1.49902
s19 3.16699 27 6.5c14.667 6 27 15 37 27c9.33301 13.333 16.333 30.666 21 51.999l2 14.5l2 15.5h-28c0.666992 8 1.16699 16.333 1.5 25s0.5 18 0.5 28v9h39v159h-39v19v2h27c-0.666992 16 -1.5 30.833 -2.5 44.5s-2.5 26.167 -4.5 37.5
c-0.666992 3.33301 -1.33398 6.5 -2.00098 9.5s-1.66699 6.16699 -3 9.5h-27c-4 13.333 -9 24 -15 32c-9.33301 12 -21.666 21 -36.999 27c-2 0.666992 -4.16699 1.33398 -6.5 2.00098s-4.5 1.33398 -6.5 2.00098h38c-14.667 3.33301 -30 5 -46 5h-39h-238h-39
c-0.666992 0 -1 -0.333008 -1 -1v-4h-65v-1v-62h65v-101h-22v-21h173v-159h-168v-62h17v-112v-4c0 -0.666992 0.333008 -1 1 -1h27h278z" />
    <glyph glyph-name="e" unicode="e" horiz-adv-x="840" 
d="M646 57l-34.0049 -0.00292969v-23c0 -11.333 -2 -19.333 -6 -24s-8.33301 -7.66699 -13 -9h-330c-22 0 -42.5 1.33301 -61.5 4s-36.167 7 -51.5 13c-12 4 -23.167 9.33301 -33.5 16s-20.166 14.334 -29.499 23.001h46l-13 14c-1.33301 1.33301 -2.16602 2.5 -2.49902 3.5
s-0.833008 1.83301 -1.5 2.5h-46c-9.33301 12.667 -17.333 26.667 -24 42s-12 32.666 -16 51.999h51c-4 19.333 -7 40 -9 62h-99l-2 28c-0.666992 9.33301 -1 19.333 -1 30l-1 5l1 37h78v20h-30l1 69c2 9.33301 5.33301 17.666 10 24.999c6.66699 11.333 15 20.333 25 27
s21 11.334 33 14.001l496 1c4 0 9.66699 -2 17 -6s11 -13.667 11 -29v-79c0 -9.33301 -1.66699 -16.666 -5 -21.999h29c-3.33301 -4.66699 -7 -7.66699 -11 -9s-7.66699 -2 -11 -2h-447v-9h-30c0 -5.33301 -0.166992 -11.333 -0.5 -18s-0.5 -13.667 -0.5 -21v-25l2 -18
c1.33301 -6 3 -12 5 -18h30c1.33301 -5.33301 3 -10 5 -14s4 -7.66699 6 -11c8 -10 18.333 -17.333 31 -22c6.66699 -2 14.334 -3.66699 23.001 -5s18.334 -2 29.001 -2h25c4 -0.666992 8.16699 -1 12.5 -1h13.5h310c4.66699 -1.33301 8.33398 -3.66602 11.001 -6.99902h-38
c3.33301 -2.66699 6 -6.16699 8 -10.5s3 -10.166 3 -17.499v-66h35v-20zM-21.0049 789.997c0 16 3.5 26.001 10.5 30.001s12.833 6 17.5 6h525c4 0 9.66699 -2 17 -6s11 -13.667 11 -29v-4h49v-20h-49v-55c0 -1.33301 -0.166992 -2.5 -0.5 -3.5s-0.5 -2.16699 -0.5 -3.5h50
c-1.33301 -12 -5.33301 -19.667 -12 -23s-11.667 -5 -15 -5l-562 1c-4 0 -9.33301 1.5 -16 4.5s-10.667 10.5 -12 22.5h-12c-0.666992 1.33301 -1 3.66602 -1 6.99902v55h62v20h-62v3z" />
    <glyph glyph-name="f" unicode="f" horiz-adv-x="840" 
d="M-42 788c0 16 3.5 26.001 10.5 30.001s12.833 6 17.5 6h525c4 0 9.66699 -1.83301 17 -5.5s11 -13.5 11 -29.5v-3h49v-21h-49v-55c0 -1.33301 -0.166992 -2.33301 -0.5 -3s-0.5 -1.66699 -0.5 -3h50c-1.33301 -12.667 -5.33301 -20.5 -12 -23.5s-11.667 -4.5 -15 -4.5
h-562c-4 0 -9.33301 1.5 -16 4.5s-10.667 10.833 -12 23.5h-12c-0.666992 1.33301 -1 3.66602 -1 6.99902v54h62v21h-62v2zM608 375.001c0 -15.333 -3.50098 -24.8311 -10.501 -28.498s-12.5 -5.5 -16.5 -5.5h-375h-73v-30c0 -9.33301 -0.166992 -20.166 -0.5 -32.499
s-0.5 -25.166 -0.5 -38.499h-42v-95h42v-21h-15v-62h15v-28c0 -15.333 -3.66699 -25 -11 -29s-13 -6 -17 -6h-39c-4 0 -9.66699 2 -17 6s-11 13.667 -11 29v28h-85l1 62h74v21h-43l1 95h102l1 62h-30v102h-72v16c0 1.33301 0.166992 2.16602 0.5 2.49902
s0.5 1.16602 0.5 2.49902h29c2 6.66699 5 13.667 9 21c7.33301 12 17 21.667 29 29s25.333 11.666 40 12.999l487 1c4.66699 -0.666992 10.334 -2.83398 17.001 -6.50098s10 -13.167 10 -28.5v-29h-26v-21h26v-29z" />
    <glyph glyph-name="g" unicode="g" horiz-adv-x="915" 
d="M598 43c-20 -29.333 -48.6689 -43.9873 -86.002 -43.9873h-288c-43.333 0 -81 5.66699 -113 17c-21.333 8 -40 19 -56 33h50c-8.66699 7.33301 -15.667 14.666 -21 21.999c-5.33301 6 -9.83301 12.333 -13.5 19s-7.16699 13.667 -10.5 21h-50l-9 21h62l-6 18
c-2 6 -3.66699 12.333 -5 19c-4 18 -7 37.333 -9 58h-62c-1.33301 10 -2.16602 20.167 -2.49902 30.5s-0.833008 21.166 -1.5 32.499h27c0 3.33301 -0.166992 7 -0.5 11s-0.5 8 -0.5 12v78h-26v120c0 10.667 0.166992 21 0.5 31s0.833008 19.667 1.5 29h15
c0.666992 11.333 1.66699 22.166 3 32.499s2.66602 20.166 3.99902 29.499h-14c0.666992 3.33301 1.16699 6.66602 1.5 9.99902s0.833008 6.66602 1.5 9.99902c5.33301 25.333 14 48.666 26 69.999h97c4.66699 9.33301 10.667 18.666 18 27.999
c10.667 13.333 23 24.666 37 33.999h-97c11.333 8.66699 24.666 16 39.999 22c32 11.333 69.667 17 113 17h365c4 0 9.5 -2 16.5 -6s10.5 -13.667 10.5 -29v-4h66v-62h-88v-12c0 -16 -3.66699 -25.833 -11 -29.5s-13 -5.5 -17 -5.5h-337h-88
c-10.667 0 -20.167 -0.666992 -28.5 -2s-16.166 -3 -23.499 -5c-12.667 -5.33301 -22.667 -12.666 -30 -21.999c-1.33301 -2 -2.5 -4.16699 -3.5 -6.5s-2.16699 -4.83301 -3.5 -7.5h289c-4 -8 -7 -18 -9 -30c-1.33301 -5.33301 -2.16602 -10.5 -2.49902 -15.5
s-0.833008 -10.5 -1.5 -16.5h-251c-0.666992 -6.66699 -1 -13.5 -1 -20.5v-22.5v-116h49v-116v-6h-69c0 -26.667 1.33301 -47.667 4 -63h70c0 -2.66699 0.333008 -4.66699 1 -6c2.66699 -18 8 -32.667 16 -44c8 -10.667 18 -18 30 -22c12 -4.66699 29.333 -7 52 -7h61h219
h61c12 0 20.333 3.66699 25 11c2 3.33301 4 8.66602 6 15.999s3 18.666 3 33.999c-0.666992 1.33301 -1 3 -1 5v13h-178c0 8 -0.166992 17.667 -0.5 29s-0.5 22.666 -0.5 33.999h144c0 7.33301 -0.166992 14.666 -0.5 21.999s-0.5 13.666 -0.5 18.999v18h-26h-223
c-4 0 -9.5 2 -16.5 6s-10.5 14 -10.5 30v6h21v21h-48v49c0 16 3.66699 26 11 30s13 6 17 6h305c6.66699 0 14.167 -2.66699 22.5 -8s12.5 -17.333 12.5 -36v-41h153v-122h-174v-63h70v-42c0 -19.333 -1 -37 -3 -53h-84l-3 -21h168c-2 -13.333 -4.66699 -25 -8 -35
s-7.33301 -19 -12 -27h-137c-1.33301 -1.33301 -2.66602 -3.33301 -3.99902 -6z" />
    <glyph glyph-name="h" unicode="h" horiz-adv-x="885" 
d="M690 34c0 -15.333 -3.66699 -25 -11 -29s-13.333 -6 -18 -6h-75c-4 0 -9.66699 2 -17 6s-11 13.667 -11 29v51h-94v105h110v62h-32v90h-18h-361h-42v-90h42v-105h-57v-62h57v-51c0 -15.333 -3.5 -25 -10.5 -29s-12.833 -6 -17.5 -6h-75c-4 0 -9.66699 2 -17 6
s-11 13.667 -11 29v51h-17v62v43h32v62h-32v160h220v20h-220v102h40v62h-105v116h121v62h-56v15c0 15.333 3.66699 25 11 29s13.333 6 18 6h64c4 0 9.66699 -2 17 -6s11 -13.667 11 -29v-15h27v-62h-55v-21h21v-95h34v-62h-42v-44h42h336h43v44h39v62h-39v116h55v62h-55v15
c0 15.333 3.5 25 10.5 29s12.833 6 17.5 6h64c4 0 9.66699 -2 17 -6s11 -13.667 11 -29v-15h28v-62h-55v-21h20v-95h35v-62h-43v-102h43v-20h-9v-160h9v-105h-58v-62h58v-51v0z" />
    <glyph glyph-name="i" unicode="i" horiz-adv-x="358" 
d="M159 34c0 -15.333 -3.66602 -25 -10.999 -29s-13 -6 -17 -6h-80c-4 0 -9.66699 2 -17 6s-11 13.667 -11 29v43h26v62h-92v43h83v62h-17v180h34v102h-34v62v95h45v21h-45v62h23v23c0 15.333 4.16699 25 12.5 29s15.166 6 20.499 6h64c4 0 9.66699 -2 17 -6
s11 -13.667 11 -29v-23h-29v-62h94v-21v-95h-103v-62h38v-123h-18v-159h18v-62h-18v-43h18v-62h-12v-43v0z" />
    <glyph glyph-name="j" unicode="j" horiz-adv-x="798" 
d="M499 68c-19.333 -23.333 -44.335 -40.668 -75.002 -52.001c-32 -11.333 -69.667 -17 -113 -17h-292c-4 0 -9.66699 2 -17 6s-11 13.667 -11 29v34h-21v45c0 8.66699 1.66699 15.667 5 21h31c3.33301 6 7.33301 9.83301 12 11.5s8.66699 2.5 12 2.5h277h31
c22 0 39 2.33301 51 7c13.333 4 23.333 11.333 30 22c1.33301 1.33301 2 2.33301 2 3h-194c6 10 10.667 23.667 14 41c1.33301 4 2 8.16699 2 12.5s0.333008 8.83301 1 13.5h185c0.666992 7.33301 1.16699 15 1.5 23s0.5 16.667 0.5 26v121h-284v22h283v108h-20v127h-46
c-14 0 -29.833 0.166992 -47.5 0.5s-35.5 0.5 -53.5 0.5c-43.333 0 -92.333 0.333008 -147 1c-4.66699 0 -10.667 1.83301 -18 5.5s-11 13.167 -11 28.5v28h71v51c0 4.66699 0.666992 9.66699 2 15h-18c2.66699 8.66699 6.83398 14.167 12.501 16.5s10.167 3.5 13.5 3.5h329
c12.667 0 22 -2 28 -6s10.333 -8.66699 13 -14h17c2 -5.33301 3 -10.333 3 -15v-73h-37v-102h-11v-67h48v-108v-22v-104c0 -24 -1 -46 -3 -66h-19c-2 -25.333 -5 -47.666 -9 -66.999h85c-0.666992 -1.33301 -1 -3 -1 -5s-0.333008 -3.66699 -1 -5
c-3.33301 -13.333 -6.66602 -25.333 -9.99902 -36h-89c-8 -24 -19 -45 -33 -63l-3 -3h24v0z" />
    <glyph glyph-name="k" unicode="k" horiz-adv-x="867" 
d="M642 20c-1.33301 -14 -9.00098 -21.002 -23.001 -21.002h-92c-9.33301 0 -16.333 2 -21 6c-4 4 -7.33301 8.66699 -10 14l-5 8h-17l-38 67h32l-12 22h-33l-58 102h18l-38 66h-17l-6 9c-11.333 20 -22.333 33 -33 39c-10.667 6.66699 -28.667 10 -54 10h-46h-55h-46v-58
h121v-66h-107v-102h240v-22h-242v-60c0 -1.33301 -0.166992 -2.5 -0.5 -3.5s-0.5 -2.16699 -0.5 -3.5h35c-1.33301 -12 -5.33301 -19.667 -12 -23s-12 -5 -16 -5h-74c-4 0 -9.33301 1.66699 -16 5s-10.667 11 -12 23h-17c-0.666992 1.33301 -1 3.66602 -1 6.99902v60v22v102
h18v66h-18v109h24v22h-24v236h24v46h-24v67h18v25c0 16 3.66699 25.833 11 29.5s13 5.5 17 5.5h74c4.66699 0 10.5 -1.83301 17.5 -5.5s10.5 -13.5 10.5 -29.5v-25h-30v-67h169v-112h-175v-95h36h56h36c6.66699 0 12.667 0.166992 18 0.5s10.333 0.833008 15 1.5
c8.66699 1.33301 15.334 3.33301 20.001 6s10 7.33398 16 14.001c3.33301 3.33301 6.16602 7 8.49902 11l8.5 14l65 114h24l26 46h-24l38 67h17l23 40c2.66699 5.33301 6.33398 10 11.001 14c4 4 11.333 6 22 6h82c12.667 0 20 -5.66699 22 -17c2 -9.33301 1 -17.333 -3 -24
l-11 -19h-30l-38 -67h30l-26 -46h-7l-38 -66h-28l-52 -92l-27 -45c-3.33301 -5.33301 -6.5 -10 -9.5 -14s-6.16699 -8 -9.5 -12l3.5 -3.5l3.5 -3.5h35l10 -10.5l10 -11.5h-46l16.5 -23.5c5.66699 -8.33301 11.167 -17.166 16.5 -26.499l34 -59h46l39 -66h-21l60 -102h20
l12 -22h-34l29 -51c2.66699 -3.33301 4 -8.66602 4 -15.999h34c0 -1.33301 0.166992 -2.5 0.5 -3.5s0.5 -2.16699 0.5 -3.5z" />
    <glyph glyph-name="l" unicode="l" horiz-adv-x="815" 
d="M607 34c0 -15.333 -3.66504 -24.999 -10.998 -28.999s-13 -6 -17 -6h-275c-44 0 -81.333 5.66699 -112 17c-10.667 3.33301 -21.334 8.33301 -32.001 15h-55c-12 8 -22 15.333 -30 22h32c-3.33301 3.33301 -6.33301 6.5 -9 9.5s-5.33398 6.16699 -8.00098 9.5
c-8.66699 10.667 -16.167 23 -22.5 37s-11.833 29.333 -16.5 46h-111c-0.666992 2.66699 -1.33398 5 -2.00098 7s-1.33398 4.66699 -2.00098 8c-1.33301 7.33301 -2.66602 15.5 -3.99902 24.5l-4 27.5h105c-2 13.333 -3.33301 27.5 -4 42.5s-1 31.167 -1 48.5v17h-45v22h47
v170h-28v67h17v45h-71v67h83v66h-29v22c0 16 3.66699 25.833 11 29.5s13.333 5.5 18 5.5h68c4.66699 0 10.5 -1.83301 17.5 -5.5s10.5 -13.5 10.5 -29.5v-22h23v-66v-67v-64h379v-29h-379v-245c0 -30.667 2 -55.334 6 -74.001h-19v-1c2.66699 -17.333 8 -32 16 -44
c4 -5.33301 8.33301 -9.83301 13 -13.5s10.334 -6.5 17.001 -8.5h19c12 -4.66699 29.333 -7 52 -7h31h294c4 0 9.66699 -2 17 -6s11 -13.667 11 -29v-79v0z" />
    <glyph glyph-name="m" unicode="m" horiz-adv-x="1129" 
d="M911 34c0 -15.333 -3.67871 -25 -11.0117 -29s-13 -6 -17 -6h-68c-4.66699 0 -10.5 2 -17.5 6s-10.5 13.667 -10.5 29v13h18v66h-18v23h33v101h-33v67h33v108h10v22h-43v201v2h-5c-1.33301 0 -2.33301 -0.666992 -3 -2l-21 -52v21h-19l-69 -170h73l-53 -130h-71l-27 -67
h27l-11 -26c-7.33301 -21.333 -14.333 -39.333 -21 -54c-8 -15.333 -16.333 -27.666 -25 -36.999c-2.66699 -2.66699 -4.66699 -5 -6 -7h-41c-4 -3.33301 -8 -6.33301 -12 -9s-8.33301 -4.66699 -13 -6c-12 -4 -25.333 -6 -40 -6c-16 0 -29.333 2 -40 6
c-4.66699 1.33301 -9.16699 3.33301 -13.5 6s-8.16602 5.66699 -11.499 9h31c-1.33301 2 -3.33301 4.33301 -6 7c-2 2.66699 -4 5.16699 -6 7.5s-4 5.16602 -6 8.49902h-2c-4 6 -8 13 -12 21c-7.33301 13.333 -14.666 31.333 -21.999 54l-10 26h-161l-27 67h165l-44 108h9
l-9 22h-43l-81 200c-0.666992 2 -1.33398 3 -2.00098 3h-5v-2v-53l-9 22h-20v-170h29v-130h-44v-67h44v-203c0 -15.333 -3.66699 -25 -11 -29s-13 -6 -17 -6h-44c-4 0 -9.66699 2 -17 6s-11 13.667 -11 29v13h-43v89v101v67v108h43v22h-43v170h27v67h-78v24v22h78
c1.33301 14 2.83301 26.5 4.5 37.5s4.16699 20.5 7.5 28.5h-27c0.666992 1.33301 1.33398 2.83301 2.00098 4.5s1.33398 3.16699 2.00098 4.5c12 21.333 34.667 32 68 32h52c14.667 0 26.334 -1.33301 35.001 -4c11.333 -3.33301 20.333 -8.33301 27 -15
c5.33301 -6 10.666 -13.333 15.999 -22h41c0.666992 -1.33301 1.33398 -2.5 2.00098 -3.5s1.33398 -2.16699 2.00098 -3.5c3.33301 -6 6.33301 -12.833 9 -20.5s5.33398 -16.167 8.00098 -25.5l6 -13h-51l19 -46h50l26 -67h-28l68 -170h28l59 -146
c0.666992 -2.66699 1.66699 -4 3 -4h10c1.33301 0 2.33301 1.33301 3 4l9 22l2 -6h29l43 108h10l9 22h-144l68 170h128l27 67h-188l18 46h187l6 13c2.66699 9.33301 5.33398 17.833 8.00098 25.5s5.66699 14.5 9 20.5c0.666992 1.33301 1.33398 2.5 2.00098 3.5
s1.33398 2.16699 2.00098 3.5h-27c4.66699 8.66699 10 16 16 22c8 6.66699 17 11.667 27 15c8.66699 2.66699 20 4 34 4h50c33.333 0 56 -10.667 68 -32c0.666992 -1.33301 1.33398 -2.83301 2.00098 -4.5s1.33398 -3.16699 2.00098 -4.5h41
c6.66699 -16.667 10.334 -38.667 11.001 -66h-50c0 -3.33301 0.166992 -6.83301 0.5 -10.5s0.5 -7.5 0.5 -11.5v-24h50v-67h-29v-170h29v-130v-67v-101h-41v-23h41v-66h-19v-13v0z" />
    <glyph glyph-name="n" unicode="n" horiz-adv-x="946" 
d="M665 28c-14 -19.333 -35.6689 -28.9971 -65.002 -28.9971h-43c-14 0 -25.333 1 -34 3c-11.333 2 -20.333 5.66699 -27 11c-8 4.66699 -15.333 12 -22 22c-8 10 -16 22.333 -24 37l-1 3h41l-62 110h-153l-107 190h155l-14 24h-21l-104 185h-21l-29 50
c-0.666992 0 -1 0.666992 -1 2c0 0.666992 -0.333008 1 -1 1h-1h-5v-2v-260h-22v-118h22v-182h-36v-24h36v-17c0 -15.333 -3.66699 -25 -11 -29s-13 -6 -17 -6h-44c-4.66699 0 -10.667 2 -18 6s-11 13.667 -11 29v17h-45v24h34v110h-34v214h22v185h-22v72h15v39v11h-15
c0.666992 30 4.33398 54 11.001 72h32c2.66699 6.66699 5.66699 12.667 9 18c15.333 18.667 37.333 28 66 28h42c7.33301 0 13.833 -0.166992 19.5 -0.5s11.167 -0.833008 16.5 -1.5c10.667 -2 20 -6 28 -12c6.66699 -4.66699 13.667 -12.334 21 -23.001l6 -9h-42
c2.66699 -4 5.16699 -8.16699 7.5 -12.5l7.5 -14.5l26 -45h234l28 -50h-239l41 -72h47l117 -209h-22l66 -118h-30l38 -68c0.666992 -2 1.66699 -3 3 -3h5v2v69h6l38 -68c0.666992 -2 1.33398 -3 2.00098 -3h1h6v2v211h22v185h-22v72h14v50h-14v72h31v11
c0 16 3.66699 25.833 11 29.5s13 5.5 17 5.5h58c4 0 9.5 -1.83301 16.5 -5.5s10.5 -13.5 10.5 -29.5v-11h-42v-72h88v-50h-93v-72h47v-209h-22v-118h-30v-72h52v-57c0 -20.667 -1 -38.334 -3 -53.001h-40c-1.33301 -4.66699 -2.5 -9 -3.5 -13s-2.16699 -7.66699 -3.5 -11h11
c-3.33301 -10.667 -7 -18.334 -11 -23.001z" />
    <glyph glyph-name="o" unicode="o" horiz-adv-x="947" 
d="M599 37c-6 -4 -12.498 -7.83105 -19.498 -11.498s-14.167 -6.83398 -21.5 -9.50098c-32 -11.333 -69.667 -17 -113 -17h-222c-43.333 0 -81 5.66699 -113 17c-7.33301 2.66699 -14.333 5.83398 -21 9.50098l-20 11.5h34c-7.33301 5.33301 -14 10.666 -20 15.999
s-11.667 11.666 -17 18.999c-4.66699 5.33301 -8.83398 11 -12.501 17s-7.16699 12.667 -10.5 20h-33c-2 4 -3.83301 8 -5.5 12s-3.16699 8 -4.5 12h7l-6 18c-2 6 -3.66699 12.333 -5 19c-2.66699 10.667 -4.83398 22.167 -6.50098 34.5s-3.16699 25.5 -4.5 39.5h-6
c-2 20.667 -3 43.667 -3 69v3h11v118h-11v24h37v53c0 48.667 3.66699 92.334 11 131.001h-37c1.33301 5.33301 2 9 2 11c6 24 13.333 44.333 22 61h10c3.33301 7.33301 6.83301 14 10.5 20s7.5 11.667 11.5 17c2 2.66699 4 5 6 7l6 6h55c17.333 18 39 32.333 65 43
c32 11.333 69.667 17 113 17h178c43.333 0 81 -5.66699 113 -17c31.333 -12 57.333 -30.667 78 -56c8.66699 -10.667 16 -23 22 -37h-36c9.33301 -18 16.333 -38.333 21 -61c0.666992 -1.33301 1 -3 1 -5s0.333008 -4 1 -6h36c7.33301 -38.667 11 -82.334 11 -131.001v-53
h-17v-24h17v-121c0 -28 -1 -54 -3 -78s-5.33301 -45.667 -10 -65c-1.33301 -6.66699 -2.83301 -13 -4.5 -19s-3.5 -12 -5.5 -18h-33l-9 -24h32c-7.33301 -14.667 -15 -27.334 -23 -38.001c-5.33301 -6.66699 -11 -12.667 -17 -18s-12.667 -10.666 -20 -15.999h-21z
M520.002 155.002c12 4 22.002 11.334 30.002 22.001c7.33301 10.667 12.666 25.334 15.999 44.001c0.666992 3.33301 1.16699 7 1.5 11s0.833008 8 1.5 12h30c2 14.667 3 31.667 3 51v21h-253v142h253v70c0 29.333 -2 54 -6 74c-1.33301 8 -3.16602 15.333 -5.49902 22
s-5.16602 12.667 -8.49902 18h-37c0 0.666992 -0.666992 2.33398 -2 5.00098c-8 10 -18 17.333 -30 22c-6.66699 2 -14.334 3.66699 -23.001 5s-18.334 2 -29.001 2h-36h-197h-36c-10.667 0 -20.167 -0.666992 -28.5 -2s-16.166 -3 -23.499 -5c-12 -4.66699 -22 -12 -30 -22
c-1.33301 -2.66699 -2 -4.33398 -2 -5.00098h36c-6 -8.66699 -10.667 -22 -14 -40c-4 -20 -6 -44.667 -6 -74v-212h-71v-21v-27c0 -8.66699 0.666992 -16.667 2 -24h72c0 -8.66699 1 -16.334 3 -23.001c3.33301 -18.667 8.66602 -33.334 15.999 -44.001
c8 -10.667 18 -18 30 -22c12 -4.66699 29.333 -7 52 -7h7h226h7c21.333 0 38.666 2.33301 51.999 7z" />
    <glyph glyph-name="p" unicode="p" horiz-adv-x="891" 
d="M647 424c0 -0.666992 -0.339844 -1.33301 -1.00684 -2c-4 -7.33301 -7.66699 -13.333 -11 -18l-7.5 -9.5c-2.33301 -3 -5.16602 -5.83301 -8.49902 -8.5l-3 -3l-9.5 -7.5l-9.5 -7.5h-32c-18 -11.333 -39 -19.333 -63 -24h31c-14 -2 -29 -3 -45 -3l-342 -1v-252v-50v-4
c0 -15.333 -3.66699 -25 -11 -29s-13 -6 -17 -6h-68c-4 0 -9.83301 2 -17.5 6s-11.5 13.667 -11.5 29v4h-24v50h12v72h28v184h-40v24v86c0 1.33301 0.166992 2.83301 0.5 4.5s0.5 3.16699 0.5 4.5s0.333008 2 1 2c0 2 0.666992 4.33301 2 7v1
c0.666992 1.33301 1.16699 2.16602 1.5 2.49902s0.833008 1.16602 1.5 2.49902l1 1l3 3l2 2c0.666992 0 1 0.166992 1 0.5s0.333008 0.5 1 0.5s1.16699 0.166992 1.5 0.5s0.833008 0.5 1.5 0.5h64c2.66699 1.33301 6.33398 2 11.001 2h371h64c25.333 0 43.333 7.33301 54 22
c8 10.667 13 26.667 15 48h-142c0.666992 4 1 7.83301 1 11.5v12.5c0 33.333 -5.33301 57.333 -16 72c-2.66699 3.33301 -5.5 6.16602 -8.5 8.49902s-6.16699 4.5 -9.5 6.5h131c-5.33301 2 -10.833 3.66699 -16.5 5s-12.167 2 -19.5 2h-53h-382
c-3.33301 0 -7.66602 1 -12.999 3s-9.66602 6.66699 -12.999 14h-90c-0.666992 2 -1.33398 4.5 -2.00098 7.5s-1 6.16699 -1 9.5v55h61v24c0 16 3.83301 25.833 11.5 29.5s13.5 5.5 17.5 5.5h438c65.333 0 113 -19.667 143 -59h-50
c0.666992 -1.33301 1.33398 -2.16602 2.00098 -2.49902s1.33398 -1.16602 2.00098 -2.49902c6.66699 -9.33301 12.5 -19.5 17.5 -30.5s9.5 -23.167 13.5 -36.5h108c1.33301 -4 2.33301 -8 3 -12l2 -12h-88c2.66699 -13.333 4.66699 -27.166 6 -41.499s2 -29.5 2 -45.5v-12
c0 -4 -0.333008 -8 -1 -12h31c-1.33301 -13.333 -2.66602 -25.833 -3.99902 -37.5s-3.33301 -23.167 -6 -34.5c-1.33301 -8 -3.16602 -15.667 -5.49902 -23s-4.83301 -14.333 -7.5 -21c-0.666992 0 -1 -0.333008 -1 -1c-2 -5.33301 -4.66699 -11 -8 -17z" />
    <glyph glyph-name="q" unicode="q" horiz-adv-x="1071" 
d="M835 34c0 -15.333 -3.49805 -25.002 -10.498 -29.002s-12.833 -6 -17.5 -6h-540c-44 0 -81.333 5.66699 -112 17c-13.333 4.66699 -26 11 -38 19h-46c-7.33301 5.33301 -14.5 11 -21.5 17s-13.167 12.667 -18.5 20c-4 5.33301 -7.66699 10.833 -11 16.5l-10 17.5h35
c-5.33301 9.33301 -9.66602 19.333 -12.999 30s-6.66602 22 -9.99902 34c0 1.33301 -0.166992 2.66602 -0.5 3.99902s-0.5 2.66602 -0.5 3.99902h-69c-1.33301 8 -2.5 16 -3.5 24s-2.16699 16.667 -3.5 26h55c-1.33301 13.333 -2.33301 27 -3 41s-1 28.667 -1 44v36h-22v162
c0 43.333 3 82 9 116h22l2 13.5c0.666992 4.33301 1.66699 8.5 3 12.5c2.66699 15.333 7.33398 30.666 14.001 45.999h-22c4 10 8.5 19.333 13.5 28s10.167 16.667 15.5 24c20.667 25.333 46.667 44 78 56c1.33301 0.666992 2.66602 1 3.99902 1s2.66602 0.333008 3.99902 1
c6.66699 2.66699 14.334 5 23.001 7h1c3.33301 0.666992 7 1.33398 11 2.00098s8.33301 1.33398 13 2.00098c1.33301 0 2.33301 0.166992 3 0.5s1.66699 0.5 3 0.5c3.33301 0.666992 6.66602 1 9.99902 1s6.66602 0.333008 9.99902 1c5.33301 0.666992 10.333 1 15 1h15h244
h15c4.66699 0 9.66699 -0.333008 15 -1c3.33301 -0.666992 6.66602 -1 9.99902 -1s6.66602 -0.333008 9.99902 -1c1.33301 0 2.33301 -0.166992 3 -0.5s1.66699 -0.5 3 -0.5c4.66699 -0.666992 9 -1.33398 13 -2.00098l12 -2c4 -1.33301 8 -2.5 12 -3.5
s7.66699 -2.16699 11 -3.5h-28c1.33301 -0.666992 2.83301 -1 4.5 -1s3.16699 -0.333008 4.5 -1c31.333 -12 57.333 -30.667 78 -56c5.33301 -7.33301 10.5 -15.333 15.5 -24s9.5 -18 13.5 -28h27c6 -14.667 11 -30 15 -46l2 -12.5l2 -13.5h-36
c2.66699 -17.333 4.66699 -35.666 6 -54.999s2 -39.666 2 -60.999v-2h37v-24h-32v-136h32v-36c0 -15.333 -0.333008 -30 -1 -44s-1.66699 -27.667 -3 -41h-28c-1.33301 -9.33301 -2.5 -18 -3.5 -26s-2.16699 -16 -3.5 -24h27c0 -1.33301 -0.166992 -2.66602 -0.5 -3.99902
s-0.5 -2.66602 -0.5 -3.99902c-1.33301 -3.33301 -2.33301 -7 -3 -11s-1.66699 -7.66699 -3 -11h35h79c4.66699 0 10.5 -2 17.5 -6s10.5 -13.667 10.5 -29v-7h-57v-71h57v-1zM585.002 348.998l-21.998 -0.000976562v136h-274v24h261v19c0 29.333 -2 54 -6 74
c-0.666992 4.66699 -1.5 9.16699 -2.5 13.5s-2.16699 8.16602 -3.5 11.499h35c-2.66699 7.33301 -6 14 -10 20c-6.66699 9.33301 -16.667 16.666 -30 21.999c-6.66699 2 -14.334 3.66699 -23.001 5s-18.334 2 -29.001 2h-21h-212h-22c-10.667 0 -20.167 -0.666992 -28.5 -2
s-15.833 -3 -22.5 -5c-13.333 -5.33301 -23.333 -12.666 -30 -21.999l-5.5 -9.5c-1.66699 -3 -3.16699 -6.5 -4.5 -10.5h-37c-1.33301 -3.33301 -2.5 -7.16602 -3.5 -11.499s-2.16699 -8.83301 -3.5 -13.5c-1.33301 -10 -2.5 -21.167 -3.5 -33.5s-1.5 -25.833 -1.5 -40.5
v-19h37v-24h-32v-136h191v-54c0 -13.333 0.333008 -25.5 1 -36.5s1.66699 -21.167 3 -30.5h-187c0.666992 -1.33301 1 -3.66602 1 -6.99902c4 -18 9.33301 -32.333 16 -43h28l1 -1c6.66699 -10.667 16.667 -18 30 -22c12 -4.66699 29 -7 51 -7h35h199h34
c22.667 0 40 2.33301 52 7c12 4 22 11.333 30 22l1 1h-145c3.33301 5.33301 6.5 11.5 9.5 18.5s5.16699 15.167 6.5 24.5c0 1.33301 0.166992 2.5 0.5 3.5s0.5 2.16699 0.5 3.5h132c1.33301 9.33301 2.33301 19.5 3 30.5s1 23.167 1 36.5v54z" />
    <glyph glyph-name="r" unicode="r" horiz-adv-x="916" 
d="M699 19c-2 -13.333 -9.66504 -19.9961 -22.998 -19.9961h-93c-10 0 -17 2 -21 6c-4 3.33301 -7.66699 8 -11 14l-2 4h-16l-77 135h44l-14 25h-99l-66 117h94l-23 40h-39h-210v-40h-30v-117h30v-25h-30v-124c0 -2 -0.166992 -4 -0.5 -6s-0.5 -3.66699 -0.5 -5h30
c-2.66699 -10.667 -7 -17.334 -13 -20.001s-10.667 -4 -14 -4h-76c-3.33301 0 -8.16602 1.33301 -14.499 4s-10.5 9.33398 -12.5 20.001h-17c0 1.33301 -0.166992 3 -0.5 5s-0.5 4 -0.5 6v124h44v25h-44v117h39v72h-39v82c0 13.333 3.66699 23 11 29h71
c3.33301 2.66699 6.5 4.16699 9.5 4.5s5.5 0.5 7.5 0.5h365h71c22.667 0 39.334 6.33301 50.001 19h-244l3 3c9.33301 14.667 14.666 37.667 15.999 69h213v3c0 30 -4.66699 52.667 -14 68h-39l-2 4c-10 14.667 -28 22 -54 22h-43h-392c-4.66699 0 -10.667 1.83301 -18 5.5
s-11 13.167 -11 28.5v12h35v67v5h-34c1.33301 13.333 5.33301 21.666 12 24.999s12 5 16 5h411c46.667 0 84 -10 112 -30h51c13.333 -8.66699 25 -20 35 -34c7.33301 -10.667 14.333 -23.334 21 -38.001h-44c4 -10.667 7.66699 -21.834 11 -33.501
s5.66602 -24.167 6.99902 -37.5h44c1.33301 -10.667 2.5 -21.667 3.5 -33s1.5 -23.333 1.5 -36v-3h-67c0 -13.333 -0.5 -25.833 -1.5 -37.5s-2.16699 -23.167 -3.5 -34.5h189c-0.666992 -8 -2.33398 -16 -5.00098 -24h-179c-6.66699 -30.667 -17.667 -57 -33 -79
c-9.33301 -12 -20 -22.667 -32 -32h56c-22.667 -15.333 -49.334 -25 -80.001 -29l25 -43h-30l68 -117h30l14 -25h-30l68 -115c2.66699 -4.66699 4 -11.334 4 -20.001h30v-4v0z" />
    <glyph glyph-name="s" unicode="s" horiz-adv-x="851" 
d="M560 43c-26 -28.667 -63.001 -42.9941 -111.001 -42.9941h-419c-4.66699 0 -10.667 1.83301 -18 5.5s-11 13.167 -11 28.5v9h-32v71c0 10.667 2.33301 19 7 25h45c3.33301 4 7 6.5 11 7.5s7.33301 1.5 10 1.5h382h45c9.33301 0 15.833 1.33301 19.5 4
s6.16699 5.66699 7.5 9c0 0.666992 0.166992 1 0.5 1s0.5 0.333008 0.5 1h-180c5.33301 10.667 8 24 8 40v78h192v8c0 12 -1.16699 21.667 -3.5 29s-5.16602 13 -8.49902 17s-7 6.5 -11 7.5s-8 1.5 -12 1.5h-57h-242c-11.333 0 -22.5 0.666992 -33.5 2
s-21.833 3.66602 -32.5 6.99902h-57c-10 3.33301 -19.5 8 -28.5 14s-17.167 14 -24.5 24c-12.667 17.333 -22.667 41.333 -30 72h49c-1.33301 4 -2.33301 8 -3 12l-2 12h-48c-1.33301 10 -2.5 20.333 -3.5 31s-1.5 21.667 -1.5 33v8h17v68v4h-49v1
c0 25.333 3 48.666 9 69.999h84c3.33301 12.667 7.33301 24.667 12 36s10.667 21.666 18 30.999c0.666992 1.33301 1.33398 2.16602 2.00098 2.49902s1.33398 1.16602 2.00098 2.49902h-52c26 33.333 64.667 50 116 50h363c4 0 9.66699 -1.83301 17 -5.5
s11 -13.167 11 -28.5v-16h68v-64v-8h-42c-1.33301 -11.333 -5.33301 -18.5 -12 -21.5s-11.667 -4.5 -15 -4.5h-365h-42c-8.66699 0 -15 -1.33301 -19 -4s-6.66699 -5.66699 -8 -9c-4.66699 -8.66699 -7.33398 -19 -8.00098 -31h191v-1c-0.666992 -2 -1 -5.33301 -1 -10v-62
h-198v-12c0 -12 1.16699 -21.667 3.5 -29s5.16602 -13 8.49902 -17s7 -6.5 11 -7.5s7.66699 -1.5 11 -1.5h50h250c13.333 0 27.333 -1.66699 42 -5h49c19.333 -4 36.666 -12 51.999 -24h-67c10 -8 18.333 -16.667 25 -26c16.667 -23.333 28 -51.333 34 -84h67
c1.33301 -10.667 2.5 -21.5 3.5 -32.5s1.5 -22.833 1.5 -35.5v-4h-28v-84c0 -6 -0.166992 -11.833 -0.5 -17.5s-0.833008 -11.167 -1.5 -16.5h29c-0.666992 -4 -1.16699 -8 -1.5 -12s-1.16602 -8 -2.49902 -12h-88c-6 -32.667 -17 -60.334 -33 -83.001
c-1.33301 -2.66699 -3 -5 -5 -7s-3.66699 -4 -5 -6h88v0z" />
    <glyph glyph-name="t" unicode="t" horiz-adv-x="930" 
d="M662 712c0 -8 -1.16699 -14.5 -3.5 -19.5s-5 -8.66699 -8 -11s-6.16699 -3.83301 -9.5 -4.5s-6 -1 -8 -1h-203h-54v-30h245v-24h-225v-141h34v-73h31v-110h-31v-24h-34v-72h34v-72v-96c0 -15.333 -3.5 -24.833 -10.5 -28.5s-12.5 -5.5 -16.5 -5.5h-37
c-4.66699 -0 -10.5 1.83301 -17.5 5.5s-10.5 13.167 -10.5 28.5v25h-118v71h85v72h-23v72h23v24h-79v110h79v73h-23v141h56v24h-56v30h-54h-203c-2 0 -4.66699 0.333008 -8 1s-6.5 2.16699 -9.5 4.5s-5.66699 6 -8 11s-3.5 11.5 -3.5 19.5v46h23v32
c0 15.333 3.83301 24.833 11.5 28.5s13.5 5.5 17.5 5.5h640c4 0 9.66699 -1.83301 17 -5.5s11 -13.167 11 -28.5v-32h-54v-46v0z" />
    <glyph glyph-name="u" unicode="u" horiz-adv-x="929" 
d="M598 23l-8.50488 -3.50098c-2.33301 -1 -4.83301 -2.16699 -7.5 -3.5c-30 -10.667 -67.667 -16 -113 -16h-189c-45.333 0 -82.666 5.33301 -111.999 16l-8.5 3.5c-2.33301 1 -4.83301 2.16699 -7.5 3.5h-37c-24.667 12 -45.334 28.333 -62.001 49
c-5.33301 6.66699 -10.333 14.334 -15 23.001h36c-5.33301 10.667 -10.166 21.834 -14.499 33.501s-8.16602 24.167 -11.499 37.5h-37v1c-0.666992 0.666992 -1 1.66699 -1 3c-2.66699 10 -4.66699 20.667 -6 32s-2.66602 23.333 -3.99902 36h18c-2 22.667 -3 46.667 -3 72
h-19v3v22h19v110h-19v72h37v142h-77v24h59v56h-19v51c0 15.333 3.66699 24.833 11 28.5s13.333 5.5 18 5.5h55c4 0 9.66699 -1.83301 17 -5.5s11 -13.167 11 -28.5v-51h37v-222h-37v-72h37v-148c0 -22.667 1 -42.334 3 -59.001h-37
c0 -3.33301 0.166992 -6.16602 0.5 -8.49902s0.833008 -4.83301 1.5 -7.5c2.66699 -18.667 8.33398 -33.667 17.001 -45c2 -2.66699 5 -6 9 -10h37c0.666992 0 1 -0.333008 1 -1c5.33301 -4 12 -7.66699 20 -11c6.66699 -2 14.167 -3.66699 22.5 -5s17.833 -2 28.5 -2h37
h180h37c10.667 0 20.167 0.666992 28.5 2s15.833 3 22.5 5c8 3.33301 14.667 7 20 11h-37l1 1c4 4 7 7.33301 9 10c7.33301 10.667 12.666 25.667 15.999 45c0.666992 2.66699 1.16699 5.16699 1.5 7.5s0.833008 5.16602 1.5 8.49902h18c2 16.667 3 36.334 3 59.001v13h-103
v25h103v110h-286v72h304v142h-37v24h19v56h-19v51c0 15.333 3.66699 24.833 11 28.5s13 5.5 17 5.5h56c4 0 9.66699 -1.83301 17 -5.5s11 -13.167 11 -28.5v-51h86v-56h-86v-24h37v-142h-37v-72h37v-110h-19v-22v-3h19c0 -25.333 -1 -49.333 -3 -72h-37
c-1.33301 -12.667 -2.83301 -24.667 -4.5 -36s-3.5 -22 -5.5 -32c0 -0.666992 -0.166992 -1.16699 -0.5 -1.5s-0.5 -0.833008 -0.5 -1.5h37v-1c-3.33301 -13.333 -7.16602 -25.833 -11.499 -37.5s-9.5 -22.834 -15.5 -33.501h-18c-2.66699 -4 -5.16699 -8 -7.5 -12
s-5.16602 -7.66699 -8.49902 -11c-15.333 -20 -36 -36.333 -62 -49h19v0z" />
    <glyph glyph-name="v" unicode="v" horiz-adv-x="1030" 
d="M788 796l-25 -61h31l-79 -196h-68l-64 -160h-94l63 160h47l25 62h59l53 134h-107l25 62h74l6 17l2 4h-73c5.33301 11.333 14 17 26 17h76c8 0 13.5 -1.66699 16.5 -5s4.83301 -6.33301 5.5 -9c0.666992 -0.666992 1 -1.66699 1 -3h34c0.666992 -6 -0.333008 -13 -3 -21
h-31v-1zM584 379l67 -0.00292969l-8 -20h-29l-41 -102h-87l-25 -62h116l-37 -91c-3.33301 -9.33301 -7 -17.666 -11 -24.999h-69c-5.33301 -11.333 -10.833 -20.833 -16.5 -28.5s-11.167 -14.167 -16.5 -19.5c-3.33301 -3.33301 -8.33301 -6.66602 -15 -9.99902
c-1.33301 -1.33301 -3.33301 -2.66602 -6 -3.99902h69c-13.333 -8 -26.666 -13 -39.999 -15c-14 2 -27.667 7 -41 15h-44c-25.333 14.667 -43 35.334 -53 62.001h151c-1.33301 2.66699 -2.66602 6 -3.99902 10c-0.666992 2 -2.33398 5.66699 -5.00098 11h-107
c-1.33301 1.33301 -2 2.66602 -2 3.99902l-37 91h-43l-67 164h96l-8 20h-96l-65 160h48l-25 62h58l-54 134h-106l-25 61v1h73c-2.66699 6.66699 -3.33398 13.667 -2.00098 21h-74v3c1.33301 2 3.33301 4.83301 6 8.5s8 5.5 16 5.5h74c12 0 20.667 -5.66699 26 -17h34
c0 -1.33301 0.666992 -2.66602 2 -3.99902l6 -17h-31l25 -62h31l79 -196h-56l64 -160h56l8 -20h-29l41 -102h29l25 -62c0 -0.666992 0.333008 -1.33398 1 -2.00098c0 -0.666992 0.333008 -1 1 -1l4 1l1 2l64 164h96zM459 194.997l-7 0.000976562
c0 -0.666992 0.333008 -1.33398 1 -2.00098c0 -0.666992 0.333008 -1 1 -1l4 1z" />
    <glyph glyph-name="w" unicode="w" horiz-adv-x="1442" 
d="M-22 797c-3.33301 9.33301 -4.00195 17.3311 -2.00195 23.998c0.666992 2.66699 2.5 5.83398 5.5 9.50098s8.16699 5.5 15.5 5.5h108c14.667 0 24 -7.33301 28 -22l1 -2h-37l22 -76h37l22 -75v-1h-37l22 -75h37l22 -77h-37l8 -25h36l34 -116h-18l22 -77h19l22 -77
c0.666992 -0.666992 1 -1.33398 1 -2.00098l4 1l1 2l7 19l5 -20l2 -2l4 1l1 2l24 76h-19l25 77h36l37 116h-37l8 25h37l24 77h-37l24 75v1h37l24 75h-37l25 78c5.33301 14.667 14.666 22 27.999 22h200c14.667 0 24 -7.33301 28 -22l1 -2h-124l22 -76h37l22 -75v-1h-37
l22 -75h37l22 -77h-37l8 -25h37l33 -116h-18l22 -77h19l22 -77c0.666992 -0.666992 1 -1.33398 1 -2.00098l4 1l1 2l7 19l6 -20c0 -0.666992 0.333008 -1.33398 1 -2.00098l4 1l1 2l24 76h-18l24 77h37l36 116h-133l8 25h133l24 77h-36l23 75v1h1h36l24 75h-37l25 78
c5.33301 14.667 14.666 22 27.999 22h111c7.33301 0 12.5 -1.66699 15.5 -5s5.16699 -6.66602 6.5 -9.99902v-9h-37c0 -5.33301 -1 -10.333 -3 -15l-19 -61h36l-24 -75v-1h-37l-24 -75h37l-25 -77h-37l-8 -25h121l-37 -116h-103l-24 -77h18l-33 -104h-37l-23 -71h37l-4 -10
c-7.33301 -19.333 -15.333 -35.666 -24 -48.999h-18c-3.33301 -5.33301 -6.66602 -10 -9.99902 -14s-6.66602 -7.66699 -9.99902 -11c-2 -1.33301 -4.16699 -3 -6.5 -5s-5.16602 -3.66699 -8.49902 -5c-17.333 -12 -37.333 -18.667 -60 -20
c-19.333 1.33301 -37.166 6.83301 -53.499 16.5s-29.833 22.5 -40.5 38.5h37c-6.66699 9.33301 -12 20.333 -16 33c-1.33301 2 -2.5 4.33301 -3.5 7s-2.16699 5.33398 -3.5 8.00098l-3 11h-37l-21 71h19l-32 104h-98l-23 77h117l-35 116h-37l-24 82l-64 -198h-19l-24 -77h18
l-34 -104h-36l-23 -71h37l-4 -10c-7.33301 -19.333 -15.333 -35.666 -24 -48.999h-18c-8 -11.333 -14.667 -19.666 -20 -24.999c-2.66699 -1.33301 -5 -3 -7 -5s-4.66699 -3.66699 -8 -5c-18.667 -12.667 -38.667 -19.334 -60 -20.001
c-19.333 1.33301 -37.333 6.83301 -54 16.5s-30 22.5 -40 38.5h36c-3.33301 5.33301 -6.33301 10.666 -9 15.999s-4.66699 11 -6 17c-1.33301 2 -2.5 4.33301 -3.5 7s-2.16699 5.33398 -3.5 8.00098l-3 11h-37l-21 71h18l-31 104h-18l-23 77h37l-35 116h-37l-7 25h36l-22 77
h-37l-23 75v1h37l-22 75h-37l-19 61v0z" />
    <glyph glyph-name="x" unicode="x" horiz-adv-x="957" 
d="M709 19c-1.33301 -12.667 -8.66406 -19.002 -21.9971 -19.002h-87c-8.66699 0 -15.334 1.33301 -20.001 4c-6.66699 4 -11.667 9.66699 -15 17l-5 6h-29l-42 59h39l-50 71h-38l-74 104h29l-32 46l-15 -20l-14 20l-32 -46h-22l-73 -104h130l-50 -71h-152l-41 -59h43l-6 -7
c-4 -6.66699 -8.66699 -11.667 -14 -15c-4 -3.33301 -11 -5 -21 -5h-81c-12.667 0 -19.667 6.33301 -21 19c-1.33301 3.33301 -1.33301 6 0 8h-30c0.666992 6 2.66699 11.667 6 17l30 42h38l50 71h-38l74 104h29l54 77h-111l32 45h190l35 50l-23 32h-108l-65 91h32l-54 75
h-31l-54 76h33l-52 73c-0.666992 0.666992 -1 1.16699 -1 1.5s-0.333008 0.833008 -1 1.5h-33c-3.33301 6 -5 13.333 -5 22c1.33301 12.667 8.66602 19 21.999 19h74c8.66699 0 15.667 -1.66699 21 -5c6 -4.66699 10.667 -9.66699 14 -15l14 -21h185l53 -76h-171l51 -75h29
h1l58 -84l16 22l10 -14h12l55 75h-32v1l56 75h33l56 76h-34l16 21c4.66699 6.66699 9 11.667 13 15c6.66699 3.33301 14 5 22 5h67c13.333 0 21 -6.33301 23 -19c0 -8.66699 -1.66699 -16 -5 -22h43c-0.666992 -0.666992 -1 -1.16699 -1 -1.5s-0.333008 -0.833008 -1 -1.5
l-53 -73h-29l-54 -75h29h-1l-55 -76h-41l-66 -91h118l-28 -38l31 -44h-113l32 -45h36l54 -77h-22l73 -104h22l49 -71h-43l30 -42c4 -5.33301 6 -11 6 -17h43c0 -1.33301 0.166992 -2.66602 0.5 -3.99902s0.166016 -2.66602 -0.500977 -3.99902z" />
    <glyph glyph-name="y" unicode="y" horiz-adv-x="969" 
d="M420 27c-1.33301 -12 -5.33203 -19.498 -11.999 -22.498s-12 -4.5 -16 -4.5h-50c-4 0 -9.33301 1.5 -16 4.5s-10.667 10.5 -12 22.5h-42v7v52h24v71h-24v96l-5 8h54l-43 77h-54l-25 45h53l-34 61h-54l-75 134h43l-30 53h-42l-1 1l-42 75h43l-43 76h-42l-3 5
c-4 7.33301 -5 14.666 -3 21.999c3.33301 9.33301 9.66602 14 18.999 14h64c4 0 8.83301 -1.16699 14.5 -3.5s10.167 -7.5 13.5 -15.5l12 -22h50l42 -76h-43l41 -75h93l1 -1l29 -53h-102l73 -134h43l4 7l25 -46l95 173h43l29 53h-166v1l41 75h167l42 76h-43l12 23
c4 7.33301 8.66699 12.166 14 14.499s10.333 3.5 15 3.5h61c8.66699 0 14.667 -4.33301 18 -13c2.66699 -8 2 -15.667 -2 -23l-3 -5h50l-43 -76h-43l-42 -75h42v-1l-30 -53h-51l-76 -134h103l-35 -61h-102l-26 -45h50l-43 -77h-27l-5 -8v-96h27v-71v-52
c0 -2.66699 -0.333008 -5 -1 -7h1v0z" />
    <glyph glyph-name="z" unicode="z" horiz-adv-x="868" 
d="M608 586l-3.50098 -14.499c-1 -4.33301 -2.5 -8.5 -4.5 -12.5c-2 -4.66699 -4.66699 -9.33398 -8 -14.001h30c-2.66699 -4 -5 -6.66699 -7 -8c-2.66699 -3.33301 -5.83398 -6.33301 -9.50098 -9s-7.5 -5.66699 -11.5 -9l-70 -50h-52l-63 -46h202l-85 -61h-185l-224 -161
h254l-21 -15c-1.33301 0 -2 -0.666992 -2 -2v-9v-1h-253v-23c0 -2 1 -3 3 -3h34h440c4 0 9.66699 -1.83301 17 -5.5s11 -13.167 11 -28.5v-14h154v-66c0 -2 -0.166992 -3.83301 -0.5 -5.5s-0.5 -3.16699 -0.5 -4.5h-161c-2 -11.333 -6.33301 -18.166 -13 -20.499
s-11.667 -3.5 -15 -3.5h-507c-26 0 -45 8 -57 24h33l-1 1c-12 16 -18 39.333 -18 70v5h-33v74v1h26v26h-26v1c0 7.33301 0.166992 13.666 0.5 18.999s0.833008 10.333 1.5 15c0.666992 10.667 2.66699 20 6 28c3.33301 8.66699 8 16 14 22
c2.66699 3.33301 5.83398 6.33301 9.50098 9l12.5 9l80 58h39l85 61h-168l63 46h168l106 76h-39l131 95c0.666992 0 1 0.666992 1 2v7h34v24c0 2 -1 3 -3 3h-34h-440c-4.66699 0 -10.667 1.83301 -18 5.5s-11 13.167 -11 28.5v10h-33v59h42v11
c0 15.333 3.66699 24.833 11 28.5s13 5.5 17 5.5h508c12.667 0 25.334 -3 38.001 -9s22.667 -18 30 -36h-48c5.33301 -14 8 -31 8 -51v-8h105v-71h-87v-23h143v-33h-145v-7v0z" />
    <glyph glyph-name="braceleft" unicode="{" horiz-adv-x="591" 
d="M85 385c-5.33301 6.66699 -14.9961 10.001 -28.9961 10.001h-11h-31c-17.333 0 -26 9 -26 27v22v6v22c0 5.33301 1.33301 10.666 4 15.999h-10c4 8 11.333 12 22 12h15h26c15.333 0 25 3.33301 29 10c0.666992 0.666992 1 1.16699 1 1.5s0.333008 0.833008 1 1.5h10
c4.66699 8 7 18.667 7 32c0 14 -0.166992 28.167 -0.5 42.5s-0.166016 28.5 0.500977 42.5h-57c0 12.667 0.166992 25 0.5 37s0.833008 24 1.5 36h57l4 46c1.33301 15.333 3.66602 30.666 6.99902 45.999c0.666992 3.33301 1.33398 6.33301 2.00098 9
s1.33398 5.66699 2.00098 9h-33c2 8.66699 4 16.667 6 24h33c8.66699 29.333 18.667 53.666 30 72.999h-11l3 6c9.33301 14.667 19.833 27.5 31.5 38.5s24.5 20.167 38.5 27.5h11c1.33301 1.33301 2.66602 2.33301 3.99902 3c28.667 14 63 21 103 21h12
c5.33301 0 10.166 -1.66699 14.499 -5s6.5 -9.33301 6.5 -18v-1h-27v-65c0 -1.33301 -0.166992 -2.5 -0.5 -3.5s-0.5 -2.16699 -0.5 -3.5h26c-2 -10.667 -8.33301 -16 -19 -16h-12h-10c-20.667 0 -38.667 -4.33301 -54 -13c-14.667 -6.66699 -27.334 -20.667 -38.001 -42
c-0.666992 0 -1 -0.666992 -1 -2h-50c-1.33301 -3.33301 -3 -7 -5 -11s-3.66699 -8.33301 -5 -13h50c-6 -16 -11 -35.667 -15 -59c-3.33301 -17.333 -5.33301 -34.333 -6 -51h-26c-2 -24 -3 -48.333 -3 -73h27v-60c0 -10 -0.333008 -19.667 -1 -29
s-1.66699 -18.666 -3 -27.999h-26c-1.33301 -4.66699 -2.5 -9 -3.5 -13s-2.16699 -8 -3.5 -12h61c-1.33301 -1.33301 -2 -3 -2 -5c-6.66699 -14 -13.667 -25.667 -21 -35l-1 -1h1c7.33301 -10 14.333 -21.667 21 -35c5.33301 -14 8.66602 -28.167 9.99902 -42.5
s2 -29.166 2 -44.499v-21h-61v-36.5c0 -12.333 0.333008 -24.5 1 -36.5h26c0.666992 -8 1 -16.167 1 -24.5s0.666992 -16.833 2 -25.5h-27c1.33301 -6.66699 2.16602 -13.334 2.49902 -20.001s1.16602 -13.667 2.49902 -21c1.33301 -5.33301 2.5 -10.5 3.5 -15.5
s2.16699 -10.167 3.5 -15.5h27c2.66699 -10.667 5.5 -20.5 8.5 -29.5s6.5 -17.167 10.5 -24.5c10 -20 22.667 -34 38 -42c16 -8 34 -12 54 -12h22c5.33301 0 10.166 -1.66699 14.499 -5s6.5 -9.33301 6.5 -18v-12h-27v-54c0 -8.66699 -2 -14.667 -6 -18s-8.33301 -5 -13 -5
c-38.667 0 -72.334 7 -101.001 21c-25.333 12 -46.666 30.667 -63.999 56h10c-1.33301 2 -2.83301 4 -4.5 6s-3.16699 4.33301 -4.5 7c-9.33301 15.333 -17.666 33 -24.999 53s-13.333 42.667 -18 68c-0.666992 1.33301 -1 2.83301 -1 4.5s-0.333008 3.16699 -1 4.5h-10
c-4 24 -7 48 -9 72h11c-1.33301 8.66699 -2 17.167 -2 25.5s-0.333008 16.5 -1 24.5h-128c-0.666992 12 -1 24.167 -1 36.5v36.5h129v46c0 14.667 -2.66699 26.334 -8 35.001z" />
    <glyph glyph-name="bar" unicode="|" horiz-adv-x="310" 
d="M108 -82c0 -17.333 -8.33301 -26 -25 -26h-22c-16 0 -24 8.66699 -24 26v53h37v69h-37v70h37v23h-37v106h37v69h-136v114h136v23h-50v177h34v70h-85v117h85v137h-21v9c0 18 8 27 24 27h40c16.667 0 25 -9 25 -27v-9h11v-137h-61v-69h32v-48h29v-70h-12v-177h68v-23v-114
v-69h-79v-106h23v-23v-70v-69h-29v-53v0z" />
    <glyph glyph-name="braceright" unicode="}" horiz-adv-x="591" 
d="M246 510c4 -6.66699 13.665 -10.001 28.998 -10.001h10h31c18 0 27 -9.33301 27 -28v-22v-6v-22c0 -6 -1.66699 -11.333 -5 -16h11c-5.33301 -7.33301 -12.666 -11 -21.999 -11h-15h-27c-14 0 -23.667 -3.33301 -29 -10c0 -0.666992 -0.166992 -1.16699 -0.5 -1.5
s-0.5 -0.833008 -0.5 -1.5h-11c-4 -8 -6 -18.667 -6 -32v-86h48v-36c0 -12 -0.666992 -24 -2 -36h-48l-4 -46c-1.33301 -15.333 -3.66602 -30.666 -6.99902 -45.999c-1.33301 -3.33301 -2.16602 -6.5 -2.49902 -9.5s-0.833008 -6.16699 -1.5 -9.5h10l-6 -24h-11
c-6.66699 -27.333 -16.334 -51.333 -29.001 -72h10l-3 -6c-17.333 -28.667 -40.666 -51 -69.999 -67h-10c-1.33301 0 -2.66602 -0.666992 -3.99902 -2c-29.333 -14 -64 -21 -104 -21h-12c-5.33301 0 -10 1.66699 -14 5s-6 9.33301 -6 18h27v66
c0 3.33301 0.333008 5.66602 1 6.99902h-27c1.33301 5.33301 3.83301 9.33301 7.5 12s7.5 4 11.5 4h12h11c20 0 37.667 4 53 12c14.667 8 27.667 22 39 42c0 0.666992 0.333008 1.33398 1 2.00098h26c3.33301 5.33301 6.66602 13.333 9.99902 24h-26
c6 16.667 11 36.334 15 59.001c1.33301 9.33301 2.33301 18.166 3 26.499l2 25.5h27c1.33301 12 2 24 2 36v36h-26v61c0 9.33301 0.166992 18.833 0.5 28.5s1.16602 19.167 2.49902 28.5h27c0.666992 4 1.66699 8 3 12l4 12h-27c0.666992 1.33301 1 2.33301 1 3
s0.333008 1.66699 1 3c5.33301 12.667 12.333 24.334 21 35.001v1c-8.66699 10 -15.667 21.667 -21 35c-6 14 -9.5 28.167 -10.5 42.5s-1.5 29.166 -1.5 44.499v21h26c0 12 0.166992 24 0.5 36s0.166016 24 -0.500977 36h-96c0 8.66699 -0.166992 17.167 -0.5 25.5
s-0.833008 16.5 -1.5 24.5h95l-2 21c-0.666992 6.66699 -1.66699 13.334 -3 20.001c-1.33301 5.33301 -2.33301 10.666 -3 15.999s-1.66699 10.666 -3 15.999h-27c-2.66699 10.667 -5.66699 20.334 -9 29.001s-6.66602 16.667 -9.99902 24c-12 21.333 -25 35.333 -39 42
c-14.667 8.66699 -32.334 13 -53.001 13h-77c-5.33301 0 -10 1.66699 -14 5s-6 9.33301 -6 18v11h81v55c0 8 1.83301 13.667 5.5 17s8.16699 5.33301 13.5 6c38.667 -1.33301 72 -8.33301 100 -21c24.667 -12.667 46.334 -31.667 65.001 -57h-10l9 -12
c18 -30 32.333 -70.333 43 -121c0 -1.33301 0.166992 -2.83301 0.5 -4.5s0.5 -3.16699 0.5 -4.5h11c2 -12 3.66699 -24.167 5 -36.5s2.33301 -24.5 3 -36.5h-10c0.666992 -8 1.16699 -16.167 1.5 -24.5s0.5 -16.833 0.5 -25.5h11v-72h-10v-46c0 -16 2.66699 -27.667 8 -35z
" />
    <glyph glyph-name="asciitilde" unicode="~" horiz-adv-x="669" 
d="M369 457c10.667 0 20 1.99609 28 5.99609v-23h-65v-14c0 -10 -2 -18 -6 -24c-2.66699 -5.33301 -6.66699 -10.666 -12 -15.999c-10 -10 -24.667 -18.667 -44 -26c-4.66699 -1.33301 -9 -2.66602 -13 -3.99902s-8.33301 -2.33301 -13 -3
c-7.33301 1.33301 -14 2.83301 -20 4.5s-12 3.83398 -18 6.50098c-10 4.66699 -19.667 9.66699 -29 15l-27 16c-12 8 -25 15 -39 21c-14.667 5.33301 -30.667 8 -48 8c-9.33301 0 -19 -1.66699 -29 -5c-12 3.33301 -24.333 5 -37 5c-11.333 0 -22 -2 -32 -6
c-7.33301 -2.66699 -16.333 -9.33398 -27 -20.001v42h97v16c0 10 1.66699 17.667 5 23c2.66699 5.33301 6.66699 10.666 12 15.999l4 4l4 4h-97l16.5 10c5.66699 3.33301 12.167 6.33301 19.5 9s14.5 4.83398 21.5 6.50098s14.167 2.83398 21.5 3.50098
c23.333 -1.33301 44 -6.33301 62 -15c5.33301 -2 10.166 -4.16699 14.499 -6.5l14.5 -7.5h25c5.33301 -3.33301 10.166 -6.16602 14.499 -8.49902s8.5 -5.16602 12.5 -8.49902c12.667 -8.66699 26 -15.667 40 -21c14.667 -5.33301 30.334 -8 47.001 -8
c12 0 22.667 2.33301 32 7c2 0.666992 5 2.33398 9 5.00098c1.33301 -0.666992 2.83301 -1.33398 4.5 -2.00098s3.16699 -1.33398 4.5 -2.00098c14.667 -5.33301 30.334 -8 47.001 -8z" />
    <glyph glyph-name="cent" unicode="&#xa2;" horiz-adv-x="635" 
d="M392 663l-0.00292969 -46.9961v-5c0 -10.667 -2.33301 -17.334 -7 -20.001s-8.66699 -4 -12 -4h-69h-37v-117v-19v-93v-57v-65h36h70c3.33301 0 7.33301 -1.33301 12 -4s7 -9 7 -19h-38v-19h38v-34c0 -9.33301 -1.66699 -15.333 -5 -18
s-6.66602 -4.33398 -9.99902 -5.00098h-4h-106h-25v-57h25v-54c0 -18 -8.33301 -27 -25 -27h-36c-16 0 -24 9 -24 27v54h-16v57h-35h-8h16c-13.333 0.666992 -25.5 1.83398 -36.5 3.50098s-21.167 4.16699 -30.5 7.5c-20 6.66699 -37.333 19 -52 37l-6 9h-16
c-3.33301 5.33301 -6.66602 11.666 -9.99902 18.999h36c-4.66699 10 -8.66699 22.333 -12 37c-1.33301 7.33301 -2.66602 15.333 -3.99902 24s-2.33301 17.667 -3 27h-36c-0.666992 3.33301 -1 6.83301 -1 10.5s-0.333008 7.16699 -1 10.5v23v13h16v93h-16v19h37v7
c0 37.333 3 69 9 95c4 16.667 9.33301 31.334 16 44.001h-37c1.33301 3.33301 3 6.66602 5 9.99902l4 6c1.33301 2 2.66602 3.66699 3.99902 5c4 5.33301 7.33301 9 10 11c1.33301 1.33301 3 2.83301 5 4.5s3.66699 3.16699 5 4.5c0.666992 0 1 0.166992 1 0.5
s0.333008 0.5 1 0.5c8 6 17 11 27 15h15c0.666992 0 1.16699 0.166992 1.5 0.5s0.833008 0.5 1.5 0.5c20 8 45 12 75 12h19h16v26h-16v58h16v27c0 17.333 8 26 24 26h36c16.667 0 25 -8.66699 25 -26v-27v-58v-26h15h91c2.66699 0 5.83398 -0.833008 9.50098 -2.5
s6.16699 -5.16699 7.5 -10.5c0.666992 -0.666992 1 -1.33398 1 -2.00098s0.333008 -1.33398 1 -2.00098v-6zM202.997 587.004l-32 -0.000976562h-5h-31c-15.333 0 -27 -1.33301 -35 -4c-8.66699 -3.33301 -15.334 -8.33301 -20.001 -15c-5.33301 -7.33301 -9 -17 -11 -29
c-2 -13.333 -3 -30 -3 -50v-131v-24v-17v-2c0.666992 -5.33301 1.16699 -10.666 1.5 -15.999s0.833008 -10 1.5 -14c2 -12.667 5.66699 -22.667 11 -30c4.66699 -6.66699 11.334 -11.667 20.001 -15c8 -2.66699 19.667 -4 35 -4h31h5h31v65h-36v57h16v93h-16v19h37v117z" />
    <glyph glyph-name="sterling" unicode="&#xa3;" horiz-adv-x="960" 
d="M660 126c0 -1.33301 0.337891 -2.66602 1.00488 -3.99902v-36h-37v-53h37c0 -15.333 -3.5 -24.833 -10.5 -28.5s-12.833 -5.5 -17.5 -5.5h-330c-42.667 0 -80 5.66699 -112 17c-3.33301 1.33301 -6.5 2.66602 -9.5 3.99902s-6.16699 2.66602 -9.5 3.99902
c-4 1.33301 -9.33301 4.33301 -16 9c-16.667 10.667 -31 23.334 -43 38.001l-10 15c-4 6 -8.33301 14 -13 24v1c-2.66699 4.66699 -4.83398 9.16699 -6.50098 13.5l-5.5 14.5h53c-0.666992 3.33301 -1.33398 6.33301 -2.00098 9s-1.66699 5.66699 -3 9h-53l-3 12
c-6 26.667 -10 58.334 -12 95.001c0 4.66699 -0.166992 9.16699 -0.5 13.5s-0.5 8.83301 -0.5 13.5v54h-85c-16.667 0 -25 9 -25 27v23h43v36c0 17.333 8.33301 26 25 26h85v62h1v12h-24c0.666992 9.33301 1.16699 18.333 1.5 27s1.16602 17.334 2.49902 26.001h-19
c1.33301 9.33301 2.83301 18.5 4.5 27.5s3.5 17.5 5.5 25.5c1.33301 6.66699 3 13 5 19l6 18h31c10.667 27.333 23 50 37 68c10 12.667 22.667 25 38 37h-31c13.333 9.33301 28.666 17.666 45.999 24.999c15.333 6 32.333 10.5 51 13.5s38.667 4.83301 60 5.5h88
c21.333 -0.666992 41.333 -2.5 60 -5.5s35.667 -7.5 51 -13.5c17.333 -7.33301 32.666 -15.666 45.999 -24.999h37c14 -10 26.667 -22.333 38 -37c14 -18 26.333 -40.667 37 -68l4 -13c1.33301 -4 2.5 -8 3.5 -12s2.16699 -8 3.5 -12
c1.33301 -2.66699 2.16602 -5.33398 2.49902 -8.00098s0.833008 -5.33398 1.5 -8.00098h-37l6 -37h37l3 -36c0 -4 -0.333008 -7 -1 -9v-1c-0.666992 -1.33301 -1 -2.5 -1 -3.5s-0.666992 -2.16699 -2 -3.5c-2 -5.33301 -5.33301 -9 -10 -11
c-0.666992 -0.666992 -1.33398 -1 -2.00098 -1c-1.33301 -1.33301 -3 -2 -5 -2c-0.666992 -0.666992 -1.33398 -1 -2.00098 -1c-1.33301 -0.666992 -4 -1 -8 -1h-86c-3.33301 0 -5.66602 0.333008 -6.99902 1h-2l-6 3c-5.33301 3.33301 -9 7.33301 -11 12l-3 6
c-0.666992 1.33301 -1 3.66602 -1 6.99902l-2 21l-3 19c0 2 -0.333008 3.33301 -1 4c-2 12.667 -5.33301 23.667 -10 33l-5 10c-0.666992 2 -2.33398 5 -5.00098 9c-10 12 -22.333 21 -37 27l-16 4h-1l-16 3h30c-4 0.666992 -8 1 -12 1h-13h-129h-13.5
c-4.33301 0 -8.5 -0.333008 -12.5 -1h-65l-18 -3.5c-5.33301 -1 -10.666 -2.16699 -15.999 -3.5c-14.667 -6 -27 -15 -37 -27c-3.33301 -5.33301 -6.66602 -11.666 -9.99902 -18.999h27c-4 -10 -7 -21 -9 -33c-0.666992 -0.666992 -1 -2 -1 -4h37c-4 -22 -6 -48.333 -6 -79
v-48h224c16 0 24 -8.66699 24 -26v-54h-37v-5c0 -18 -8 -27 -24 -27h-224v-54h37v-13.5c0 -4.33301 0.333008 -8.5 1 -12.5v-4c0 -4 0.166992 -8 0.5 -12s0.833008 -7.66699 1.5 -11h-37l2 -17c4 -20 9.66699 -35 17 -45c6 -8.66699 14 -15 24 -19h37l6 -3
c6.66699 -2 14.167 -3.66699 22.5 -5s17.833 -2 28.5 -2h325c2.66699 0 5.83398 -0.5 9.50098 -1.5s7.16699 -3.16699 10.5 -6.5l3 -4l1 -1l2 -4c0 -2 0.333008 -3.33301 1 -4z" />
    <glyph glyph-name="yen" unicode="&#xa5;" horiz-adv-x="969" 
d="M547 118c0 -8 -2.33301 -14.4961 -7 -19.4961s-10.667 -7.5 -18 -7.5h-81h-29v-32h-26v-25c0 -16 -3.66699 -25.833 -11 -29.5s-13 -5.5 -17 -5.5h-65c-4.66699 0 -10.667 1.83301 -18 5.5s-11 13.5 -11 29.5v25h29v32h-29h-78c-7.33301 0 -13.333 2.5 -18 7.5
s-7 11.5 -7 19.5v1h-28v57c0 9.33301 3 16.666 9 21.999h29c4.66699 3.33301 9.66699 5 15 5h78h29v49l-20 36h-29l-1 1h-3h-83c-16 0 -24 9 -24 27v31h28v28c0 18 8.33301 27 25 27h23l-24 42h-29l-11 20h29l-85 151h-29l-33 59h29l-23 41h-29l-33 59h29l-7 13
c-4 7.33301 -5 14.666 -3 21.999c2 9.33301 8 14 18 14h85c4.66699 0 9.66699 -1.16699 15 -3.5s10 -7.5 14 -15.5l16 -30h-8l33 -59h8l22 -41h-68l37 -59h63l115 -211l15 26l14 -26l22 40h-29l11 20h7l83 151h-7l32 59h29l23 41h-29l32 59h29l17 31
c3.33301 7.33301 7.83301 12.166 13.5 14.499s10.5 3.5 14.5 3.5h83c8.66699 0 14.667 -4.33301 18 -13c2 -8.66699 1.33301 -16.334 -2 -23.001l-8 -13h-8l-33 -59h8l-143 -251h-8l-11 -20h8l-24 -42h25c16.667 0 25 -9 25 -27v-28h-3v-31c0 -18 -8.33301 -27 -25 -27h-86
h-3l-1 -1h3l-20 -36v-49h29h81c5.33301 0 10.333 -1.66699 15 -5h-27c5.33301 -5.33301 8.33301 -12 9 -20h19c0 -0.666992 0.166992 -1 0.5 -1s0.5 -0.333008 0.5 -1v-57h8v-1v0z" />
    <glyph glyph-name="Agrave" unicode="&#xc0;" 
d="M750 14c-0.666992 -2 -2.49609 -4.83496 -5.49609 -8.50195s-8.16699 -5.5 -15.5 -5.5h-198c-12.667 0 -21.667 5.66699 -27 17h171l-2 4l-7 17h-45l-25 62h25l-54 134h-25l-89 222h46l-8 21h-46l-41 101h22l-25 63h-7v-1l-8 -18l-7 19l-2 2h-4v-1
c0 -0.666992 -0.166992 -1 -0.5 -1s-0.5 -0.333008 -0.5 -1l-24 -62h-27l-41 -101h28l-9 -21l-55 -140h123c2.66699 0 6 -0.666992 10 -2c1.33301 0 2.5 -0.333008 3.5 -1s2.16699 -1.33398 3.5 -2.00098l1 -1c5.33301 -3.33301 9 -7.66602 11 -12.999h-53v-1l25 -62h53
l11 -27c4 -10.667 3 -20.667 -3 -30c-6.66699 -8.66699 -15.334 -13 -26.001 -13h-220l-25 -64h-32l-24 -62h32l-7 -17l-2 -4h-34c-6 -11.333 -15 -17 -27 -17h-75c-8 0 -13.5 1.66699 -16.5 5s-5.16699 6.33301 -6.5 9v3h45c-1.33301 6 -0.333008 13 3 21h-45v1l25 61h25
l54 134h-26l25 63l64 159h47l8 21h-46l41 101h21l25 63h-148l36 91l11 25h157c10.667 22 21.667 38 33 48c2 1.33301 4.16699 3 6.5 5s5.16602 3.66699 8.49902 5c1.33301 0.666992 2.5 1.33398 3.5 2.00098s2.16699 1.33398 3.5 2.00098h-30l14 7h1l14 6
c2 0 3.66699 0.333008 5 1c2 0 3.83301 0.166992 5.5 0.5s3.5 0.833008 5.5 1.5c3.33301 0.666992 6.33301 1 9 1h9h9c2.66699 0 5.66699 -0.333008 9 -1l8 -2l8 -2l11 -4l4 -2l13 -6c24 -14 41.667 -34.667 53 -62h-96l4 -10c1.33301 -1.33301 2.16602 -3 2.49902 -5
s1.16602 -4 2.49902 -6h43l2 -4l37 -91h171l25 -63h-146l42 -101h27l55 -138l18 -42h-53l25 -63h53l54 -134h-32l25 -61v-1h32c2.66699 -8 3.66699 -15 3 -21h-35v-3zM427.004 891.998c-1.33301 -2 -3.83398 -4.16504 -7.50098 -6.49805s-8.5 -3.5 -14.5 -3.5h-27
c-9.33301 0 -17 3 -23 9c-4.66699 5.33301 -8.66699 11.666 -12 18.999l-46 93h-98l-31 62h116l-3 7c-3.33301 6.66699 -4.66602 12.167 -3.99902 16.5s2 7.5 4 9.5c1.33301 2.66699 3.66602 5 6.99902 7s8 3 14 3h19c5.33301 0 11.333 -1.83301 18 -5.5
s12.334 -11.167 17.001 -22.5l7 -15h-37l27 -62h37l37 -85c4 -10.667 4 -19.334 0 -26.001z" />
    <glyph glyph-name="Aacute" unicode="&#xc1;" 
d="M750 14l-0.00390625 3.00195h35c0.666992 6 -0.333008 13 -3 21h-32v1l-25 61h32l-54 134h-53l-25 63h53l-18 42l-55 138h-27l-42 101h27l-25 63h-52l-37 91l-2 4h-43c-1.33301 2 -2.16602 4 -2.49902 6s-1.16602 3.66699 -2.49902 5l-4 10h96
c-11.333 27.333 -29 48 -53 62l-13 6l-4 2l-11 4l-8 2l-8 2c-3.33301 0.666992 -6.33301 1 -9 1h-9h-9c-2.66699 0 -5.66699 -0.333008 -9 -1c-2 -0.666992 -3.83301 -1.16699 -5.5 -1.5s-3.5 -0.5 -5.5 -0.5c-1.33301 -0.666992 -3 -1 -5 -1l-14 -6h-1l-14 -7h30
c-1.33301 -0.666992 -2.5 -1.33398 -3.5 -2.00098s-2.16699 -1.33398 -3.5 -2.00098c-3.33301 -1.33301 -6.16602 -3 -8.49902 -5s-4.5 -3.66699 -6.5 -5c-11.333 -10 -22.333 -26 -33 -48h-30l-11 -25l-36 -91h21l-25 -63h-73l-41 -101h98l-8 -21h-47l-64 -159l-25 -63h26
l-54 -134h-25l-25 -61v-1h45c-3.33301 -8 -4.33301 -15 -3 -21h-45v-3c1.33301 -2.66699 3.5 -5.66699 6.5 -9s8.5 -5 16.5 -5h75c12 0 21 5.66699 27 17h34l2 4l7 17h-32l24 62h32l25 64h220c10.667 0 19.334 4.33301 26.001 13c6 9.33301 7 19.333 3 30l-11 27h-53l-25 62
v1h53c-2 5.33301 -5.66699 9.66602 -11 12.999l-1 1c-1.33301 0.666992 -2.5 1.33398 -3.5 2.00098s-2.16699 1 -3.5 1c-4 1.33301 -7.33301 2 -10 2h-123l55 140l9 21h-28l41 101h27l24 62c0 0.666992 0.166992 1 0.5 1s0.5 0.333008 0.5 1v1h4l2 -2l7 -19l8 18v1h7l25 -63
h-22l41 -101h46l8 -21h-93l89 -222h72l54 -134h-25l25 -62h45l7 -17l2 -4h-46c5.33301 -11.333 14.333 -17 27 -17h73c7.33301 -0 12.5 1.83301 15.5 5.5s4.83301 6.5 5.5 8.5zM304.996 918.002l37.002 84.998h74l27 62h-92l6 15c5.33301 11.333 11.166 18.833 17.499 22.5
s12.166 5.5 17.499 5.5h76c5.33301 0 9.66602 -1 12.999 -3s6 -4.33301 8 -7c1.33301 -2 2.5 -5.16699 3.5 -9.5s-0.166992 -9.83301 -3.5 -16.5l-4 -7h92l-31 -62h-74l-46 -93c-3.33301 -7.33301 -7.33301 -13.666 -12 -18.999c-6 -6 -13.667 -9 -23 -9h-64
c-6 0 -10.667 1.16699 -14 3.5s-5.66602 4.5 -6.99902 6.5c-4.66699 6.66699 -5 15.334 -1 26.001z" />
    <glyph glyph-name="Acircumflex" unicode="&#xc2;" 
d="M752 14l-0.00390625 3.00195h35c0.666992 6 -0.333008 13 -3 21h-32v1l-25 61h32l-54 134h-53l-25 63h53l-18 42l-55 138h-27l-42 101h27l-25 63h-52l-37 91l-2 4h-43c-1.33301 2 -2.16602 4 -2.49902 6s-1.16602 3.66699 -2.49902 5l-4 10h96
c-11.333 27.333 -29 48 -53 62l-13 6l-4 2l-11 4l-8 2l-8 2c-3.33301 0.666992 -6.33301 1 -9 1h-9h-9c-2.66699 0 -5.66699 -0.333008 -9 -1c-2 -0.666992 -3.83301 -1.16699 -5.5 -1.5s-3.5 -0.5 -5.5 -0.5c-1.33301 -0.666992 -3 -1 -5 -1l-14 -6h-1l-14 -7h30
c-1.33301 -0.666992 -2.5 -1.33398 -3.5 -2.00098s-2.16699 -1.33398 -3.5 -2.00098c-3.33301 -1.33301 -6.16602 -3 -8.49902 -5s-4.5 -3.66699 -6.5 -5c-11.333 -10 -22.333 -26 -33 -48h-30l-11 -25l-36 -91h21l-25 -63h-21l-41 -101h46l-8 -21h-112l-64 -159l-25 -63h91
l-54 -134h-25l-25 -61v-1h45c-3.33301 -8 -4.33301 -15 -3 -21h-45v-3c1.33301 -2.66699 3.5 -5.66699 6.5 -9s8.5 -5 16.5 -5h75c12 0 21 5.66699 27 17h34l2 4l7 17h-32l24 62h32l25 64h220c10.667 0 19.334 4.33301 26.001 13c6 9.33301 7 19.333 3 30l-11 27h-53l-25 62
v1h53c-2 5.33301 -5.66699 9.66602 -11 12.999l-1 1c-1.33301 0.666992 -2.5 1.33398 -3.5 2.00098s-2.16699 1 -3.5 1c-4 1.33301 -7.33301 2 -10 2h-123l55 140l9 21h-28l41 101h27l24 62c0 0.666992 0.166992 1 0.5 1s0.5 0.333008 0.5 1v1h4l2 -2l7 -19l8 18v1h7l25 -63
h-22l41 -101h46l8 -21h-46l89 -222h25l54 -134h-127l25 -62h147l7 -17l2 -4h-46c5.33301 -11.333 14.333 -17 27 -17h73c7.33301 -0 12.5 1.83301 15.5 5.5s4.83301 6.5 5.5 8.5zM82.9961 918.002l37.002 84.998h74l27 62h-92l6 15
c5.33301 11.333 11.166 18.833 17.499 22.5s12.166 5.5 17.499 5.5h75c6 0 10.667 -1 14 -3s5.66602 -4.33301 6.99902 -7c2 -2 3.33301 -5.16699 4 -9.5s-0.666016 -9.83301 -3.99902 -16.5l-3 -7h92l-31 -62h-74l-46 -93c-3.33301 -7.33301 -7.33301 -13.666 -12 -18.999
c-6 -6 -13.667 -9 -23 -9h-64c-6 0 -10.833 1.16699 -14.5 3.5s-6.16699 4.5 -7.5 6.5c-4 6.66699 -4 15.334 0 26.001zM637.998 892c4.66699 6.66699 4.99902 15.332 0.999023 25.999l-37 85h-37l-27 62h36l-6 15c-5.33301 11.333 -11.166 18.833 -17.499 22.5
s-12.166 5.5 -17.499 5.5h-20c-5.33301 0 -9.83301 -1 -13.5 -3s-6.16699 -4.33301 -7.5 -7c-1.33301 -2 -2.5 -5.16699 -3.5 -9.5s0.166992 -9.83301 3.5 -16.5l4 -7h-56l32 -62h37l46 -93c3.33301 -7.33301 7.33301 -13.666 12 -18.999c4.66699 -6 12 -9 22 -9h27
c6.66699 0 11.667 1.16699 15 3.5s5.66602 4.5 6.99902 6.5z" />
    <glyph glyph-name="Atilde" unicode="&#xc3;" 
d="M750 14c-0.666992 -2 -2.49609 -4.83496 -5.49609 -8.50195s-8.16699 -5.5 -15.5 -5.5h-73c-12.667 0 -21.667 5.66699 -27 17h46l-2 4l-7 17h-45l-25 62h25l-54 134h-25l-89 222h46l-8 21h-91l-41 101h67l-25 63h-7v-1l-8 -18l-7 19l-2 2h-4v-1
c0 -0.666992 -0.166992 -1 -0.5 -1s-0.5 -0.333008 -0.5 -1l-24 -62h-27l-41 -101h28l-9 -21l-55 -140h123c2.66699 0 6 -0.666992 10 -2c1.33301 0 2.5 -0.333008 3.5 -1s2.16699 -1.33398 3.5 -2.00098l1 -1c5.33301 -3.33301 9 -7.66602 11 -12.999h-53v-1l25 -62h53
l11 -27c4 -10.667 3 -20.667 -3 -30c-6.66699 -8.66699 -15.334 -13 -26.001 -13h-220l-25 -64h-32l-24 -62h32l-7 -17l-2 -4h-34c-6 -11.333 -15 -17 -27 -17h-75c-8 0 -13.5 1.66699 -16.5 5s-5.16699 6.33301 -6.5 9v3h45c-1.33301 6 -0.333008 13 3 21h-45v1l25 61h25
l54 134h-26l25 63l64 159h47l8 21h-46l41 101h21l25 63h-21l36 91l11 25h30c10.667 22 21.667 38 33 48c2 1.33301 4.16699 3 6.5 5s5.16602 3.66699 8.49902 5c1.33301 0.666992 2.5 1.33398 3.5 2.00098s2.16699 1.33398 3.5 2.00098h-30l14 7h1l14 6
c2 0 3.66699 0.333008 5 1c2 0 3.83301 0.166992 5.5 0.5s3.5 0.833008 5.5 1.5c3.33301 0.666992 6.33301 1 9 1h9h9c2.66699 0 5.66699 -0.333008 9 -1l8 -2l8 -2l11 -4l4 -2l13 -6c24 -14 41.667 -34.667 53 -62h-96l4 -10c1.33301 -1.33301 2.16602 -3 2.49902 -5
s1.16602 -4 2.49902 -6h43l2 -4l37 -91h52l25 -63h-27l42 -101h27l55 -138l18 -42h-53l25 -63h53l54 -134h-32l25 -61v-1h32c2.66699 -8 3.66699 -15 3 -21h-35v-3zM521.004 1033c10 0 19.3301 1.66699 27.9971 5v-22h-65v-14c0 -10 -2 -18.333 -6 -25
c-1.33301 -2.66699 -3 -5.33398 -5 -8.00098s-4.33301 -5.33398 -7 -8.00098c-12 -10.667 -26.667 -19 -44 -25c-4.66699 -2 -9 -3.5 -13 -4.5s-8.33301 -2.16699 -13 -3.5c-7.33301 1.33301 -14 2.83301 -20 4.5s-12 4.16699 -18 7.5
c-10.667 4.66699 -20.5 9.66699 -29.5 15l-26.5 16c-13.333 8.66699 -26.666 15.334 -39.999 20.001c-13.333 6 -29 9 -47 9c-10.667 0 -20.334 -2 -29.001 -6c-5.33301 1.33301 -11.166 2.66602 -17.499 3.99902s-12.833 2 -19.5 2c-12 0 -22.667 -2.33301 -32 -7
c-6.66699 -2.66699 -15.667 -9 -27 -19v42h97v15c0 10 1.33301 18 4 24c1.33301 2.66699 3 5.33398 5 8.00098s4.66699 5.33398 8 8.00098c1.33301 2 4 4.33301 8 7h-97c5.33301 4 10.833 7.5 16.5 10.5s12.167 6.16699 19.5 9.5c12.667 4.66699 27 8 43 10
c23.333 -2 44 -7 62 -15l28 -15h26c8.66699 -4.66699 17.667 -10.334 27 -17.001c6 -4 12.333 -7.5 19 -10.5l21 -9.5c12.667 -5.33301 28.334 -8 47.001 -8c11.333 0 22 2 32 6l9 6c2 -1.33301 5 -2.66602 9 -3.99902c12.667 -5.33301 28.334 -8 47.001 -8z" />
    <glyph glyph-name="Adieresis" unicode="&#xc4;" 
d="M743 14c-0.666992 -2 -2.49609 -4.83496 -5.49609 -8.50195s-8.16699 -5.5 -15.5 -5.5h-73c-12.667 0 -21.667 5.66699 -27 17h46l-2 4l-7 17h-45l-25 62h25l-54 134h-25l-89 222h46l-8 21h-71l-41 101h47l-25 63h-7v-1l-8 -18l-7 19l-2 2h-4v-1
c0 -0.666992 -0.166992 -1 -0.5 -1s-0.5 -0.333008 -0.5 -1l-24 -62h-27l-41 -101h28l-9 -21l-55 -140h123c2.66699 0 6 -0.666992 10 -2c1.33301 0 2.5 -0.333008 3.5 -1s2.16699 -1.33398 3.5 -2.00098l1 -1c5.33301 -3.33301 9 -7.66602 11 -12.999h-53v-1l25 -62h53
l11 -27c4 -10.667 3 -20.667 -3 -30c-6.66699 -8.66699 -15.334 -13 -26.001 -13h-220l-25 -64h-32l-24 -62h32l-7 -17l-2 -4h-34c-6 -11.333 -15 -17 -27 -17h-75c-8 0 -13.5 1.66699 -16.5 5s-5.16699 6.33301 -6.5 9v3h45c-1.33301 6 -0.333008 13 3 21h-45v1l25 61h25
l54 134h-116l25 63l64 159h137l8 21h-46l41 101h21l25 63h-21l36 91l11 25h30c10.667 22 21.667 38 33 48c2 1.33301 4.16699 3 6.5 5s5.16602 3.66699 8.49902 5c1.33301 0.666992 2.5 1.33398 3.5 2.00098s2.16699 1.33398 3.5 2.00098h-30l14 7h1l14 6
c2 0 3.66699 0.333008 5 1c2 0 3.83301 0.166992 5.5 0.5s3.5 0.833008 5.5 1.5c3.33301 0.666992 6.33301 1 9 1h9h9c2.66699 0 5.66699 -0.333008 9 -1l8 -2l8 -2l11 -4l4 -2l13 -6c24 -14 41.667 -34.667 53 -62h-96l4 -10c1.33301 -1.33301 2.16602 -3 2.49902 -5
s1.16602 -4 2.49902 -6h43l2 -4l37 -91h52l25 -63h-27l42 -101h27l55 -138l18 -42h-53l25 -63h53l54 -134h-32l25 -61v-1h32c2.66699 -8 3.66699 -15 3 -21h-35v-3zM255.004 934.998c-0.666992 0 -0.999023 -0.167969 -0.999023 -0.500977s-0.333008 -0.5 -1 -0.5
c-1.33301 0 -2.83301 -0.166992 -4.5 -0.5s-3.16699 -0.5 -4.5 -0.5h-65c-1.33301 0 -2.66602 0.166992 -3.99902 0.5s-2.66602 0.5 -3.99902 0.5c-0.666992 0 -1.33398 0.333008 -2.00098 1c-2 0 -4.33301 0.666992 -7 2l-1 1
c-2.66699 1.33301 -4.66699 2.66602 -6 3.99902l-1 1c-2 0.666992 -4 2.66699 -6 6h20c-3.33301 4 -5.33301 8.66699 -6 14h-20c-1.33301 4 -2 7 -2 9v33h20v32c0 2.66699 0.666992 6 2 10h-20c0.666992 5.33301 3.33398 10.333 8.00098 15
c0 0.666992 0.333008 1.33398 1 2.00098l3 3c0.666992 0 1 0.166992 1 0.5s0.333008 0.5 1 0.5c1.33301 1.33301 2.33301 2 3 2c1.33301 1.33301 2.33301 2 3 2l3 2c1.33301 0 2.16602 0.166992 2.49902 0.5s1.16602 0.5 2.49902 0.5l2 1h80
c0.666992 -0.666992 1.33398 -1 2.00098 -1c1.33301 0 2.16602 -0.166992 2.49902 -0.5s0.833008 -0.5 1.5 -0.5l3 -2c1.33301 0 2.66602 -0.666992 3.99902 -2c0.666992 0 1.66699 -0.666992 3 -2l2 -1l3 -3c0 -0.666992 0.166992 -1 0.5 -1s0.5 -0.333008 0.5 -1
c4.66699 -4.66699 7.33398 -9.66699 8.00098 -15c0.666992 -2 1 -5.33301 1 -10v-65c0 -4 -0.333008 -7 -1 -9c-0.666992 -3.33301 -1.66699 -6 -3 -8l-4 -6c-0.666992 -2.66699 -2.33398 -4.66699 -5.00098 -6l-1 -1c-1.33301 -1.33301 -3.33301 -2.66602 -6 -3.99902
c-0.666992 0 -1 -0.166992 -1 -0.5s-0.333008 -0.5 -1 -0.5c-2.66699 -1.33301 -4.66699 -2 -6 -2zM543.005 1075c2 0.666992 4.99707 1 8.99707 1h65c4 0 6.66699 -0.333008 8 -1h2l7 -3l1 -1c2.66699 -1.33301 4.66699 -2.66602 6 -3.99902h1l6 -6h-20
c2.66699 -4 4.66699 -8.66699 6 -14h20c1.33301 -4 2 -7.33301 2 -10v-32h-20v-33c0 -2 -0.666992 -5 -2 -9h20c-1.33301 -6.66699 -4 -12 -8 -16c0 -0.666992 -0.333008 -1 -1 -1l-5 -5l-3 -2l-3 -2c-0.666992 0 -1.16699 -0.166992 -1.5 -0.5s-0.833008 -0.5 -1.5 -0.5
c-1.33301 -0.666992 -3 -1 -5 -1c0 -0.666992 -0.666992 -1 -2 -1c-1.33301 -0.666992 -3.66602 -1 -6.99902 -1h-65c-3.33301 0 -6 0.333008 -8 1l-2 1c-2 0 -3.33301 0.333008 -4 1c-0.666992 0 -1.16699 0.166992 -1.5 0.5s-0.833008 0.5 -1.5 0.5l-4 2l-3 2l-2 2l-3 3
l-1 1c-4 4 -6.66699 9.33301 -8 16c-0.666992 2 -1 5 -1 9v65c0 4.66699 0.333008 8 1 10c0.666992 4 3 8.66699 7 14c0.666992 1.33301 2.33398 3.33301 5.00098 6h1c1.33301 1.33301 3.33301 2.66602 6 3.99902c0.666992 0.666992 1.33398 1 2.00098 1l6 3h2z" />
    <glyph glyph-name="Aring" unicode="&#xc5;" 
d="M750 14c-0.666992 -2 -2.49609 -4.83496 -5.49609 -8.50195s-8.16699 -5.5 -15.5 -5.5h-73c-12.667 0 -21.667 5.66699 -27 17h46l-2 4l-7 17h-45l-25 62h25l-54 134h-25l-89 222h46l-8 21h-91l-41 101h67l-25 63h-7v-1l-8 -18l-7 19l-2 2h-4v-1
c0 -0.666992 -0.166992 -1 -0.5 -1s-0.5 -0.333008 -0.5 -1l-24 -62h-27l-41 -101h28l-9 -21l-55 -140h123c2.66699 0 6 -0.666992 10 -2c1.33301 0 2.5 -0.333008 3.5 -1s2.16699 -1.33398 3.5 -2.00098l1 -1c5.33301 -3.33301 9 -7.66602 11 -12.999h-53v-1l25 -62h53
l11 -27c4 -10.667 3 -20.667 -3 -30c-6.66699 -8.66699 -15.334 -13 -26.001 -13h-220l-25 -64h-32l-24 -62h32l-7 -17l-2 -4h-34c-6 -11.333 -15 -17 -27 -17h-75c-8 0 -13.5 1.66699 -16.5 5s-5.16699 6.33301 -6.5 9v3h45c-1.33301 6 -0.333008 13 3 21h-45v1l25 61h25
l54 134h-26l25 63l64 159h47l8 21h-46l41 101h21l25 63h-21l36 91l11 25h30c10.667 22 21.667 38 33 48c2 1.33301 4.16699 3 6.5 5s5.16602 3.66699 8.49902 5c1.33301 0.666992 2.5 1.33398 3.5 2.00098s2.16699 1.33398 3.5 2.00098h-30l14 7h1l14 6
c2 0 3.66699 0.333008 5 1c2 0 3.83301 0.166992 5.5 0.5s3.5 0.833008 5.5 1.5c3.33301 0.666992 6.33301 1 9 1h9h9c2.66699 0 5.66699 -0.333008 9 -1l8 -2l8 -2l11 -4l4 -2l13 -6c24 -14 41.667 -34.667 53 -62h-96l4 -10c1.33301 -1.33301 2.16602 -3 2.49902 -5
s1.16602 -4 2.49902 -6h43l2 -4l37 -91h52l25 -63h-27l42 -101h27l55 -138l18 -42h-53l25 -63h53l54 -134h-32l25 -61v-1h32c2.66699 -8 3.66699 -15 3 -21h-35v-3zM502.004 883.998c-8 -6.66699 -18.666 -11.667 -31.999 -15c-6.66699 -1.33301 -14 -2.5 -22 -3.5
s-17 -1.5 -27 -1.5h-93c-18 0 -34.333 1.66699 -49 5c-12.667 2.66699 -23 7.66699 -31 15c-8.66699 7.33301 -14.334 16.333 -17.001 27c-1.33301 4.66699 -2.33301 9.33398 -3 14.001s-1.33398 9.66699 -2.00098 15h-28c-0.666992 2.66699 -1 6.33398 -1 11.001v51h21v86
c0 2 0.166992 3.83301 0.5 5.5s0.5 3.16699 0.5 4.5h-21c0 3.33301 0.166992 6.66602 0.5 9.99902s0.833008 6.66602 1.5 9.99902h32c1.33301 5.33301 2 8.66602 2 9.99902c4 10.667 9.66699 19.667 17 27c7.33301 6 18 11.333 32 16c6.66699 1.33301 14 2.5 22 3.5
s17 1.5 27 1.5h89c10 0 19 -0.5 27 -1.5s15.333 -2.16699 22 -3.5c14 -4.66699 24.667 -10 32 -16c7.33301 -7.33301 13 -16.333 17 -27c0.666992 -1.33301 1 -2.83301 1 -4.5s0.333008 -3.5 1 -5.5h-24c0.666992 -3.33301 1.16699 -6.66602 1.5 -9.99902
s0.5 -6.66602 0.5 -9.99902h24c0 -1.33301 0.166992 -2.83301 0.5 -4.5s0.5 -3.5 0.5 -5.5v-86h-14v-51v-11h13c-0.666992 -5.33301 -1.16699 -10.333 -1.5 -15s-1.16602 -9.33398 -2.49902 -14.001c-4 -10.667 -9.66699 -19.667 -17 -27zM441.005 920.998
c4.66699 0 8.6709 0.166992 12.0039 0.5s6.66602 0.833008 9.99902 1.5c6.66699 2.66699 11 5 13 7c3.33301 3.33301 5.33301 6.66602 6 9.99902h-29c0.666992 0.666992 1 1.33398 1 2.00098s0.333008 1.33398 1 2.00098c0.666992 3.33301 1.16699 6.66602 1.5 9.99902
s0.5 7 0.5 11v37h21v73v11c0 3.33301 -0.666992 6.66602 -2 9.99902l-1 2h-21c-1.33301 4.66699 -3.33301 8.33398 -6 11.001c-3.33301 3.33301 -8 6 -14 8c-2.66699 0.666992 -7.33398 1 -14.001 1h33c-2 0.666992 -5 1 -9 1h-32h-71h-32c-4 0 -6.66699 -0.333008 -8 -1
h-24c-6.66699 0 -11.334 -0.333008 -14.001 -1c-6.66699 -2.66699 -11 -5.33398 -13 -8.00098c-2 -2 -4.33301 -5.66699 -7 -11h24c0 -1.33301 -0.333008 -2 -1 -2c-0.666992 -3.33301 -1.16699 -6.66602 -1.5 -9.99902s-0.5 -7 -0.5 -11v-73h-13v-37
c0 -4 0.166992 -7.66699 0.5 -11s0.833008 -6.66602 1.5 -9.99902c0 -0.666992 0.166992 -1.33398 0.5 -2.00098s0.5 -1.33398 0.5 -2.00098h14c0.666992 -3.33301 2.66699 -6.66602 6 -9.99902c2 -2 6.33301 -4.33301 13 -7
c3.33301 -0.666992 6.66602 -1.16699 9.99902 -1.5s7.33301 -0.5 12 -0.5h28h75h29z" />
    <glyph glyph-name="Egrave" unicode="&#xc8;" horiz-adv-x="840" 
d="M-39 792c0 16 3.49902 25.834 10.499 29.501s12.833 5.5 17.5 5.5h525c4 0 9.66699 -1.83301 17 -5.5s11 -13.167 11 -28.5v-4h50v-21h-50v-55c0 -2.66699 -0.333008 -4.66699 -1 -6h50c-1.33301 -12.667 -5.16602 -20.5 -11.499 -23.5s-11.5 -4.5 -15.5 -4.5l-562 1
c-4 0 -9.33301 1.5 -16 4.5s-10.667 10.5 -12 22.5h-12c-0.666992 1.33301 -1 3.66602 -1 6.99902v54h62v21h-62v3zM628.999 58.001l-34.999 -0.000976562v-23c0 -11.333 -2 -19.333 -6 -24s-8.33301 -7.66699 -13 -9h-330c-44 0 -81.333 5.66699 -112 17
c-24.667 8.66699 -46 21.667 -64 39h46c-2.66699 2.66699 -5 5.16699 -7 7.5s-4 4.83301 -6 7.5c-1.33301 1.33301 -2.66602 3.33301 -3.99902 6h-46c-18.667 26 -32 57 -40 93v1h51c-4 17.333 -7 37.666 -9 60.999h-52l-2 28.5c-0.666992 9.66699 -1 19.834 -1 30.501l-1 5
l1 36h31v21h-30l1 69l4 12.5c1.33301 4.33301 3.33301 8.5 6 12.5c14 22 33.333 35.667 58 41h496c4 0 9.66699 -1.83301 17 -5.5s11 -13.167 11 -28.5v-79c0 -9.33301 -1.66699 -16.666 -5 -21.999h30c-3.33301 -5.33301 -7.16602 -8.5 -11.499 -9.5
s-7.83301 -1.5 -10.5 -1.5h-447c-0.666992 0 -1 -3.33301 -1 -10h-30c0 -4.66699 -0.166992 -10.5 -0.5 -17.5s-0.5 -14.167 -0.5 -21.5v-25c0.666992 -2.66699 1 -5.33398 1 -8.00098s0.333008 -5.66699 1 -9c1.33301 -3.33301 2.16602 -6.5 2.49902 -9.5
s1.16602 -6.16699 2.49902 -9.5h30c3.33301 -10.667 7.33301 -18.667 12 -24c7.33301 -10.667 17.333 -18 30 -22c12 -4.66699 29.333 -7 52 -7h25c4 -0.666992 8.16699 -1.16699 12.5 -1.5s9.16602 -0.5 14.499 -0.5h310c4 -1.33301 7.33301 -3.33301 10 -6h-37
c2.66699 -2.66699 5 -6.16699 7 -10.5s3 -10.166 3 -17.499v-66h36v-21zM87 482l-1 1v-1h1zM366 870c-1.33301 -2 -3.66504 -4.16504 -6.99805 -6.49805s-8 -3.5 -14 -3.5h-27c-9.33301 0 -17 3 -23 9c-4.66699 5.33301 -8.66699 11.666 -12 18.999l-46 93h-37l-31 62h55
l-4 7c-3.33301 7.33301 -4.5 13 -3.5 17s2.16699 7.33301 3.5 10c1.33301 2 3.83301 4 7.5 6s8.16699 3 13.5 3h20c5.33301 0 11.166 -1.83301 17.499 -5.5s12.166 -11.167 17.499 -22.5l7 -15h-37l27 -62h37l37 -85c4 -10.667 3.66699 -19.334 -1 -26.001z" />
    <glyph glyph-name="Eacute" unicode="&#xc9;" horiz-adv-x="840" 
d="M-24 792l0.000976562 -3.00098h62v-21h-62v-54c0 -3.33301 0.333008 -5.66602 1 -6.99902h12c1.33301 -12 5.33301 -19.5 12 -22.5s12 -4.5 16 -4.5l562 -1c4 0 9.16699 1.5 15.5 4.5s10.166 10.833 11.499 23.5h-50c0.666992 1.33301 1 3.33301 1 6v55h50v21h-50v4
c0 15.333 -3.66699 24.833 -11 28.5s-13 5.5 -17 5.5h-525c-4.66699 0 -10.5 -1.83301 -17.5 -5.5s-10.5 -13.5 -10.5 -29.5zM644.001 78.999l-36.001 0.000976562v66c0 7.33301 -1 13.166 -3 17.499s-4.33301 7.83301 -7 10.5h37c-2.66699 2.66699 -6 4.66699 -10 6h-310
c-5.33301 0 -10.166 0.166992 -14.499 0.5s-8.5 0.833008 -12.5 1.5h-25c-22.667 0 -40 2.33301 -52 7c-12.667 4 -22.667 11.333 -30 22c-4.66699 5.33301 -8.66699 13.333 -12 24h-30c-1.33301 3.33301 -2.16602 6.5 -2.49902 9.5s-1.16602 6.16699 -2.49902 9.5
c-0.666992 3.33301 -1 6.33301 -1 9s-0.333008 5.33398 -1 8.00098v25c0 7.33301 0.166992 14.5 0.5 21.5s0.5 12.833 0.5 17.5h30c0 6.66699 0.333008 10 1 10h447c2.66699 0 6.16699 0.5 10.5 1.5s8.16602 4.16699 11.499 9.5h-30c3.33301 5.33301 5 12.666 5 21.999v79
c0 15.333 -3.66699 24.833 -11 28.5s-13 5.5 -17 5.5h-496c-24.667 -5.33301 -44 -19 -58 -41c-2.66699 -4 -4.66699 -8.16699 -6 -12.5l-4 -12.5l-1 -69h30v-21h-31l-1 -36l1 -5c0 -10.667 0.333008 -20.834 1 -30.501l2 -28.5h52c2 -23.333 5 -43.666 9 -60.999h-51v-1
c8 -36 21.333 -67 40 -93h46c1.33301 -2.66699 2.66602 -4.66699 3.99902 -6c2 -2.66699 4 -5.16699 6 -7.5s4.33301 -4.83301 7 -7.5h-46c18 -17.333 39.333 -30.333 64 -39c30.667 -11.333 68 -17 112 -17h330c4.66699 1.33301 9 4.33301 13 9s6 12.667 6 24v23h35v21z
M101 482v1l1 -1h-1zM225 896l37.001 84.998h74l27 62h-92l6 15c5.33301 11.333 11.166 18.833 17.499 22.5s12.166 5.5 17.499 5.5h75c6 0 10.667 -1 14 -3s5.66602 -4 6.99902 -6c2 -2.66699 3.33301 -6 4 -10s-0.666016 -9.66699 -3.99902 -17l-3 -7h92l-31 -62h-74
l-46 -93c-3.33301 -7.33301 -7.33301 -13.666 -12 -18.999c-6 -6 -13.667 -9 -23 -9h-64c-6.66699 0 -11.667 1.16699 -15 3.5s-5.66602 4.5 -6.99902 6.5c-4 6.66699 -4 15.334 0 26.001z" />
    <glyph glyph-name="Ecircumflex" unicode="&#xca;" horiz-adv-x="840" 
d="M-37 792c0 16 3.49902 25.834 10.499 29.501s12.833 5.5 17.5 5.5h525c4 0 9.66699 -1.83301 17 -5.5s11 -13.167 11 -28.5v-4h50v-21h-50v-55c0 -2.66699 -0.333008 -4.66699 -1 -6h50c-1.33301 -12.667 -5.16602 -20.5 -11.499 -23.5s-11.5 -4.5 -15.5 -4.5l-562 1
c-4 0 -9.33301 1.5 -16 4.5s-10.667 10.5 -12 22.5h-12c-0.666992 1.33301 -1 3.66602 -1 6.99902v54h62v21h-62v3zM630.999 58.001l-34.999 -0.000976562v-23c0 -11.333 -2 -19.333 -6 -24s-8.33301 -7.66699 -13 -9h-330c-44 0 -81.333 5.66699 -112 17
c-24.667 8.66699 -46 21.667 -64 39h46c-2.66699 2.66699 -5 5.16699 -7 7.5s-4 4.83301 -6 7.5c-1.33301 1.33301 -2.66602 3.33301 -3.99902 6h-46c-18.667 26 -32 57 -40 93v1h51c-4 17.333 -7 37.666 -9 60.999h-52l-2 28.5c-0.666992 9.66699 -1 19.834 -1 30.501l-1 5
l1 36h31v21h-30l1 69l4 12.5c1.33301 4.33301 3.33301 8.5 6 12.5c14 22 33.333 35.667 58 41h496c4 0 9.66699 -1.83301 17 -5.5s11 -13.167 11 -28.5v-79c0 -9.33301 -1.66699 -16.666 -5 -21.999h30c-3.33301 -5.33301 -7.16602 -8.5 -11.499 -9.5
s-7.83301 -1.5 -10.5 -1.5h-447c-0.666992 0 -1 -3.33301 -1 -10h-30c0 -4.66699 -0.166992 -10.5 -0.5 -17.5s-0.5 -14.167 -0.5 -21.5v-25c0.666992 -2.66699 1 -5.33398 1 -8.00098s0.333008 -5.66699 1 -9c1.33301 -3.33301 2.16602 -6.5 2.49902 -9.5
s1.16602 -6.16699 2.49902 -9.5h30c3.33301 -10.667 7.33301 -18.667 12 -24c7.33301 -10.667 17.333 -18 30 -22c12 -4.66699 29.333 -7 52 -7h25c4 -0.666992 8.16699 -1.16699 12.5 -1.5s9.16602 -0.5 14.499 -0.5h310c4 -1.33301 7.33301 -3.33301 10 -6h-37
c2.66699 -2.66699 5 -6.16699 7 -10.5s3 -10.166 3 -17.499v-66h36v-21zM89 482l-1 1v-1h1zM566 870c-1.33301 -2 -3.66504 -4.16699 -6.99805 -6.5s-8.33301 -3.5 -15 -3.5h-27c-10 0 -17.333 3 -22 9c-4.66699 4.66699 -9 11 -13 19l-46 93h-37l-31 62h56l-4 7
c-3.33301 7.33301 -4.5 13 -3.5 17s2.16699 7.33301 3.5 10c1.33301 2 3.83301 4 7.5 6s8.16699 3 13.5 3h20c5.33301 0 11.166 -1.83301 17.499 -5.5s12.166 -11.167 17.499 -22.5l6 -15h-37l28 -62h36l37 -85c4.66699 -9.33301 4.66699 -18 0 -26zM11.001 896l37 84.999
h74l27 62h-92l6 15c5.33301 11.333 11.166 18.833 17.499 22.5s12.166 5.5 17.499 5.5h75c6 0 10.667 -1 14 -3s5.66602 -4 6.99902 -6c2 -2.66699 3.33301 -6 4 -10s-0.666016 -9.66699 -3.99902 -17l-3 -7h92l-31 -62h-74l-46 -93c-4 -8 -8.33301 -14.333 -13 -19
c-5.33301 -6 -12.666 -9 -21.999 -9h-64c-6.66699 0 -11.667 1.16699 -15 3.5s-5.66602 4.5 -6.99902 6.5c-4 6.66699 -4 15.334 0 26.001z" />
    <glyph glyph-name="Edieresis" unicode="&#xcb;" horiz-adv-x="840" 
d="M-24 792c0 16 3.49902 25.834 10.499 29.501s12.833 5.5 17.5 5.5h525c4 0 9.66699 -1.83301 17 -5.5s11 -13.167 11 -28.5v-4h50v-21h-50v-55c0 -2.66699 -0.333008 -4.66699 -1 -6h50c-1.33301 -12.667 -5.16602 -20.5 -11.499 -23.5s-11.5 -4.5 -15.5 -4.5l-562 1
c-4 0 -9.33301 1.5 -16 4.5s-10.667 10.5 -12 22.5h-12c-0.666992 1.33301 -1 3.66602 -1 6.99902v54h62v21h-62v3zM643.999 58.001l-34.999 -0.000976562v-23c0 -11.333 -2 -19.333 -6 -24s-8.33301 -7.66699 -13 -9h-330c-44 0 -81.333 5.66699 -112 17
c-24.667 8.66699 -46 21.667 -64 39h46c-2.66699 2.66699 -5 5.16699 -7 7.5s-4 4.83301 -6 7.5c-1.33301 1.33301 -2.66602 3.33301 -3.99902 6h-46c-18.667 26 -32 57 -40 93v1h51c-4 17.333 -7 37.666 -9 60.999h-52l-2 28.5c-0.666992 9.66699 -1 19.834 -1 30.501l-1 5
l1 36h31v21h-30l1 69l4 12.5c1.33301 4.33301 3.33301 8.5 6 12.5c14 22 33.333 35.667 58 41h496c4 0 9.66699 -1.83301 17 -5.5s11 -13.167 11 -28.5v-79c0 -9.33301 -1.66699 -16.666 -5 -21.999h30c-3.33301 -5.33301 -7.16602 -8.5 -11.499 -9.5
s-7.83301 -1.5 -10.5 -1.5h-447c-0.666992 0 -1 -3.33301 -1 -10h-30c0 -4.66699 -0.166992 -10.5 -0.5 -17.5s-0.5 -14.167 -0.5 -21.5v-25c0.666992 -2.66699 1 -5.33398 1 -8.00098s0.333008 -5.66699 1 -9c1.33301 -3.33301 2.16602 -6.5 2.49902 -9.5
s1.16602 -6.16699 2.49902 -9.5h30c3.33301 -10.667 7.33301 -18.667 12 -24c7.33301 -10.667 17.333 -18 30 -22c12 -4.66699 29.333 -7 52 -7h25c4 -0.666992 8.16699 -1.16699 12.5 -1.5s9.16602 -0.5 14.499 -0.5h310c4 -1.33301 7.33301 -3.33301 10 -6h-37
c2.66699 -2.66699 5 -6.16699 7 -10.5s3 -10.166 3 -17.499v-66h36v-21zM102 482l-1 1v-1h1zM196 913c-0.666992 0 -1.33496 -0.331055 -2.00195 -0.998047c-1.33301 0 -2.83301 -0.166992 -4.5 -0.5s-3.16699 -0.5 -4.5 -0.5h-65c-1.33301 0 -2.83301 0.166992 -4.5 0.5
s-3.16699 0.5 -4.5 0.5l-2 1c-1.33301 0.666992 -2.33301 1 -3 1s-1.66699 0.333008 -3 1l-1 1c-2.66699 1.33301 -4.66699 2.66602 -6 3.99902c-0.666992 0 -1 0.333008 -1 1l-6 6h20c-2 2.66699 -4.33301 7.33398 -7 14.001h-20c0 1.33301 -0.166992 2.83301 -0.5 4.5
s-0.5 3.16699 -0.5 4.5v33h20v32c0 2.66699 0.666992 6 2 10h-21c2 5.33301 5 10.666 9 15.999l1 1l3 3l2 2c0.666992 0 1.66699 0.666992 3 2c0.666992 0 1.16699 0.166992 1.5 0.5s0.833008 0.5 1.5 0.5c0.666992 0.666992 1.16699 1 1.5 1s0.833008 0.333008 1.5 1
c0.666992 0 1.33398 0.166992 2.00098 0.5s1.33398 0.5 2.00098 0.5c1.33301 0 2.33301 0.333008 3 1h7h65h7c0.666992 -0.666992 1.66699 -1 3 -1c0.666992 0 1.33398 -0.166992 2.00098 -0.5s1.33398 -0.5 2.00098 -0.5c0.666992 -0.666992 1.16699 -1 1.5 -1
s0.833008 -0.333008 1.5 -1c0.666992 0 1.16699 -0.166992 1.5 -0.5s0.833008 -0.5 1.5 -0.5c1.33301 -1.33301 2.33301 -2 3 -2c1.33301 -1.33301 2.33301 -2 3 -2l3 -3c0 -0.666992 0.333008 -1 1 -1c1.33301 -2.66699 2.66602 -5.16699 3.99902 -7.5
s2.66602 -5.16602 3.99902 -8.49902c0.666992 -2 1 -5.33301 1 -10v-32v-33c0 -4 -0.333008 -7 -1 -9c-0.666992 -4 -3 -8.66699 -7 -14l-6 -6v-1c-1.33301 -0.666992 -2.33301 -1.33398 -3 -2.00098s-1.66699 -1.33398 -3 -2.00098c-0.666992 0 -1 -0.166992 -1 -0.5
s-0.333008 -0.5 -1 -0.5c-1.33301 -0.666992 -2.33301 -1 -3 -1s-1.66699 -0.333008 -3 -1zM483.999 1053c1.33301 0.666992 4.00195 1 8.00195 1h65c4 0 7 -0.333008 9 -1h2l6 -3h2c1.33301 -1.33301 3.33301 -2.66602 6 -3.99902c0 -0.666992 0.333008 -1 1 -1
c2.66699 -2.66699 4.33398 -4.66699 5.00098 -6h-20c4 -5.33301 6.33301 -10 7 -14h20c0.666992 -2 1 -5.33301 1 -10v-32h-20v-33c0 -4 -0.333008 -7 -1 -9h20c-0.666992 -5.33301 -3.33398 -10.666 -8.00098 -15.999l-1 -1l-3 -3l-2 -2
c-0.666992 -0.666992 -1.16699 -1 -1.5 -1s-0.833008 -0.333008 -1.5 -1s-1.33398 -1 -2.00098 -1s-1.33398 -0.333008 -2.00098 -1c-0.666992 0 -1.16699 -0.166992 -1.5 -0.5s-0.833008 -0.5 -1.5 -0.5c-0.666992 -0.666992 -2 -1 -4 -1
c-0.666992 -0.666992 -1.33398 -1 -2.00098 -1c-1.33301 0 -2.66602 -0.166992 -3.99902 -0.5s-2.66602 -0.5 -3.99902 -0.5h-65c-1.33301 0 -2.5 0.166992 -3.5 0.5s-2.16699 0.5 -3.5 0.5s-2 0.333008 -2 1c-2 0 -3.66699 0.333008 -5 1
c-0.666992 0 -1.16699 0.166992 -1.5 0.5s-0.833008 0.5 -1.5 0.5c-0.666992 0.666992 -1.16699 1 -1.5 1s-0.833008 0.333008 -1.5 1s-1.16699 1 -1.5 1s-0.833008 0.333008 -1.5 1l-2 2l-3 3c-0.666992 0 -1 0.333008 -1 1
c-4.66699 5.33301 -7.33398 10.666 -8.00098 15.999c-1.33301 4 -2 7 -2 9v33v32c0 2.66699 0.666992 6 2 10c1.33301 5.33301 3.33301 10 6 14l6 6l1 1c2.66699 1.33301 4.66699 2.66602 6 3.99902h1c1.33301 0.666992 2.5 1.16699 3.5 1.5s2.16699 0.833008 3.5 1.5h2z
" />
    <glyph glyph-name="Igrave" unicode="&#xcc;" horiz-adv-x="420" 
d="M184 35c0 -15.333 -3.50293 -24.832 -10.5029 -28.499s-12.5 -5.5 -16.5 -5.5h-80c-4.66699 0 -10.667 1.83301 -18 5.5s-11 13.167 -11 28.5v43h27v62h-27v43h17v63h-17v180h35v101h-35v63v95h46v21h-46v62h23v23c0 8 1.33301 14.167 4 18.5
s5.83398 7.66602 9.50098 9.99902s7.33398 3.83301 11.001 4.5s6.83398 1 9.50098 1h64c4 0 9.66699 -1.83301 17 -5.5s11 -13.167 11 -28.5v-23h-29v-62h29v-21v-95h-39v-63h39v-122h-18v-159h18v-63h-18v-43h18v-62h-13v-43zM179.997 878.001
c-1.33301 -2.66699 -3.83301 -4.99902 -7.5 -6.99902s-8.5 -3 -14.5 -3h-27c-8.66699 0 -16.334 2.66699 -23.001 8c-4.66699 5.33301 -8.66699 11.666 -12 18.999l-46 93h-37l-31 62h55l-3 8c-3.33301 6.66699 -4.66602 12 -3.99902 16s2 7.33301 4 10
c1.33301 2 3.66602 4 6.99902 6s8 3 14 3h19c5.33301 0 11.333 -1.66699 18 -5s12.334 -11 17.001 -23l7 -15h-37l27 -62h37l37 -85c4 -10.667 4 -19 0 -25z" />
    <glyph glyph-name="Iacute" unicode="&#xcd;" horiz-adv-x="419" 
d="M166 35l-0.000976562 43h12v62h-18v43h18v63h-18v159h18v122h-38v63h38v95v21h-29v62h29v23c0 15.333 -3.66699 24.833 -11 28.5s-13 5.5 -17 5.5h-64c-5.33301 0 -12.166 -1.83301 -20.499 -5.5s-12.5 -13.167 -12.5 -28.5v-23h-23v-62h45v-21h-45v-95v-63h34v-101h-34
v-180h17v-63h-17v-43h26v-62h-26v-43c0 -15.333 3.66699 -24.833 11 -28.5s13 -5.5 17 -5.5h80c4 0 9.66699 1.83301 17 5.5s11 13.167 11 28.5zM-20.001 903l37.002 84.999h74l27 62h-92l6 15c5.33301 12 11.166 19.667 17.499 23s12.166 5 17.499 5h75
c6 0 10.667 -1 14 -3s5.66602 -4 6.99902 -6c2 -2.66699 3.33301 -6 4 -10s-0.666016 -9.33301 -3.99902 -16l-3 -8h92l-31 -62h-74l-46 -93c-3.33301 -7.33301 -7.33301 -13.666 -12 -18.999c-6.66699 -5.33301 -14.334 -8 -23.001 -8h-64c-6.66699 0 -11.667 1 -15 3
s-5.66602 4.33301 -6.99902 7c-4 6 -4 14.333 0 25z" />
    <glyph glyph-name="Icircumflex" unicode="&#xce;" horiz-adv-x="790" 
d="M329 35c0 -15.333 -3.49902 -24.833 -10.499 -28.5s-12.833 -5.5 -17.5 -5.5h-79c-4.66699 0 -10.667 1.83301 -18 5.5s-11 13.167 -11 28.5v43h26v62h-26v43h17v63h-17v180h35v101h-96v63v95h106v21h-45v62h23v23c0 15.333 4.16699 24.833 12.5 28.5
s15.166 5.5 20.499 5.5h64c4.66699 0 10.5 -1.83301 17.5 -5.5s10.5 -13.167 10.5 -28.5v-23h-28v-62h28v-21v-95h-38v-63h38v-122h-17v-159h17v-63h-17v-43h17v-62h-12v-43zM533.001 878c-1.33301 -2.66699 -3.66602 -5 -6.99902 -7s-8.33301 -3 -15 -3h-27
c-9.33301 0 -16.666 2.66699 -21.999 8s-9.33301 11.666 -12 18.999l-47 93h-37l-31 62h56l-4 8c-3.33301 6.66699 -4.5 12 -3.5 16s2.16699 7.33301 3.5 10c1.33301 2 3.83301 4 7.5 6s8.16699 3 13.5 3h20c5.33301 0 11.166 -1.66699 17.499 -5s12.166 -11 17.499 -23
l6 -15h-37l28 -62h36l37 -85c4.66699 -9.33301 4.66699 -17.666 0 -24.999zM-21.999 903l37.002 84.999h74l27 62h-92l6 15c5.33301 12 11.166 19.667 17.499 23s12.166 5 17.499 5h75c6 0 10.667 -1 14 -3s5.66602 -4 6.99902 -6c2 -2.66699 3.33301 -6 4 -10
s-0.666016 -9.33301 -3.99902 -16l-3 -8h92l-31 -62h-74l-46 -93c-3.33301 -7.33301 -7.33301 -13.666 -12 -18.999c-6.66699 -5.33301 -14.334 -8 -23.001 -8h-64c-6.66699 0 -11.667 1 -15 3s-5.66602 4.33301 -6.99902 7c-4 6 -4 14.333 0 25z" />
    <glyph glyph-name="Idieresis" unicode="&#xcf;" horiz-adv-x="682" 
d="M261 35c0 -15.333 -3.66602 -24.833 -10.999 -28.5s-13 -5.5 -17 -5.5h-79c-4.66699 0 -10.667 1.83301 -18 5.5s-11 13.167 -11 28.5v43h26v62h-26v43h17v63h-17v180h35v101h-35v63v95h45v21h-45v62h23v23c0 15.333 4.16699 24.833 12.5 28.5s15.166 5.5 20.499 5.5h64
c4.66699 0 10.5 -1.83301 17.5 -5.5s10.5 -13.167 10.5 -28.5v-23h-29v-62h29v-21v-95h-38v-63h38v-122h-17v-159h17v-63h-17v-43h17v-62h-12v-43zM83.001 920c-1.33301 0 -1.99902 -0.333008 -1.99902 -1c-1.33301 0 -2.83301 -0.166992 -4.5 -0.5s-3.16699 -0.5 -4.5 -0.5
h-65c-1.33301 0 -2.83301 0.166992 -4.5 0.5s-3.16699 0.5 -4.5 0.5c0 0.666992 -0.666992 1 -2 1c-1.33301 0.666992 -2.33301 1 -3 1s-1.66699 0.333008 -3 1c0 0.666992 -0.333008 1 -1 1c-2 0.666992 -4 2 -6 4c-0.666992 0 -1 0.333008 -1 1l-6 6h20
c-2 2.66699 -4.33301 7.33398 -7 14.001h-20c-0.666992 2 -1 5 -1 9v33h20v33c0 1.33301 0.166992 2.83301 0.5 4.5s0.5 3.16699 0.5 4.5h-20c1.33301 3.33301 2.66602 6.16602 3.99902 8.49902s2.66602 4.83301 3.99902 7.5c0.666992 0 1 0.166992 1 0.5
s0.333008 0.5 1 0.5l3 3l2 2c0.666992 0 1.66699 0.666992 3 2c0.666992 0 1.66699 0.666992 3 2c1.33301 0 2.33301 0.333008 3 1c0.666992 0 1.33398 0.166992 2.00098 0.5s1.33398 0.5 2.00098 0.5s1.16699 0.166992 1.5 0.5s0.833008 0.5 1.5 0.5
c1.33301 0 2.5 0.166992 3.5 0.5s2.16699 0.5 3.5 0.5h65c1.33301 0 2.5 -0.166992 3.5 -0.5s2.16699 -0.5 3.5 -0.5c0.666992 0 1.16699 -0.166992 1.5 -0.5s0.833008 -0.5 1.5 -0.5s1.33398 -0.166992 2.00098 -0.5s1.33398 -0.5 2.00098 -0.5
c0.666992 -0.666992 1.66699 -1 3 -1c1.33301 -1.33301 2.33301 -2 3 -2c1.33301 -1.33301 2.33301 -2 3 -2l2 -2c1.33301 -0.666992 2.66602 -1.66699 3.99902 -3l1 -1c1.33301 -2.66699 2.66602 -5.16699 3.99902 -7.5s2.66602 -5.16602 3.99902 -8.49902
c0.666992 -2 1 -5 1 -9v-33v-33c0 -4 -0.333008 -7 -1 -9c-2.66699 -6.66699 -5 -11.334 -7 -14.001l-6 -6l-1 -1c-2 -2 -4 -3.33301 -6 -4l-1 -1c-1.33301 -0.666992 -2.33301 -1 -3 -1s-1.66699 -0.333008 -3 -1zM369.002 1060l1.99805 1
c1.33301 0 2.66602 0.166992 3.99902 0.5s2.66602 0.5 3.99902 0.5h65c1.33301 0 2.83301 -0.166992 4.5 -0.5s3.16699 -0.5 4.5 -0.5c0.666992 -0.666992 1.33398 -1 2.00098 -1c1.33301 -0.666992 2.33301 -1 3 -1s1.66699 -0.333008 3 -1
c0.666992 -0.666992 1.33398 -1 2.00098 -1c1.33301 -0.666992 2.33301 -1.33398 3 -2.00098s1.66699 -1.33398 3 -2.00098l1 -1c2.66699 -2.66699 4.33398 -4.66699 5.00098 -6h-20c4 -5.33301 6.33301 -10 7 -14h20c0.666992 -2 1 -5.33301 1 -10v-32h-20v-33
c0 -4 -0.333008 -7 -1 -9h20c-0.666992 -5.33301 -3.33398 -10.666 -8.00098 -15.999l-1 -1l-3 -3l-2 -2l-4 -2c-0.666992 0 -1.66699 -0.666992 -3 -2c-1.33301 0 -2.33301 -0.333008 -3 -1c-0.666992 0 -1.16699 -0.166992 -1.5 -0.5s-1.16602 -0.5 -2.49902 -0.5
c-0.666992 0 -1.33398 -0.333008 -2.00098 -1c-1.33301 0 -2.66602 -0.166992 -3.99902 -0.5s-2.66602 -0.5 -3.99902 -0.5h-65c-1.33301 0 -2.5 0.166992 -3.5 0.5s-2.16699 0.5 -3.5 0.5c-0.666992 0 -1.33398 0.333008 -2.00098 1
c-1.33301 0 -2.16602 0.166992 -2.49902 0.5s-1.16602 0.5 -2.49902 0.5c-0.666992 0.666992 -1.66699 1 -3 1c-1.33301 1.33301 -2.33301 2 -3 2c-1.33301 1.33301 -2.33301 2 -3 2l-2 2l-3 3c-0.666992 0 -1 0.333008 -1 1
c-4.66699 5.33301 -7.33398 10.666 -8.00098 15.999c-1.33301 4 -2 7 -2 9v33v32c0 2.66699 0.666992 6 2 10c1.33301 5.33301 3.33301 10 6 14l6 6l1 1c1.33301 0.666992 2.33301 1.33398 3 2.00098s1.66699 1.33398 3 2.00098l1 1c1.33301 0.666992 2.5 1 3.5 1
s2.16699 0.333008 3.5 1z" />
    <glyph glyph-name="Ntilde" unicode="&#xd1;" horiz-adv-x="946" 
d="M660 28c-15.333 -18.667 -37.3301 -28.002 -65.9971 -28.002h-43c-6.66699 0 -12.834 0.166992 -18.501 0.5s-10.834 0.833008 -15.501 1.5c-9.33301 2 -18.333 5.66699 -27 11c-4 2.66699 -7.83301 5.83398 -11.5 9.50098s-7.16699 7.83398 -10.5 12.501l-10.5 17
l-12.5 21l-2 2h42l-63 111h-41l-107 190h43l-13 24h-22l-103 184h-22l-29 51c-0.666992 0 -1 0.666992 -1 2c0 0.666992 -0.333008 1 -1 1h-1h-5v-2v-260h-22v-118h22v-183h-36v-24h36v-16c0 -16 -3.5 -25.833 -10.5 -29.5s-12.833 -5.5 -17.5 -5.5h-44
c-4.66699 -0 -10.667 1.83301 -18 5.5s-11 13.5 -11 29.5v16h-45v24h34v111h-34v214h22v184h-22v73h15v39v11h-15c0.666992 30 4.33398 54 11.001 72h32c3.33301 8 6.33301 13.667 9 17c15.333 19.333 37.333 29 66 29h43c13.333 0 25 -1 35 -3
c10 -0.666992 19.333 -4.33398 28 -11.001l10.5 -10c3.66699 -3.33301 7.16699 -7.66602 10.5 -12.999c2.66699 -4 5 -7 7 -9h-43c2.66699 -4 5.16699 -8.16699 7.5 -12.5s5.16602 -9.16602 8.49902 -14.499l25 -45h43l28 -50h-48l41 -73h47l117 -208h-22l66 -118h-30
l38 -68c1.33301 -2 2.33301 -3 3 -3h5v2v69h7l38 -68c0.666992 -2 1.66699 -3 3 -3h5v2v211h22v184h-22v73h14v50h-14v72h32v11c0 16 3.5 25.833 10.5 29.5s12.833 5.5 17.5 5.5h57c4 0 9.66699 -1.83301 17 -5.5s11 -13.5 11 -29.5v-11h-43v-72h43v-50h-47v-73h47v-208h-22
v-118h-31v-72h53v-57c0 -22.667 -1.33301 -40.667 -4 -54h-40c-1.33301 -4.66699 -2.5 -9 -3.5 -13s-2.16699 -7.66699 -3.5 -11h12c-2.66699 -8.66699 -6.33398 -16.334 -11.001 -23.001zM507.003 1021c10 0 19.3271 1.66992 27.9941 5.00293v-22h-66v-14
c0 -10.667 -1.66699 -19 -5 -25c-1.33301 -2.66699 -3 -5.33398 -5 -8.00098s-4.33301 -5.33398 -7 -8.00098c-11.333 -10.667 -26 -19.334 -44 -26.001c-4.66699 -1.33301 -9.16699 -2.5 -13.5 -3.5s-8.5 -2.16699 -12.5 -3.5
c-7.33301 1.33301 -14.166 2.83301 -20.499 4.5s-12.166 4.16699 -17.499 7.5c-20.667 8.66699 -39.334 19 -56.001 31c-13.333 8.66699 -26.666 15.334 -39.999 20.001c-12.667 5.33301 -28.334 8 -47.001 8c-9.33301 0 -19 -1.66699 -29 -5
c-13.333 3.33301 -25.666 5 -36.999 5s-22 -2 -32 -6c-7.33301 -2.66699 -16.333 -9.33398 -27 -20.001v43h97v15c0 10 1.33301 17.667 4 23c3.33301 6.66699 7.33301 12.334 12 17.001c1.33301 1.33301 2.83301 2.5 4.5 3.5s3.16699 2.16699 4.5 3.5h-97
c4.66699 4 10 7.5 16 10.5s12.667 6.16699 20 9.5c14 5.33301 28.333 8.33301 43 9c22.667 -0.666992 43.334 -5.33398 62.001 -14.001c4.66699 -2.66699 9.33398 -5.16699 14.001 -7.5s9.33398 -4.83301 14.001 -7.5h26l13.5 -8c4.33301 -2.66699 8.83301 -5.66699 13.5 -9
c13.333 -8.66699 26.666 -15.334 39.999 -20.001c6.66699 -3.33301 13.834 -5.5 21.501 -6.5s16.167 -1.5 25.5 -1.5c11.333 0 22 2 32 6c2 0.666992 5 2.33398 9 5.00098l9 -3c6.66699 -3.33301 13.834 -5.5 21.501 -6.5s16.167 -1.5 25.5 -1.5z" />
    <glyph glyph-name="Ograve" unicode="&#xd2;" horiz-adv-x="947" 
d="M587 36c-14 -8.66699 -27.6689 -15.6631 -41.002 -20.9961c-15.333 -5.33301 -32.666 -9.33301 -51.999 -12s-39.666 -4 -60.999 -4h-223c-45.333 0 -83 5.33301 -113 16c-13.333 5.33301 -27 12.333 -41 21h34c-7.33301 5.33301 -14 10.666 -20 15.999
s-11.667 11.666 -17 18.999c-4.66699 5.33301 -8.83398 11.166 -12.501 17.499s-7.16699 13.166 -10.5 20.499h-33c-3.33301 5.33301 -6.66602 13.333 -9.99902 24h7c-2 5.33301 -4 11 -6 17s-3.66699 12.333 -5 19c-2.66699 11.333 -4.83398 23.166 -6.50098 35.499
s-3.16699 25.166 -4.5 38.499h-6c-2 22 -3 45 -3 69v3h11v118h-11v24h37v53c0 49.333 3.66699 93.333 11 132h-37c1.33301 4 2 7.66699 2 11c6 24 13.333 44.333 22 61h10c6 13.333 13.333 25.333 22 36c2 2.66699 4 5.16699 6 7.5s4 4.5 6 6.5h55
c19.333 19.333 41 33.333 65 42c30.667 12 68.334 18 113.001 18h179c43.333 0 81 -6 113 -18c32 -11.333 58 -30 78 -56c4 -5.33301 7.83301 -11 11.5 -17s7.16699 -12.333 10.5 -19h-36c8 -18.667 15 -39 21 -61c0 -3.33301 0.666992 -7 2 -11h36
c6.66699 -35.333 10 -79.333 10 -132v-53h-16v-24h16v-121c0 -28 -1 -54 -3 -78s-5.33301 -45.667 -10 -65c-1.33301 -6.66699 -2.83301 -13 -4.5 -19s-3.5 -11.667 -5.5 -17h-32c-1.33301 -4.66699 -3 -9 -5 -13s-3.66699 -7.66699 -5 -11h32
c-3.33301 -7.33301 -6.83301 -14.166 -10.5 -20.499s-7.5 -12.166 -11.5 -17.499c-10 -13.333 -22.333 -25 -37 -35h-21zM506.998 154.004c6.66699 2 12.3311 4.83301 16.998 8.5s9 8.16699 13 13.5c3.33301 5.33301 6.5 11.833 9.5 19.5s5.16699 16.167 6.5 25.5
c2 6.66699 3 14 3 22h31c0.666992 7.33301 1.16699 15.333 1.5 24s0.5 18 0.5 28v20h-37v142h37v71c0 14.667 -0.5 28.167 -1.5 40.5s-2.16699 23.5 -3.5 33.5c-2.66699 14.667 -7.33398 28 -14.001 40h-37c-0.666992 0.666992 -1.16699 1.33398 -1.5 2.00098
s-0.833008 1.33398 -1.5 2.00098c-6.66699 10.667 -16.667 18 -30 22c-12 4.66699 -29.333 7 -52 7h-35h-198h-36c-21.333 0 -38.666 -2.33301 -51.999 -7c-12 -4 -22 -11.333 -30 -22c-0.666992 -0.666992 -1 -1.33398 -1 -2.00098s-0.333008 -1.33398 -1 -2.00098h36
c-3.33301 -5.33301 -6.16602 -11.333 -8.49902 -18s-4.16602 -14 -5.49902 -22c-4 -20 -6 -44.667 -6 -74v-213h-24v-20v-28c0 -8.66699 0.666992 -16.667 2 -24h25c0 -8 1 -15.333 3 -22c1.33301 -9.33301 3.5 -17.833 6.5 -25.5s6.16699 -14.167 9.5 -19.5
c4 -5.33301 8.33301 -9.83301 13 -13.5s10.334 -6.5 17.001 -8.5c13.333 -4.66699 30.666 -7 51.999 -7h7h226h7c22.667 0 40 2.33301 52 7zM396.995 879.004c-1.33301 -2 -3.66504 -4.16504 -6.99805 -6.49805s-8 -3.5 -14 -3.5h-27c-9.33301 0 -17 3 -23 9
c-4.66699 5.33301 -8.66699 11.666 -12 18.999l-46 93h-37l-31 62h55l-4 7c-3.33301 6.66699 -4.5 12.167 -3.5 16.5s2.16699 7.5 3.5 9.5c1.33301 2.66699 3.83301 5 7.5 7s8.16699 3 13.5 3h20c5.33301 0 11.166 -1.83301 17.499 -5.5s12.166 -11.167 17.499 -22.5l7 -15
h-37l27 -62h37l37 -85c4 -10.667 3.66699 -19.334 -1 -26.001z" />
    <glyph glyph-name="Oacute" unicode="&#xd3;" horiz-adv-x="947" 
d="M588 36l21.002 -0.00390625c14.667 10 27 21.667 37 35c4 5.33301 7.83301 11.166 11.5 17.499s7.16699 13.166 10.5 20.499h-32c1.33301 3.33301 3 7 5 11s3.66699 8.33301 5 13h32c2 5.33301 3.83301 11 5.5 17s3.16699 12.333 4.5 19c4.66699 19.333 8 41 10 65
s3 50 3 78v121h-16v24h54v53c0 52.667 -3.33301 96.667 -10 132h-74c-1.33301 4 -2 7.66699 -2 11c-6 22 -13 42.333 -21 61h36c-3.33301 6.66699 -6.83301 13 -10.5 19s-7.5 11.667 -11.5 17c-20 26 -46 44.667 -78 56c-32 12 -69.667 18 -113 18h-179
c-44.667 0 -82.334 -6 -113.001 -18c-24 -8.66699 -45.667 -22.667 -65 -42h-55c-2 -2 -4 -4.16699 -6 -6.5s-4 -4.83301 -6 -7.5c-8.66699 -10.667 -16 -22.667 -22 -36h-10c-8.66699 -16.667 -16 -37 -22 -61c0 -3.33301 -0.666992 -7 -2 -11h37
c-7.33301 -38.667 -11 -82.667 -11 -132v-53h-37v-24h11v-118h-11v-3c0 -24 1 -47 3 -69h6c1.33301 -13.333 2.83301 -26.166 4.5 -38.499s3.83398 -24.166 6.50098 -35.499c1.33301 -6.66699 3 -13 5 -19s4 -11.667 6 -17h-7c3.33301 -10.667 6.66602 -18.667 9.99902 -24
h33c3.33301 -7.33301 6.83301 -14.166 10.5 -20.499s7.83398 -12.166 12.501 -17.499c5.33301 -7.33301 11 -13.666 17 -18.999s12.667 -10.666 20 -15.999h-34c14 -8.66699 27.667 -15.667 41 -21c30 -10.667 67.667 -16 113 -16h223c21.333 0 41.666 1.33301 60.999 4
s36.666 6.66699 51.999 12c13.333 5.33301 27 12.333 41 21zM508.002 153.996c-12 -4.66699 -29.3301 -7 -51.9971 -7h-7h-226h-7c-21.333 0 -38.666 2.33301 -51.999 7c-6.66699 2 -12.334 4.83301 -17.001 8.5s-9 8.16699 -13 13.5
c-3.33301 5.33301 -6.5 11.833 -9.5 19.5s-5.16699 16.167 -6.5 25.5c-2 6.66699 -3 14 -3 22h-25c-1.33301 7.33301 -2 15.333 -2 24v28v20h24v213c0 29.333 2 54 6 74c1.33301 8 3.16602 15.333 5.49902 22s5.16602 12.667 8.49902 18h-36
c0.666992 0.666992 1 1.33398 1 2.00098s0.333008 1.33398 1 2.00098c8 10.667 18 18 30 22c13.333 4.66699 30.666 7 51.999 7h36h198h35c22.667 0 40 -2.33301 52 -7c13.333 -4 23.333 -11.333 30 -22c0.666992 -0.666992 1.16699 -1.33398 1.5 -2.00098
s0.833008 -1.33398 1.5 -2.00098h37c6.66699 -12 11.334 -25.333 14.001 -40c1.33301 -10 2.5 -21.167 3.5 -33.5s1.5 -25.833 1.5 -40.5v-71h-145v-142h145v-20c0 -10 -0.166992 -19.333 -0.5 -28s-0.833008 -16.667 -1.5 -24h-31c0 -8 -1 -15.333 -3 -22
c-1.33301 -9.33301 -3.5 -17.833 -6.5 -25.5s-6.16699 -14.167 -9.5 -19.5c-4 -5.33301 -8.33301 -9.83301 -13 -13.5s-10.334 -6.5 -17.001 -8.5zM298.005 904.996l37 84.999h73l28 62h-93l7 15c5.33301 11.333 11.166 18.833 17.499 22.5s12.166 5.5 17.499 5.5h75
c5.33301 0 9.83301 -1 13.5 -3s6.16699 -4.33301 7.5 -7c1.33301 -2 2.5 -5.16699 3.5 -9.5s-0.166992 -9.83301 -3.5 -16.5l-4 -7h154l-32 -62h-134l-47 -93c-2.66699 -7.33301 -6.66699 -13.666 -12 -18.999c-5.33301 -6 -12.666 -9 -21.999 -9h-64
c-6.66699 0 -11.667 1.16699 -15 3.5s-5.66602 4.5 -6.99902 6.5c-4.66699 8 -4.66699 16.667 0 26z" />
    <glyph glyph-name="Ocircumflex" unicode="&#xd4;" horiz-adv-x="947" 
d="M595 36c-14 -8.66699 -27.6689 -15.6631 -41.002 -20.9961c-15.333 -5.33301 -32.666 -9.33301 -51.999 -12s-39.666 -4 -60.999 -4h-223c-45.333 0 -83 5.33301 -113 16c-13.333 5.33301 -27 12.333 -41 21h34c-7.33301 5.33301 -14 10.666 -20 15.999
s-11.667 11.666 -17 18.999c-4.66699 5.33301 -8.83398 11.166 -12.501 17.499s-7.16699 13.166 -10.5 20.499h-33c-3.33301 5.33301 -6.66602 13.333 -9.99902 24h7c-2 5.33301 -4 11 -6 17s-3.66699 12.333 -5 19c-2.66699 11.333 -4.83398 23.166 -6.50098 35.499
s-3.16699 25.166 -4.5 38.499h-6c-2 22 -3 45 -3 69v3h11v118h-11v24h37v53c0 49.333 3.66699 93.333 11 132h-37c1.33301 4 2 7.66699 2 11c6 24 13.333 44.333 22 61h10c6 13.333 13.333 25.333 22 36c2 2.66699 4 5.16699 6 7.5s4 4.5 6 6.5h55
c19.333 19.333 41 33.333 65 42c30.667 12 68.334 18 113.001 18h179c43.333 0 81 -6 113 -18c32 -11.333 58 -30 78 -56c4 -5.33301 7.83301 -11 11.5 -17s7.16699 -12.333 10.5 -19h-36c8 -18.667 15 -39 21 -61c0 -3.33301 0.666992 -7 2 -11h36
c6.66699 -35.333 10 -79.333 10 -132v-53h-16v-24h16v-121c0 -28 -1 -54 -3 -78s-5.33301 -45.667 -10 -65c-1.33301 -6.66699 -2.83301 -13 -4.5 -19s-3.5 -11.667 -5.5 -17h-32c-1.33301 -4.66699 -3 -9 -5 -13s-3.66699 -7.66699 -5 -11h32
c-3.33301 -7.33301 -6.83301 -14.166 -10.5 -20.499s-7.5 -12.166 -11.5 -17.499c-10 -13.333 -22.333 -25 -37 -35h-21zM514.998 154.004c6.66699 2 12.3311 4.83301 16.998 8.5s9 8.16699 13 13.5c3.33301 5.33301 6.5 11.833 9.5 19.5s5.16699 16.167 6.5 25.5
c2 6.66699 3 14 3 22h31c0.666992 7.33301 1.16699 15.333 1.5 24s0.5 18 0.5 28v20h-37v142h37v71c0 14.667 -0.5 28.167 -1.5 40.5s-2.16699 23.5 -3.5 33.5c-2.66699 14.667 -7.33398 28 -14.001 40h-37c-0.666992 0.666992 -1.16699 1.33398 -1.5 2.00098
s-0.833008 1.33398 -1.5 2.00098c-6.66699 10.667 -16.667 18 -30 22c-12 4.66699 -29.333 7 -52 7h-35h-198h-36c-21.333 0 -38.666 -2.33301 -51.999 -7c-12 -4 -22 -11.333 -30 -22c-0.666992 -0.666992 -1 -1.33398 -1 -2.00098s-0.333008 -1.33398 -1 -2.00098h36
c-3.33301 -5.33301 -6.16602 -11.333 -8.49902 -18s-4.16602 -14 -5.49902 -22c-4 -20 -6 -44.667 -6 -74v-213h-24v-20v-28c0 -8.66699 0.666992 -16.667 2 -24h25c0 -8 1 -15.333 3 -22c1.33301 -9.33301 3.5 -17.833 6.5 -25.5s6.16699 -14.167 9.5 -19.5
c4 -5.33301 8.33301 -9.83301 13 -13.5s10.334 -6.5 17.001 -8.5c13.333 -4.66699 30.666 -7 51.999 -7h7h226h7c22.667 0 40 2.33301 52 7zM624.995 879.004c-1.33301 -2 -3.66504 -4.16504 -6.99805 -6.49805s-8 -3.5 -14 -3.5h-27c-9.33301 0 -17 3 -23 9
c-4.66699 5.33301 -8.66699 11.666 -12 18.999l-46 93h-37l-31 62h55l-4 7c-3.33301 6.66699 -4.5 12.167 -3.5 16.5s2.16699 7.5 3.5 9.5c1.33301 2.66699 3.83301 5 7.5 7s8.16699 3 13.5 3h20c5.33301 0 11.166 -1.83301 17.499 -5.5s12.166 -11.167 17.499 -22.5l7 -15
h-37l27 -62h37l37 -85c4 -10.667 3.66699 -19.334 -1 -26.001zM69.9961 905.006l37.002 84.998h74l27 62h-92l6 15c5.33301 11.333 11.166 18.833 17.499 22.5s12.166 5.5 17.499 5.5h75c6 0 10.667 -1 14 -3s5.66602 -4.33301 6.99902 -7c2 -2 3.33301 -5.16699 4 -9.5
s-0.666016 -9.83301 -3.99902 -16.5l-3 -7h92l-31 -62h-74l-46 -93c-3.33301 -7.33301 -7.33301 -13.666 -12 -18.999c-6 -6 -13.667 -9 -23 -9h-64c-6 0 -10.833 1.16699 -14.5 3.5s-6.16699 4.5 -7.5 6.5c-4 6.66699 -4 15.334 0 26.001z" />
    <glyph glyph-name="Otilde" unicode="&#xd5;" horiz-adv-x="947" 
d="M584 36c-14 -8.66699 -27.6689 -15.6631 -41.002 -20.9961c-15.333 -5.33301 -32.666 -9.33301 -51.999 -12s-39.666 -4 -60.999 -4h-223c-45.333 0 -83 5.33301 -113 16c-13.333 5.33301 -27 12.333 -41 21h34c-7.33301 5.33301 -14 10.666 -20 15.999
s-11.667 11.666 -17 18.999c-4.66699 5.33301 -8.83398 11.166 -12.501 17.499s-7.16699 13.166 -10.5 20.499h-33c-3.33301 5.33301 -6.66602 13.333 -9.99902 24h7c-2 5.33301 -4 11 -6 17s-3.66699 12.333 -5 19c-2.66699 11.333 -4.83398 23.166 -6.50098 35.499
s-3.16699 25.166 -4.5 38.499h-6c-2 22 -3 45 -3 69v3h11v118h-11v24h37v53c0 49.333 3.66699 93.333 11 132h-37c1.33301 4 2 7.66699 2 11c6 24 13.333 44.333 22 61h10c6 13.333 13.333 25.333 22 36c2 2.66699 4 5.16699 6 7.5s4 4.5 6 6.5h55
c19.333 19.333 41 33.333 65 42c30.667 12 68.334 18 113.001 18h179c43.333 0 81 -6 113 -18c32 -11.333 58 -30 78 -56c4 -5.33301 7.83301 -11 11.5 -17s7.16699 -12.333 10.5 -19h-36c8 -18.667 15 -39 21 -61c0 -3.33301 0.666992 -7 2 -11h36
c6.66699 -35.333 10 -79.333 10 -132v-53h-16v-24h16v-121c0 -28 -1 -54 -3 -78s-5.33301 -45.667 -10 -65c-1.33301 -6.66699 -2.83301 -13 -4.5 -19s-3.5 -11.667 -5.5 -17h-32c-1.33301 -4.66699 -3 -9 -5 -13s-3.66699 -7.66699 -5 -11h32
c-3.33301 -7.33301 -6.83301 -14.166 -10.5 -20.499s-7.5 -12.166 -11.5 -17.499c-10 -13.333 -22.333 -25 -37 -35h-21zM503.998 154.004c6.66699 2 12.3311 4.83301 16.998 8.5s9 8.16699 13 13.5c3.33301 5.33301 6.5 11.833 9.5 19.5s5.16699 16.167 6.5 25.5
c2 6.66699 3 14 3 22h31c0.666992 7.33301 1.16699 15.333 1.5 24s0.5 18 0.5 28v20h-155v142h155v71c0 14.667 -0.5 28.167 -1.5 40.5s-2.16699 23.5 -3.5 33.5c-2.66699 14.667 -7.33398 28 -14.001 40h-37c-0.666992 0.666992 -1.16699 1.33398 -1.5 2.00098
s-0.833008 1.33398 -1.5 2.00098c-6.66699 10.667 -16.667 18 -30 22c-12 4.66699 -29.333 7 -52 7h-35h-198h-36c-21.333 0 -38.666 -2.33301 -51.999 -7c-12 -4 -22 -11.333 -30 -22c-0.666992 -0.666992 -1 -1.33398 -1 -2.00098s-0.333008 -1.33398 -1 -2.00098h102
c-3.33301 -5.33301 -6.16602 -11.333 -8.49902 -18s-4.16602 -14 -5.49902 -22c-4 -20 -6 -44.667 -6 -74v-213h-90v-20v-28c0 -8.66699 0.666992 -16.667 2 -24h25c0 -8 1 -15.333 3 -22c1.33301 -9.33301 3.5 -17.833 6.5 -25.5s6.16699 -14.167 9.5 -19.5
c4 -5.33301 8.33301 -9.83301 13 -13.5s10.334 -6.5 17.001 -8.5c13.333 -4.66699 30.666 -7 51.999 -7h7h226h7c22.667 0 40 2.33301 52 7zM491.995 1020c8.66699 0 18 1.66992 28 5.00293v-22h-66v-14c0 -8.66699 -1.66699 -17 -5 -25l-6 -8
c-2 -2.66699 -4.33301 -5.33398 -7 -8.00098c-12 -10.667 -26.667 -19 -44 -25c-4 -2 -8.16699 -3.5 -12.5 -4.5s-8.83301 -2.16699 -13.5 -3.5c-6.66699 1.33301 -13.167 2.83301 -19.5 4.5s-12.5 4.16699 -18.5 7.5c-10 4.66699 -19.667 9.5 -29 14.5s-18 10.5 -26 16.5
c-12 8 -25.333 14.667 -40 20c-14 6 -30 9 -48 9c-10.667 0 -20.334 -2 -29.001 -6c-5.33301 1.33301 -11 2.66602 -17 3.99902s-12.667 2 -20 2c-10 0 -20.333 -2.33301 -31 -7c-8 -2.66699 -17.333 -9 -28 -19v42h97v15c0 5.33301 0.5 9.83301 1.5 13.5
s2.16699 7.16699 3.5 10.5c1.33301 2.66699 3 5.33398 5 8.00098s4.33301 5.33398 7 8.00098c3.33301 3.33301 6 5.66602 8 6.99902h-97c5.33301 4 10.833 7.5 16.5 10.5s12.167 6.16699 19.5 9.5c14 4.66699 28.667 7.66699 44 9c22 -0.666992 42.333 -5.33398 61 -14.001
l15 -7.5c4.66699 -2.33301 9.33398 -4.83301 14.001 -7.5h25c8.66699 -4.66699 17.667 -10.334 27 -17.001c12 -8 25.333 -14.667 40 -20c12.667 -5.33301 28.667 -8 48 -8c11.333 0 21.666 2 30.999 6c1.33301 1.33301 2.83301 2.33301 4.5 3s3.5 1.66699 5.5 3
c2.66699 -2 5.33398 -3.33301 8.00098 -4c12.667 -5.33301 28.667 -8 48 -8z" />
    </font>
</defs>
</svg>
